<svg width="332" height="140" viewBox="0 0 332 140" fill="none" xmlns="http://www.w3.org/2000/svg">
<g clip-path="url(#clip0_1267_881)">
<path d="M250.172 59.7917V33.9038C250.172 31.3225 252.272 29.2227 254.853 29.2227H271.788C274.37 29.2227 276.47 31.3225 276.47 33.9038V59.7917C276.47 62.3729 274.37 64.4728 271.788 64.4728H254.853C252.272 64.4728 250.172 62.3729 250.172 59.7917Z" fill="#6C63FF"/>
<path d="M258.844 40.4141H267.797V38.176H258.844V40.4141Z" fill="#3F3D56"/>
<path d="M261.078 36.4961H265.555V29.2223H261.078V36.4961Z" fill="#3F3D56"/>
<path d="M261.078 64.4727H265.555V57.1988H261.078V64.4727Z" fill="#3F3D56"/>
<path d="M238.139 60.8368H212.251C209.67 60.8368 207.57 58.7369 207.57 56.1557V39.2202C207.57 36.6389 209.67 34.5391 212.251 34.5391H238.139C240.721 34.5391 242.82 36.6389 242.82 39.2202V56.1557C242.82 58.7369 240.721 60.8368 238.139 60.8368Z" fill="#6C63FF"/>
<path d="M230.234 38.1758H221.281V40.4139H230.234V38.1758Z" fill="#3F3D56"/>
<path d="M214.844 49.9254V45.4492H207.57V49.9254H214.844Z" fill="#3F3D56"/>
<path d="M242.828 49.9254V45.4492H235.554V49.9254H242.828Z" fill="#3F3D56"/>
<path d="M28.1535 109.246L23.8318 84.0356C21.9114 72.8334 30.2026 62.4673 41.553 61.8794L103.163 58.6884L117.867 34.4541C119.817 31.2413 123.302 29.2793 127.06 29.2793H171.329C174.808 29.2793 177.749 31.8598 178.2 35.3101L179.324 54.7013L289.691 55.0317L303.575 100.787L290.688 100.159L291.349 114.037L274.496 114.698L268.879 98.8131C267.821 95.822 263.185 92.4493 258.367 89.6276C247.566 83.3018 233.689 85.3321 225.515 94.812C223.587 97.0483 222.239 99.3784 221.862 101.563L219.313 116.35L95.7285 114.368L79.5315 91.7106C74.7463 86.5031 52.1567 84.5903 50.1224 91.7106L37.9015 109.741L28.1535 109.246Z" fill="#E6E6E6"/>
<path d="M162.469 44.0275L166.105 61.1686L119.844 62.16L129.614 41.1819C130.501 39.2789 132.446 38.0973 134.544 38.1885L156.712 39.1524C159.518 39.2744 161.886 41.2797 162.469 44.0275Z" fill="white"/>
<path d="M113.566 60.8371L122.818 37.0454L120.396 34.623L105.305 57.5327L108.371 62.1588L113.566 60.8371Z" fill="white"/>
<path d="M246.075 138.161C258.119 138.161 267.884 128.397 267.884 116.352C267.884 104.307 258.119 94.543 246.075 94.543C234.03 94.543 224.266 104.307 224.266 116.352C224.266 128.397 234.03 138.161 246.075 138.161Z" fill="#3F3D56"/>
<path d="M231.039 116.351C231.039 108.061 237.784 101.316 246.074 101.316C254.364 101.316 261.109 108.061 261.109 116.351C261.109 124.642 254.364 131.386 246.074 131.386C237.784 131.386 231.039 124.642 231.039 116.351ZM231.37 116.351C231.37 124.459 237.966 131.056 246.074 131.056C254.182 131.056 260.779 124.459 260.779 116.351C260.779 108.243 254.182 101.647 246.074 101.647C237.966 101.647 231.37 108.243 231.37 116.351Z" fill="white"/>
<path d="M233.18 116.352C233.18 123.469 238.949 129.239 246.067 129.239C253.184 129.239 258.954 123.469 258.954 116.352C258.954 109.235 253.184 103.465 246.067 103.465C238.949 103.465 233.18 109.235 233.18 116.352ZM254.444 113.266L252.161 114.754L251.283 113.408L254.444 113.266ZM250.968 120.835L251.576 119.347L253.49 121.866L250.968 120.835ZM245.121 125.935L246.728 123.209V125.935H245.121ZM245.121 110.156L246.728 107.43V110.156H245.121ZM237.982 121.866L239.897 119.347L240.505 120.835L237.982 121.866ZM237.029 113.266L240.189 113.408L239.312 114.754L237.029 113.266Z" fill="#E6E6E6"/>
<path d="M63.0043 138.161C75.0491 138.161 84.8134 128.397 84.8134 116.352C84.8134 104.307 75.0491 94.543 63.0043 94.543C50.9595 94.543 41.1953 104.307 41.1953 116.352C41.1953 128.397 50.9595 138.161 63.0043 138.161Z" fill="#3F3D56"/>
<path d="M47.9688 116.351C47.9688 108.061 54.7134 101.316 63.0038 101.316C71.2941 101.316 78.0388 108.061 78.0388 116.351C78.0388 124.642 71.2941 131.386 63.0038 131.386C54.7134 131.386 47.9688 124.642 47.9688 116.351ZM48.2992 116.351C48.2992 124.459 54.8956 131.056 63.0038 131.056C71.112 131.056 77.7083 124.459 77.7083 116.351C77.7083 108.243 71.112 101.647 63.0038 101.647C54.8956 101.647 48.2992 108.243 48.2992 116.351Z" fill="white"/>
<path d="M50.125 116.352C50.125 123.469 55.8948 129.239 63.0121 129.239C70.1295 129.239 75.8993 123.469 75.8993 116.352C75.8993 109.235 70.1295 103.465 63.0121 103.465C55.8948 103.465 50.125 109.235 50.125 116.352ZM71.3892 113.266L69.1059 114.754L68.2286 113.408L71.3892 113.266ZM67.9131 120.835L68.5212 119.347L70.4358 121.866L67.9131 120.835ZM62.0664 125.935L63.673 123.209V125.935H62.0664ZM62.0664 110.156L63.673 107.43V110.156H62.0664ZM54.9276 121.866L56.8423 119.347L57.4503 120.835L54.9276 121.866ZM53.9742 113.266L57.1348 113.408L56.2575 114.754L53.9742 113.266Z" fill="#E6E6E6"/>
<path d="M154.045 69.9238H166.602V67.2803H154.045V69.9238Z" fill="#3F3D56"/>
<path d="M331.035 121.818C330.918 121.46 330.031 121.618 329.946 121.297C329.861 120.978 330.712 120.711 331.365 119.811C331.483 119.649 332.224 118.627 331.94 118.197C331.401 117.382 327.648 119.411 326.747 118.272C326.55 118.023 326.468 117.593 325.879 116.795C325.645 116.477 325.495 116.324 325.315 116.328C325.061 116.335 324.969 116.653 324.569 117.231C323.968 118.097 323.752 117.988 323.356 118.698C323.062 119.224 323.027 119.561 322.816 119.581C322.516 119.609 322.392 118.953 322.026 118.928C321.652 118.902 321.278 119.55 321.093 120.056C320.745 121.006 320.96 121.732 321.008 122.456C321.06 123.242 320.938 124.394 320.083 125.871L312.023 138.713C313.754 136.095 318.668 128.956 320.648 126.338C321.219 125.582 321.833 124.823 322.778 124.68C323.689 124.543 324.796 124.993 326.341 124.967C326.522 124.964 327.024 124.949 327.146 124.682C327.247 124.462 326.997 124.271 327.088 124.064C327.21 123.786 327.761 123.905 328.511 123.721C329.04 123.591 329.4 123.376 329.709 123.192C329.802 123.136 331.191 122.295 331.035 121.818Z" fill="#F2F2F2"/>
<path d="M309.919 124.817C309.709 124.772 309.531 125.252 309.349 125.202C309.168 125.151 309.282 124.656 309.029 124.076C308.983 123.972 308.696 123.313 308.403 123.328C307.847 123.358 307.761 125.785 306.942 125.899C306.762 125.924 306.528 125.84 305.966 125.898C305.742 125.922 305.624 125.951 305.574 126.041C305.504 126.168 305.634 126.304 305.802 126.667C306.054 127.212 305.938 127.287 306.172 127.686C306.346 127.982 306.501 128.096 306.449 128.206C306.377 128.361 306.019 128.233 305.901 128.405C305.78 128.581 305.99 128.952 306.185 129.189C306.551 129.634 306.97 129.737 307.339 129.923C307.74 130.124 308.27 130.516 308.748 131.362L312.726 139.023C311.94 137.418 309.854 132.947 309.14 131.22C308.934 130.721 308.739 130.201 308.941 129.696C309.136 129.209 309.677 128.796 310.11 128.029C310.161 127.94 310.298 127.689 310.203 127.552C310.124 127.439 309.958 127.507 309.882 127.403C309.781 127.263 309.999 127.027 310.125 126.605C310.214 126.308 310.212 126.069 310.211 125.864C310.21 125.803 310.198 124.879 309.919 124.817Z" fill="#F2F2F2"/>
<path d="M313.883 126.687L314.008 125.533L314.085 125.461C314.439 125.125 314.661 124.77 314.744 124.405C314.758 124.346 314.768 124.288 314.778 124.228C314.82 123.99 314.871 123.695 315.1 123.389C315.227 123.218 315.565 122.832 315.913 122.967C316.007 123.002 316.071 123.063 316.115 123.128C316.126 123.117 316.137 123.106 316.15 123.094C316.3 122.947 316.405 122.894 316.507 122.842C316.585 122.802 316.665 122.762 316.801 122.653C316.861 122.605 316.909 122.562 316.949 122.526C317.071 122.417 317.228 122.289 317.442 122.34C317.669 122.402 317.747 122.618 317.798 122.762C317.891 123.017 317.919 123.193 317.938 123.31C317.945 123.352 317.952 123.4 317.958 123.416C318.008 123.541 318.632 123.574 318.866 123.587C319.394 123.616 319.851 123.64 319.96 124.002C320.039 124.26 319.875 124.542 319.458 124.862C319.329 124.961 319.199 125.03 319.086 125.081C319.155 125.147 319.211 125.236 319.214 125.358C319.222 125.646 318.926 125.867 318.335 126.017C318.189 126.054 317.991 126.104 317.733 126.091C317.611 126.085 317.505 126.066 317.414 126.049C317.4 126.101 317.375 126.155 317.331 126.206C317.199 126.356 316.987 126.394 316.699 126.31C316.381 126.221 316.129 126.1 315.907 125.994C315.714 125.902 315.547 125.823 315.407 125.802C315.146 125.765 314.903 125.926 314.612 126.14L313.883 126.687Z" fill="#F2F2F2"/>
<path d="M315.968 120.113L314.819 120.285L314.73 120.229C314.316 119.971 313.916 119.846 313.541 119.858C313.481 119.86 313.422 119.865 313.361 119.87C313.121 119.89 312.823 119.915 312.469 119.772C312.271 119.692 311.812 119.463 311.854 119.092C311.864 118.992 311.907 118.915 311.959 118.856C311.945 118.849 311.931 118.84 311.917 118.832C311.737 118.723 311.658 118.635 311.583 118.55C311.525 118.485 311.465 118.417 311.325 118.313C311.263 118.268 311.21 118.232 311.165 118.202C311.028 118.112 310.865 117.993 310.859 117.773C310.862 117.538 311.052 117.407 311.177 117.321C311.401 117.167 311.564 117.095 311.672 117.047C311.712 117.03 311.756 117.01 311.77 117C311.878 116.921 311.751 116.309 311.705 116.079C311.599 115.561 311.507 115.113 311.828 114.915C312.058 114.773 312.373 114.861 312.788 115.183C312.917 115.283 313.016 115.391 313.094 115.487C313.14 115.404 313.213 115.327 313.33 115.293C313.607 115.213 313.895 115.442 314.19 115.976C314.263 116.108 314.361 116.287 314.414 116.54C314.439 116.659 314.448 116.767 314.455 116.859C314.508 116.859 314.567 116.87 314.627 116.9C314.806 116.989 314.897 117.185 314.888 117.485C314.883 117.815 314.83 118.089 314.784 118.33C314.744 118.541 314.71 118.723 314.725 118.864C314.755 119.125 314.973 119.319 315.254 119.546L315.968 120.113Z" fill="#F2F2F2"/>
<path d="M316.117 116.664L316.242 115.51L316.319 115.437C316.674 115.102 316.896 114.747 316.979 114.381C316.992 114.323 317.002 114.264 317.013 114.204C317.054 113.967 317.106 113.672 317.334 113.366C317.462 113.195 317.799 112.809 318.148 112.944C318.242 112.979 318.305 113.04 318.349 113.105C318.36 113.093 318.372 113.082 318.384 113.07C318.534 112.924 318.64 112.87 318.741 112.819C318.819 112.779 318.899 112.738 319.036 112.629C319.095 112.582 319.143 112.539 319.183 112.502C319.306 112.393 319.462 112.265 319.676 112.316C319.903 112.378 319.981 112.595 320.033 112.738C320.125 112.994 320.153 113.17 320.172 113.286C320.179 113.329 320.187 113.377 320.193 113.392C320.242 113.518 320.866 113.55 321.101 113.564C321.628 113.592 322.085 113.617 322.195 113.978C322.274 114.237 322.109 114.519 321.693 114.838C321.563 114.938 321.433 115.006 321.32 115.058C321.39 115.123 321.445 115.213 321.448 115.335C321.456 115.623 321.16 115.844 320.57 115.993C320.423 116.031 320.226 116.08 319.967 116.068C319.846 116.062 319.739 116.043 319.648 116.026C319.635 116.077 319.61 116.131 319.565 116.182C319.434 116.333 319.221 116.371 318.933 116.286C318.615 116.198 318.364 116.077 318.142 115.971C317.948 115.879 317.781 115.8 317.641 115.778C317.38 115.742 317.137 115.903 316.846 116.117L316.117 116.664Z" fill="#F2F2F2"/>
<path d="M312.402 138.779L312.199 138.579L311.917 138.549C311.919 138.523 311.917 138.46 311.915 138.364C311.904 137.833 311.87 136.217 312.095 133.734C312.252 132.001 312.515 130.241 312.875 128.504C313.237 126.764 313.612 125.469 313.913 124.428C314.14 123.643 314.37 122.899 314.594 122.174C315.191 120.236 315.756 118.406 316.105 116.318C316.183 115.852 316.346 114.882 316.013 113.737C315.82 113.073 315.49 112.448 315.031 111.88L315.475 111.521C315.981 112.149 316.347 112.841 316.561 113.579C316.93 114.848 316.753 115.905 316.668 116.413C316.312 118.537 315.742 120.385 315.139 122.341C314.916 123.064 314.687 123.805 314.461 124.587C314.162 125.618 313.791 126.901 313.434 128.619C313.078 130.336 312.818 132.074 312.663 133.785C312.441 136.237 312.474 137.829 312.485 138.352C312.491 138.631 312.492 138.689 312.402 138.779Z" fill="#F2F2F2"/>
<path d="M313.812 112.537C313.789 112.532 313.766 112.526 313.743 112.519C313.274 112.388 312.899 112.006 312.626 111.385C312.498 111.093 312.468 110.785 312.408 110.172C312.398 110.077 312.357 109.599 312.408 108.965C312.441 108.55 312.486 108.384 312.599 108.253C312.724 108.108 312.892 108.024 313.071 107.983C313.076 107.928 313.094 107.874 313.129 107.823C313.276 107.612 313.521 107.699 313.654 107.744C313.722 107.768 313.805 107.799 313.899 107.815C314.047 107.84 314.135 107.814 314.269 107.775C314.397 107.738 314.556 107.692 314.776 107.696C315.209 107.702 315.53 107.897 315.636 107.961C316.193 108.296 316.386 108.83 316.609 109.449C316.653 109.573 316.8 110.021 316.834 110.599C316.859 111.015 316.804 111.186 316.741 111.307C316.614 111.558 316.418 111.674 315.932 111.919C315.425 112.175 315.17 112.303 314.961 112.369C314.476 112.521 314.171 112.617 313.812 112.537Z" fill="#F2F2F2"/>
<path d="M0 138.284C0 138.502 0.305749 138.677 0.686492 138.677H328.407C328.788 138.677 329.093 138.502 329.093 138.284C329.093 138.066 328.788 137.891 328.407 137.891H0.686492C0.305749 137.891 0 138.066 0 138.284Z" fill="#CCCCCC"/>
<path d="M166.524 135.801L171.112 135.8L173.295 118.104L166.523 118.104L166.524 135.801Z" fill="#FFB6B6"/>
<path d="M182.242 135.696C182.384 135.937 182.46 136.713 182.46 136.993C182.46 137.853 181.763 138.55 180.903 138.55L166.694 138.55C166.107 138.55 165.632 138.074 165.632 137.488V136.896C165.632 136.896 164.929 135.118 166.376 132.927C166.376 132.927 168.174 134.643 170.862 131.955L171.654 130.52L177.391 134.715L180.571 135.107C181.267 135.192 181.884 135.093 182.242 135.696Z" fill="#2F2E41"/>
<path d="M145.915 135.801L150.503 135.8L152.686 118.104L145.914 118.104L145.915 135.801Z" fill="#FFB6B6"/>
<path d="M161.632 135.696C161.775 135.937 161.85 136.713 161.85 136.993C161.85 137.853 161.153 138.55 160.293 138.55L146.085 138.55C145.498 138.55 145.022 138.074 145.022 137.488V136.896C145.022 136.896 144.319 135.118 145.766 132.927C145.766 132.927 147.565 134.643 150.253 131.955L151.045 130.52L156.782 134.715L159.962 135.107C160.657 135.192 161.274 135.093 161.632 135.696Z" fill="#2F2E41"/>
<path d="M165.798 14.9603L166.669 23.0896L156.508 22.2186L158.25 14.6699L165.798 14.9603Z" fill="#FFB6B6"/>
<path opacity="0.1" d="M165.798 14.9603L166.669 23.0896L156.508 22.2186L158.25 14.6699L165.798 14.9603Z" fill="black"/>
<path d="M162.162 15.9764C165.85 15.9764 168.84 12.9867 168.84 9.29876C168.84 5.61079 165.85 2.62109 162.162 2.62109C158.474 2.62109 155.484 5.61079 155.484 9.29876C155.484 12.9867 158.474 15.9764 162.162 15.9764Z" fill="#FFB6B6"/>
<path d="M166.521 19.7506L177.698 26.2831L174.036 43.9934L176.537 67.8008L174.795 126.158L164.053 124.997L162.601 75.3495L154.181 126.739H143.75L145.471 71.2848L150.697 47.7678L147.504 22.2184L157.23 19.1699L166.521 19.7506Z" fill="#2F2E41"/>
<path d="M166.953 11.1865C166.953 11.1865 167.534 9.15416 168.84 9.29933C170.147 9.4445 170.437 8.28316 170.147 7.7025C169.857 7.12183 169.276 4.21849 169.276 4.21849C169.276 4.21849 169.566 2.18616 167.824 1.89583C166.082 1.60549 165.502 1.31516 165.211 0.734493C164.921 0.153824 160.566 -0.426841 159.114 0.444158C157.663 1.31516 156.501 2.98629 155.485 3.45723C154.469 3.92816 153.598 4.79916 154.179 6.25083C154.759 7.7025 155.601 10.5416 155.601 10.5416C155.601 10.5416 157.082 10.0252 157.372 10.8962C157.663 11.7672 156.501 10.6058 157.953 8.28317C159.405 5.9605 159.405 3.63783 161.727 4.50883C164.05 5.37983 166.663 5.0895 166.373 6.8315C166.082 8.5735 166.953 11.1865 166.953 11.1865Z" fill="#2F2E41"/>
<path d="M171.932 62.5929C170.535 64.0726 170.165 65.9931 171.107 66.8823C172.049 67.7715 173.945 67.2927 175.343 65.8123C175.909 65.2285 176.328 64.5177 176.563 63.7391L182.405 57.3948L179.37 54.7168L173.933 61.2555C173.169 61.5351 172.483 61.9937 171.932 62.5929Z" fill="#FFB6B6"/>
<path d="M177.578 26.1387L187.416 42.8996L188.873 50.5514L179.4 62.5755L175.392 57.4744L180.128 50.5514L172.477 37.0697L177.578 26.1387Z" fill="#2F2E41"/>
<path d="M149.922 61.033V41.271C149.922 38.2589 152.372 35.8086 155.384 35.8086H185.593C188.605 35.8086 191.055 38.2589 191.055 41.271V61.033C191.055 64.0451 188.605 66.4954 185.593 66.4954H155.384C152.372 66.4954 149.922 64.0451 149.922 61.033Z" fill="#6C63FF"/>
<path d="M164.616 48.2812H175.062V45.6696H164.616V48.2812Z" fill="#3F3D56"/>
<path d="M174.203 66.319V61.0957H165.715V66.319H174.203Z" fill="#3F3D56"/>
<path d="M174.602 41.2057V35.9824H166.114V41.2057H174.602Z" fill="#3F3D56"/>
<path d="M152.973 58.8175C154.371 60.2972 154.74 62.2177 153.798 63.1069C152.856 63.9961 150.96 63.5173 149.562 62.0369C148.996 61.4532 148.577 60.7423 148.342 59.9637L142.5 53.6194L145.536 50.9414L150.973 57.4801C151.737 57.7597 152.423 58.2183 152.973 58.8175Z" fill="#FFB6B6"/>
<path d="M147.327 22.3633L137.489 39.1242L136.031 46.776L145.505 58.8001L149.513 53.699L144.776 46.776L152.428 33.2943L147.327 22.3633Z" fill="#2F2E41"/>
<path d="M25 102.287C29.9274 102.287 33.9219 98.8099 33.9219 94.5212C33.9219 90.2325 29.9274 86.7559 25 86.7559C20.0726 86.7559 16.0781 90.2325 16.0781 94.5212C16.0781 98.8099 20.0726 102.287 25 102.287Z" fill="#E6E6E6"/>
</g>
<defs>
<clipPath id="clip0_1267_881">
<rect width="332" height="139.022" fill="white"/>
</clipPath>
</defs>
</svg>
