<svg width="83" height="83" viewBox="0 0 83 83" fill="none" xmlns="http://www.w3.org/2000/svg">
<path d="M30.2887 34.1184C32.4403 26.529 26.1147 17.2408 32.0087 10.5833C36.7043 5.27948 47.6061 5.63262 52.8413 9.39465C55.8545 11.561 57.872 14.9257 61.0716 17.0953C64.505 19.4202 69.0943 19.0572 71.998 22.7931C75.9219 27.8238 73.7163 37.1807 68.3831 41.1929C64.3333 44.2355 60.9474 44.0965 56.6376 45.4863C50.3725 47.5071 47.6912 49.9006 42.1846 53.043C34.4644 57.4574 24.0595 60.294 15.4531 55.2175C10.7412 52.4381 6.22546 45.0808 13.3473 41.4152C19.3443 38.3268 27.0613 45.4977 30.2887 34.1184Z" fill="#749F09"/>
<path opacity="0.9" d="M30.2887 34.1184C32.4403 26.529 26.1147 17.2408 32.0087 10.5833C36.7043 5.27948 47.6061 5.63262 52.8413 9.39465C55.8545 11.561 57.872 14.9257 61.0716 17.0953C64.505 19.4202 69.0943 19.0572 71.998 22.7931C75.9219 27.8238 73.7163 37.1807 68.3831 41.1929C64.3333 44.2355 60.9474 44.0965 56.6376 45.4863C50.3725 47.5071 47.6912 49.9006 42.1846 53.043C34.4644 57.4574 24.0595 60.294 15.4531 55.2175C10.7412 52.4381 6.22546 45.0808 13.3473 41.4152C19.3443 38.3268 27.0613 45.4977 30.2887 34.1184Z" fill="white"/>
<path d="M41.5208 70.2201C59.0283 70.2201 73.2209 69.3915 73.2209 68.3693C73.2209 67.3472 59.0283 66.5186 41.5208 66.5186C24.0133 66.5186 9.82068 67.3472 9.82068 68.3693C9.82068 69.3915 24.0133 70.2201 41.5208 70.2201Z" fill="#DCD5D5"/>
<path d="M29.0184 25.9846C30.4679 24.531 32.1903 23.3783 34.0868 22.5927C35.9833 21.807 38.0163 21.404 40.0691 21.4068H42.2812C42.2812 21.4068 52.7171 24.1388 52.7171 35.3186C52.7171 46.2466 45.4922 55.919 42.2828 59.1333H40.0723L29.0184 48.0794C26.0901 45.1486 24.4453 41.175 24.4453 37.032C24.4453 32.889 26.0901 28.9155 29.0184 25.9846ZM40.0707 44.2961C41.5059 44.2961 42.9088 43.8705 44.102 43.0731C45.2953 42.2758 46.2253 41.1425 46.7745 39.8165C47.3236 38.4906 47.4672 37.0316 47.1871 35.624C46.907 34.2165 46.2158 32.9236 45.2008 31.9089C44.1859 30.8942 42.8929 30.2033 41.4853 29.9235C40.0776 29.6437 38.6187 29.7876 37.2928 30.337C35.967 30.8865 34.8339 31.8167 34.0368 33.0102C33.2397 34.2036 32.8145 35.6067 32.8148 37.0418C32.8187 38.9637 33.5849 40.8054 34.9452 42.163C36.3055 43.5206 38.1489 44.283 40.0707 44.283V44.2961Z" fill="#263238"/>
<path d="M53.6196 25.6887C52.9725 25.0423 52.2725 24.4511 51.5268 23.9214L51.62 23.7873C52.374 24.3227 53.0817 24.9204 53.7356 25.5743L53.6196 25.6887ZM50.5491 23.2821C50.1649 23.0499 49.766 22.8308 49.3654 22.6281L49.4374 22.481C49.8428 22.6821 50.245 22.9028 50.6341 23.1349L50.5491 23.2821Z" fill="#749F09"/>
<path opacity="0.2" d="M53.6196 25.6887C52.9725 25.0423 52.2725 24.4511 51.5268 23.9214L51.62 23.7873C52.374 24.3227 53.0817 24.9204 53.7356 25.5743L53.6196 25.6887ZM50.5491 23.2821C50.1649 23.0499 49.766 22.8308 49.3654 22.6281L49.4374 22.481C49.8428 22.6821 50.245 22.9028 50.6341 23.1349L50.5491 23.2821Z" fill="black"/>
<path d="M31.2289 25.9847C34.1776 23.1458 38.1224 21.5769 42.2155 21.6154C46.3085 21.6539 50.2231 23.2967 53.1179 26.1906C56.0127 29.0845 57.6566 32.9986 57.6963 37.0917C57.736 41.1847 56.1683 45.13 53.3302 48.0795L42.2828 59.1285L31.2289 48.0746C28.3013 45.1444 26.6569 41.1717 26.6569 37.0297C26.6569 32.8876 28.3013 28.9149 31.2289 25.9847ZM42.2812 44.2962C43.7164 44.2962 45.1193 43.8706 46.3126 43.0732C47.5058 42.2759 48.4358 41.1426 48.985 39.8166C49.5341 38.4907 49.6777 37.0317 49.3976 35.6241C49.1175 34.2166 48.4263 32.9237 47.4113 31.909C46.3964 30.8943 45.1034 30.2034 43.6958 29.9236C42.2881 29.6438 40.8292 29.7877 39.5034 30.3372C38.1775 30.8866 37.0444 31.8169 36.2473 33.0103C35.4502 34.2037 35.025 35.6068 35.0253 37.0419C35.0292 38.9638 35.7954 40.8056 37.1557 42.1631C38.516 43.5207 40.3594 44.2831 42.2812 44.2831V44.2962Z" fill="#749F09"/>
<path opacity="0.2" d="M31.2289 25.9847C34.1776 23.1458 38.1224 21.5769 42.2155 21.6154C46.3085 21.6539 50.2231 23.2967 53.1179 26.1906C56.0127 29.0845 57.6566 32.9986 57.6963 37.0917C57.736 41.1847 56.1683 45.13 53.3302 48.0795L42.2828 59.1285L31.2289 48.0746C28.3013 45.1444 26.6569 41.1717 26.6569 37.0297C26.6569 32.8876 28.3013 28.9149 31.2289 25.9847ZM42.2812 44.2962C43.7164 44.2962 45.1193 43.8706 46.3126 43.0732C47.5058 42.2759 48.4358 41.1426 48.985 39.8166C49.5341 38.4907 49.6777 37.0317 49.3976 35.6241C49.1175 34.2166 48.4263 32.9237 47.4113 31.909C46.3964 30.8943 45.1034 30.2034 43.6958 29.9236C42.2881 29.6438 40.8292 29.7877 39.5034 30.3372C38.1775 30.8866 37.0444 31.8169 36.2473 33.0103C35.4502 34.2037 35.025 35.6068 35.0253 37.0419C35.0292 38.9638 35.7954 40.8056 37.1557 42.1631C38.516 43.5207 40.3594 44.2831 42.2812 44.2831V44.2962Z" fill="black"/>
<g style="mix-blend-mode:color-dodge" opacity="0.4">
<path d="M42.2828 58.2439C42.2773 58.2438 42.2718 58.2426 42.2668 58.2404C42.2617 58.2382 42.2571 58.2349 42.2534 58.2308L31.6622 47.6412C29.5633 45.5415 28.1341 42.8666 27.5554 39.9547C26.9767 37.0428 27.2743 34.0247 28.4107 31.2819C29.5471 28.5392 31.4713 26.195 33.9399 24.5457C36.4085 22.8964 39.3107 22.0161 42.2795 22.0161C45.2484 22.0161 48.1506 22.8964 50.6192 24.5457C53.0878 26.195 55.0119 28.5392 56.1484 31.2819C57.2848 34.0247 57.5824 37.0428 57.0037 39.9547C56.4249 42.8666 54.9958 45.5415 52.8969 47.6412L42.3106 58.2259C42.3077 58.2309 42.3036 58.235 42.2988 58.2381C42.294 58.2413 42.2885 58.2432 42.2828 58.2439ZM42.2828 22.0967C39.3301 22.0972 36.4439 22.9732 33.9891 24.6139C31.5342 26.2547 29.6209 28.5864 28.4912 31.3144C27.3614 34.0424 27.0659 37.0441 27.6419 39.94C28.218 42.836 29.6398 45.4961 31.7276 47.584L42.2894 58.1442L52.8462 47.5889C54.9338 45.4998 56.3551 42.8387 56.9305 39.942C57.5059 37.0453 57.2096 34.043 56.0791 31.3146C54.9485 28.5862 53.0344 26.2543 50.5787 24.6136C48.1231 22.9729 45.2361 22.097 42.2828 22.0967ZM42.2828 44.9861C40.7102 44.9861 39.173 44.5197 37.8654 43.646C36.5579 42.7723 35.5388 41.5305 34.9371 40.0776C34.3354 38.6246 34.178 37.0259 34.4849 35.4836C34.7918 33.9412 35.5492 32.5245 36.6613 31.4127C37.7734 30.3008 39.1903 29.5437 40.7327 29.2371C42.2751 28.9305 43.8738 29.0882 45.3266 29.6902C46.7794 30.2922 48.021 31.3116 48.8944 32.6193C49.7679 33.927 50.2339 35.4644 50.2336 37.0369C50.2288 39.1435 49.3891 41.1623 47.8984 42.6508C46.4078 44.1394 44.3878 44.9762 42.2812 44.9779L42.2828 44.9861ZM42.2828 29.1679C40.7265 29.1679 39.2051 29.6294 37.911 30.4941C36.617 31.3587 35.6084 32.5877 35.0128 34.0256C34.4172 35.4635 34.2614 37.0457 34.565 38.5721C34.8686 40.0986 35.6181 41.5007 36.7186 42.6012C37.8191 43.7017 39.2212 44.4511 40.7476 44.7548C42.2741 45.0584 43.8563 44.9026 45.2942 44.307C46.732 43.7114 47.961 42.7028 48.8257 41.4087C49.6903 40.1147 50.1518 38.5933 50.1518 37.0369C50.1518 34.9489 49.3228 32.9463 47.847 31.4692C46.3711 29.9921 44.3692 29.1615 42.2812 29.1597L42.2828 29.1679Z" fill="#FAFAFA"/>
</g>
</svg>
