<svg width="244" height="243" viewBox="0 0 244 243" fill="none" xmlns="http://www.w3.org/2000/svg">
<g clip-path="url(#clip0_1655_27904)">
<path d="M115.745 159.641C153.68 159.641 184.432 128.889 184.432 90.9549C184.432 53.0204 153.68 22.2685 115.745 22.2685C77.8108 22.2685 47.0588 53.0204 47.0588 90.9549C47.0588 128.889 77.8108 159.641 115.745 159.641Z" fill="#D7E3F4"/>
<path d="M134.053 207.26C187.142 207.26 230.179 204.313 230.179 200.679C230.179 197.045 187.142 194.099 134.053 194.099C80.9639 194.099 37.9269 197.045 37.9269 200.679C37.9269 204.313 80.9639 207.26 134.053 207.26Z" fill="#D7E3F4"/>
<path d="M204.902 78.6105C212.219 78.6105 218.15 72.679 218.15 65.3621C218.15 58.0453 212.219 52.1138 204.902 52.1138C197.585 52.1138 191.654 58.0453 191.654 65.3621C191.654 72.679 197.585 78.6105 204.902 78.6105Z" fill="#D7E3F4"/>
<path d="M76.6562 58.4172C81.0886 60.9784 82.5709 67.3256 83.5234 72.6424C84.3788 77.4101 85.3605 82.4451 88.6119 86.0317C92.9373 90.8043 100.115 91.7131 106.526 91.0764C121.655 89.5844 135.21 81.4779 148.302 73.7408C161.395 66.0037 175.246 58.2374 190.434 57.5473C196.373 57.2751 203.128 58.5873 206.321 63.6028C208.105 66.4022 208.43 69.9354 207.91 73.2159C207.39 76.4964 206.088 79.5922 204.8 82.6492" stroke="#1A004D" stroke-width="1.17563" stroke-miterlimit="10" stroke-linecap="round" stroke-linejoin="round" stroke-dasharray="1.76 5.88"/>
<path d="M73.8229 57.4015L63.5488 52.6873L67.4417 49.8199L72.0684 53.3482L73.8229 57.4015Z" fill="#1A004D"/>
<path d="M73.8228 47.2101V57.4015L69.0989 52.663L48.196 44.1774L73.8228 47.2101Z" fill="#C14040"/>
<path d="M77.254 42.8506L73.8228 47.2101L48.196 44.1774L77.254 42.8506Z" fill="#DB5353"/>
<path d="M69.0989 52.663L64.2924 59.7343L48.196 44.1774L69.0989 52.663Z" fill="#DB5353"/>
<path d="M187.785 56.1282V193.326C187.785 197.603 184.315 201.073 180.038 201.073H105.666C101.389 201.073 97.9187 197.603 97.9187 193.326V56.1233C97.9187 51.8465 101.389 48.3765 105.666 48.3765H125.368C127.122 48.3765 128.542 49.8004 128.542 51.55H157.157C157.157 49.7956 158.581 48.3765 160.331 48.3765H180.028C184.31 48.3765 187.785 51.8465 187.785 56.1282Z" fill="#1A004D"/>
<path d="M105.665 198.823C102.633 198.823 100.169 196.359 100.169 193.326V56.1233C100.169 53.0907 102.633 50.6266 105.665 50.6266H125.368C125.878 50.6266 126.291 51.0397 126.291 51.55V53.8002H159.403V51.55C159.403 51.0397 159.816 50.6266 160.326 50.6266H180.023C183.061 50.6266 185.53 53.0955 185.53 56.133V193.331C185.53 196.363 183.066 198.827 180.033 198.827H105.665V198.823Z" fill="#749F09"/>
<path d="M103.357 67.4471H109.223" stroke="white" stroke-width="0.375192" stroke-miterlimit="10" stroke-linecap="round" stroke-linejoin="round"/>
<path d="M103.357 69.639H107.138" stroke="white" stroke-width="0.375192" stroke-miterlimit="10" stroke-linecap="round" stroke-linejoin="round"/>
<path d="M223.759 92.1456V153.177C223.759 155.841 221.975 157.989 219.783 157.989H117.548C115.361 157.989 113.573 155.841 113.573 153.177V92.1456C113.573 89.5018 115.361 87.3536 117.548 87.3536H219.783C221.975 87.3536 223.759 89.5018 223.759 92.1456Z" fill="white"/>
<path d="M219.783 158.149H117.548C115.269 158.149 113.412 155.919 113.412 153.177V92.1456C113.412 89.4143 115.269 87.1933 117.548 87.1933H219.783C222.063 87.1933 223.919 89.4143 223.919 92.1456V153.177C223.919 155.919 222.063 158.149 219.783 158.149ZM117.548 87.514C115.444 87.514 113.733 89.5893 113.733 92.1456V153.177C113.733 155.744 115.444 157.829 117.548 157.829H219.783C221.888 157.829 223.598 155.744 223.598 153.177V92.1456C223.598 89.5941 221.888 87.514 219.783 87.514H117.548Z" fill="#D7E3F4"/>
<path d="M223.793 92.1359V100.894H113.602V92.1359C113.602 89.4872 115.386 87.339 117.592 87.339H219.817C222.014 87.339 223.793 89.4872 223.793 92.1359Z" fill="#1A004D"/>
<path d="M223.958 101.054H113.442V92.1359C113.442 89.3997 115.303 87.1787 117.592 87.1787H219.817C222.101 87.1787 223.958 89.4046 223.958 92.1359V101.054ZM113.762 100.733H223.637V92.1359C223.637 89.5795 221.922 87.4994 219.817 87.4994H117.587C115.478 87.4994 113.762 89.5795 113.762 92.1359V100.733Z" fill="#1A004D"/>
<path d="M204.902 95.4018C205.487 95.4018 205.961 94.9274 205.961 94.3423C205.961 93.7571 205.487 93.2828 204.902 93.2828C204.317 93.2828 203.842 93.7571 203.842 94.3423C203.842 94.9274 204.317 95.4018 204.902 95.4018Z" fill="white"/>
<path d="M209.519 95.4018C210.104 95.4018 210.578 94.9274 210.578 94.3423C210.578 93.7571 210.104 93.2828 209.519 93.2828C208.934 93.2828 208.459 93.7571 208.459 94.3423C208.459 94.9274 208.934 95.4018 209.519 95.4018Z" fill="white"/>
<path d="M214.141 95.4018C214.726 95.4018 215.2 94.9274 215.2 94.3423C215.2 93.7571 214.726 93.2828 214.141 93.2828C213.556 93.2828 213.081 93.7571 213.081 94.3423C213.081 94.9274 213.556 95.4018 214.141 95.4018Z" fill="white"/>
<path d="M73.0064 152.939C73.0064 152.939 70.0807 165.473 69.8182 166.606C69.3517 168.627 67.6847 173.303 67.6847 173.303C67.6847 173.303 74.7657 177.283 76.7875 176.039C78.3135 175.096 78.2114 169.799 78.3475 167.835C78.4787 165.964 83.7567 147.943 83.7567 147.943L73.0064 152.939Z" fill="#EFC0C1"/>
<path d="M84.1552 139.19C84.1552 139.19 77.3901 136.09 74.3914 145.12C71.942 152.487 70.3528 160.744 70.3528 160.744L81.9828 164.219L84.1552 139.19Z" fill="#DB5353"/>
<path d="M78.7557 144.813C78.7703 144.75 85.2438 149.537 88.5875 147.739C92.32 145.717 92.6456 137.314 92.6456 137.314L90.5558 129.31L90.5267 129.179L90.4246 128.698L89.6907 129.125L86.7796 130.821L85.6132 131.507L82.6292 133.247C82.6292 133.247 82.9499 135.356 82.8624 137.13C82.8479 137.319 82.843 137.494 82.8236 137.664C82.7847 137.961 82.6972 138.248 82.5903 138.5C82.3473 139.098 81.9828 139.516 81.9828 139.521C81.4822 141.338 78.78 144.809 78.7557 144.813Z" fill="#EFC0C1"/>
<path d="M82.5903 138.486C89.7491 139.006 90.5753 130.437 90.5559 129.31L90.5267 129.179L90.4246 128.698L89.6908 129.125C88.9326 129.854 87.8294 130.739 86.7796 130.821L85.6133 131.507L82.6292 133.247C82.6292 133.247 82.95 135.356 82.8625 137.13C82.8479 137.319 82.843 137.494 82.8236 137.664C82.7799 137.946 82.6924 138.233 82.5903 138.486Z" fill="#E5E6E7"/>
<path d="M77.8712 129.043C79.0473 133.101 80.9378 137.135 84.889 136.289C87.6495 135.701 90.1184 131.677 90.512 128.095C90.7162 126.248 90.9154 124.635 90.8377 123.434C90.7793 122.482 90.6967 121.889 90.6967 121.889L89.89 119.862L89.4185 118.676C89.4185 118.676 88.4806 118.001 87.4308 117.243C86.1235 116.29 84.2864 117.884 84.2475 117.816C84.1892 117.709 78.5467 117.252 76.9089 119.6C76.904 119.605 76.8992 119.609 76.8992 119.614C76.7485 119.828 76.6367 120.042 76.5736 120.261C76.5201 120.44 76.4958 120.62 76.5055 120.8C76.5298 121.145 76.5687 121.66 76.6319 122.316C76.661 122.589 76.6902 122.89 76.7291 123.206C76.7923 123.74 76.87 124.319 76.9672 124.936C77.1713 126.209 77.4629 127.643 77.8712 129.043Z" fill="#EFC0C1"/>
<path d="M91.0224 123.381C91.0224 123.381 92.8303 113.685 85.064 114.356C85.064 114.356 78.989 112.057 75.3343 115.396C72.0781 118.365 73.886 121.981 76.5153 122.598C78.2357 123.007 85.7299 120.139 86.9643 120.766C88.1987 121.393 90.4781 128.6 90.4781 128.6C90.4781 128.6 90.4586 125.262 91.0224 123.381Z" fill="#1A004D"/>
<path d="M83.7815 118.085C85.4922 117.856 86.6863 116.228 86.4486 114.448C86.2109 112.668 84.6314 111.411 82.9207 111.639C81.21 111.868 80.0159 113.496 80.2536 115.276C80.4914 117.055 82.0708 118.313 83.7815 118.085Z" fill="#1A004D"/>
<path d="M79.3124 120.569C81.5339 120.272 83.0845 118.158 82.7757 115.846C82.467 113.534 80.4158 111.9 78.1943 112.197C75.9728 112.493 74.4222 114.608 74.731 116.92C75.0397 119.232 77.0909 120.866 79.3124 120.569Z" fill="#1A004D"/>
<path d="M75.1203 122.385C76.831 122.157 78.0251 120.529 77.7873 118.749C77.5496 116.969 75.9702 115.712 74.2595 115.94C72.5488 116.168 71.3547 117.797 71.5924 119.576C71.8301 121.356 73.4096 122.614 75.1203 122.385Z" fill="#1A004D"/>
<path d="M85.6741 122.413C86.9139 122.248 87.7795 121.07 87.6076 119.782C87.4356 118.494 86.2911 117.585 85.0513 117.75C83.8116 117.916 82.9459 119.094 83.1179 120.382C83.2899 121.669 84.4343 122.579 85.6741 122.413Z" fill="#1A004D"/>
<path d="M88.5999 118.273C89.8397 118.107 90.7053 116.929 90.5333 115.641C90.3614 114.353 89.2169 113.444 87.9771 113.609C86.7373 113.775 85.8717 114.953 86.0437 116.241C86.2157 117.528 87.3601 118.438 88.5999 118.273Z" fill="#1A004D"/>
<path d="M89.9124 121.067C91.1522 120.902 92.0178 119.723 91.8458 118.436C91.6739 117.148 90.5294 116.238 89.2896 116.404C88.0498 116.57 87.1842 117.748 87.3562 119.035C87.5282 120.323 88.6726 121.233 89.9124 121.067Z" fill="#1A004D"/>
<path d="M90.0252 123.374C91.0734 123.234 91.805 122.236 91.6594 121.146C91.5137 120.055 90.5458 119.284 89.4976 119.424C88.4494 119.564 87.7177 120.562 87.8634 121.652C88.0091 122.743 88.9769 123.514 90.0252 123.374Z" fill="#1A004D"/>
<path d="M81.397 123.847C82.6368 123.681 83.5024 122.503 83.3305 121.216C83.1585 119.928 82.014 119.018 80.7742 119.184C79.5345 119.349 78.6688 120.527 78.8408 121.815C79.0128 123.103 80.1572 124.012 81.397 123.847Z" fill="#1A004D"/>
<path d="M86.0719 116.154C87.3037 115.989 88.1634 114.816 87.9922 113.534C87.8209 112.251 86.6835 111.345 85.4517 111.51C84.2199 111.674 83.3601 112.847 83.5314 114.13C83.7027 115.412 84.8401 116.318 86.0719 116.154Z" fill="#1A004D"/>
<path d="M89.7635 124.29C89.7635 124.29 92.0332 122.452 92.2033 124.912C92.3734 127.371 90.1621 128.673 90.1621 128.673L89.7635 124.29Z" fill="#EFC0C1"/>
<path d="M90.4391 125.019C90.4391 125.019 92.2859 124.246 90.6335 127.079L90.4391 125.019Z" fill="#EDAA98"/>
<path d="M80.3088 128.924C80.5115 128.853 80.5765 128.512 80.454 128.163C80.3316 127.813 80.068 127.587 79.8653 127.658C79.6627 127.729 79.5977 128.07 79.7201 128.42C79.8426 128.769 80.1061 128.995 80.3088 128.924Z" fill="#1A004D"/>
<path d="M84.8093 127.918C85.0119 127.847 85.077 127.506 84.9545 127.156C84.8321 126.806 84.5685 126.581 84.3658 126.652C84.1632 126.723 84.0982 127.064 84.2206 127.413C84.3431 127.763 84.6066 127.989 84.8093 127.918Z" fill="#1A004D"/>
<path d="M80.5782 126.399C80.5782 126.399 79.3534 125.704 78.4543 126.326L80.5782 126.399Z" fill="#1A004D"/>
<path d="M85.7201 124.863C85.6277 124.863 84.1648 124.79 83.4213 125.816L85.7201 124.863Z" fill="#1A004D"/>
<path d="M82.3861 128.562C82.3861 128.562 82.7846 129.606 82.3472 129.981C81.9098 130.35 81.8466 131.478 83.1005 130.909" stroke="#EDAA98" stroke-width="0.12636" stroke-miterlimit="10" stroke-linecap="round" stroke-linejoin="round"/>
<path d="M81.8904 133.14C81.8904 133.14 81.9584 133.237 82.0994 133.353C82.3472 133.567 82.8235 133.854 83.5088 133.728C84.1843 133.606 84.5877 133.14 84.7918 132.824C84.9036 132.644 84.957 132.513 84.957 132.513" fill="white"/>
<path d="M75.5627 146.164C76.0584 153.27 77.3852 160.152 77.915 167.145C78.7849 174.62 79.3049 181.341 79.3195 181.409C79.2855 181.195 82.2063 183.159 89.1075 184.281C95.6783 185.355 106.652 186.352 109.554 185.001C109.656 184.957 108.577 167.578 108.484 167.155C105.811 141.319 106.054 139.482 102.628 137.786C101.019 136.833 99.8141 136.896 97.9527 136.556V136.551C96.6697 136.284 93.0053 135.915 92.2811 135.91C90.5315 138.466 87.2607 142.879 84.6606 143.375C83.3582 143.151 83.1152 138.393 82.8236 137.645C78.3135 138.675 74.9358 141.266 75.5627 146.164Z" fill="#DB5353"/>
<path d="M110.856 160.152C110.856 160.152 113.053 172.457 111.702 175.378C110.516 177.939 110.54 177.434 101.209 177.278C97.1167 177.21 90.8522 177.269 90.8522 177.269L90.6238 172.068L101.107 168.647L100.101 162.62L110.856 160.152Z" fill="#EFC0C1"/>
<path d="M91.5959 172.151C91.5959 172.151 89.6664 171.33 88.3931 170.571C87.1198 169.813 85.7007 169.084 84.7433 169.254C83.7858 169.424 77.8955 171.422 78.7995 172.729C78.7995 172.729 77.5553 173.638 78.2309 174.435C78.2309 174.435 77.9198 174.897 78.3572 175.446C78.7946 175.995 81.1857 173.964 82.323 173.915C83.4602 173.862 85.1612 173.978 85.1612 173.978C85.1612 173.978 82.7555 174.882 82.2452 175.043C81.7349 175.203 80.3498 176.078 80.5005 176.496C80.6511 176.914 82.6875 175.752 83.7129 175.587C84.7384 175.422 85.8611 175.12 86.4151 175.645C86.9691 176.17 87.7905 177.293 88.9909 177.307C90.1913 177.322 91.2314 177.123 91.2314 177.123L91.5959 172.151Z" fill="#EFC0C1"/>
<path d="M78.7994 172.724C78.7994 172.724 78.8723 172.661 79.0036 172.545C79.1396 172.438 79.3292 172.277 79.577 172.112C79.8249 171.947 80.1116 171.752 80.4373 171.573C80.7629 171.393 81.1274 171.223 81.5016 171.077C81.8807 170.941 82.2695 170.839 82.6388 170.78C83.0082 170.717 83.3581 170.698 83.6594 170.688C83.9608 170.678 84.2086 170.712 84.3787 170.732C84.5488 170.756 84.646 170.78 84.646 170.78C84.646 170.78 84.5488 170.776 84.3739 170.785C84.2038 170.79 83.9559 170.814 83.6643 170.844C83.3727 170.873 83.0374 170.936 82.6826 171.019C82.3278 171.101 81.9536 171.203 81.5939 171.339C81.2294 171.471 80.8747 171.631 80.5442 171.791C80.2137 171.952 79.9075 172.107 79.6548 172.248C79.3972 172.394 79.1785 172.506 79.0327 172.593C78.8821 172.676 78.7994 172.724 78.7994 172.724Z" fill="#E7926A"/>
<path d="M78.2308 174.43C78.2308 174.43 78.3135 174.362 78.4641 174.246C78.6148 174.134 78.8286 173.969 79.0959 173.789C79.3632 173.609 79.6791 173.4 80.029 173.196C80.379 172.992 80.7629 172.788 81.1663 172.618C81.5745 172.447 82.0119 172.345 82.4153 172.297C82.8235 172.248 83.2026 172.243 83.5282 172.248C83.8539 172.253 84.1212 172.282 84.3107 172.302C84.5002 172.331 84.6023 172.345 84.6023 172.345C84.6023 172.345 84.4954 172.35 84.3058 172.355C84.1163 172.36 83.849 172.379 83.5331 172.404C83.2123 172.423 82.843 172.472 82.4542 172.535C82.0605 172.603 81.6571 172.7 81.2732 172.87C80.8844 173.031 80.5053 173.225 80.1457 173.405C79.7909 173.59 79.4556 173.76 79.1785 173.915C78.9112 174.061 78.6585 174.197 78.4933 174.284C78.3232 174.377 78.2308 174.43 78.2308 174.43Z" fill="#E7926A"/>
<path d="M101.112 168.642H104.878" stroke="#313131" stroke-width="0.113238" stroke-miterlimit="10"/>
<path d="M102.137 137.485C102.137 137.485 107.333 139.385 108.441 144.026C109.549 148.667 111.677 161.138 111.677 161.138L99.9502 162.966C99.9502 162.966 97.6028 151.661 97.0293 145.747C96.4558 139.832 102.137 137.485 102.137 137.485Z" fill="#DB5353"/>
<path d="M100.227 163.612C100.227 163.612 97.6028 151.661 97.0244 145.747" stroke="#313131" stroke-width="0.113238" stroke-miterlimit="10"/>
<path d="M75.8591 148.531C76.2431 151.982 76.9283 155.962 77.4581 162.956" stroke="#313131" stroke-width="0.113238" stroke-miterlimit="10"/>
<path d="M97.0876 182.503C97.0876 182.503 68.7635 174.309 62.4455 174.075C56.1275 173.842 50.9759 177.196 55.1118 184.218C59.2476 191.241 80.4664 201.602 80.4664 201.602L86.4782 197.248L81.0933 191.474L97.0876 182.503Z" fill="#1A004D"/>
<path d="M91.3626 199.085L84.8161 194.225L80.4664 201.355L87.1975 206.53L90.7016 206.433L91.3626 199.085Z" fill="#EFC0C1"/>
<path d="M95.2019 200.587C95.2019 200.587 98.0985 202.156 98.1082 202.613C98.1422 203.882 97.7583 204.528 97.593 205.928C97.4375 207.274 97.2771 208.387 96.2517 210.394C95.5664 211.736 93.6224 215.813 92.3588 215.201C92.2519 215.152 91.1292 214.861 91.1049 214.652C90.8571 212.362 95.2019 200.587 95.2019 200.587Z" fill="#DB5353"/>
<path d="M91.3188 214.797C92.9712 214.253 98.8177 204.324 96.2954 201.53C94.8909 199.965 91.0903 198.531 91.0903 198.531C91.0903 198.531 90.2884 201.403 87.9994 205.058C87.2655 206.229 86.6677 206.054 86.6629 206.181C86.6386 206.662 87.1197 208.066 87.1683 208.241C87.2752 208.645 89.6615 215.327 91.3188 214.797Z" fill="#1A004D"/>
<path d="M88.0675 209.442C88.1841 209.563 88.3737 209.568 88.4952 209.456L90.9495 207.138C91.071 207.021 91.0758 206.832 90.9641 206.71C90.8474 206.589 90.6579 206.584 90.5364 206.696L88.0821 209.014C87.9557 209.126 87.9509 209.32 88.0675 209.442Z" fill="white"/>
<path d="M88.5778 210.545C88.6944 210.666 88.8839 210.671 89.0054 210.559L91.4597 208.241C91.5812 208.125 91.5861 207.935 91.4743 207.813C91.3577 207.692 91.1681 207.687 91.0466 207.799L88.5923 210.117C88.466 210.229 88.4611 210.423 88.5778 210.545Z" fill="white"/>
<path d="M89.161 211.76C89.2776 211.881 89.4672 211.886 89.5887 211.774L92.043 209.456C92.1645 209.34 92.1693 209.15 92.0576 209.028C91.9409 208.907 91.7514 208.902 91.6299 209.014L89.1756 211.332C89.0492 211.444 89.0444 211.638 89.161 211.76Z" fill="white"/>
<path d="M87.5815 208.397C87.6982 208.518 87.8877 208.523 88.0092 208.411L90.4635 206.093C90.585 205.976 90.5899 205.787 90.4781 205.665C90.3615 205.544 90.1719 205.539 90.0504 205.651L87.5961 207.969C87.4698 208.081 87.4649 208.275 87.5815 208.397Z" fill="white"/>
<path d="M81.0934 191.479L66.4259 177.278" stroke="black" stroke-width="0.225504" stroke-miterlimit="10" stroke-linecap="round" stroke-linejoin="round"/>
<path d="M62.256 200.864L69.094 196.422L72.9917 203.809L65.9496 208.552L62.4601 208.241L62.256 200.864Z" fill="#EFC0C1"/>
<path d="M58.3339 202.122C58.3339 202.122 55.345 203.512 55.3061 203.96C55.1944 205.223 55.5346 205.894 55.6123 207.303C55.6852 208.654 55.7727 209.777 56.6718 211.847C57.2696 213.228 58.9609 217.417 60.2585 216.887C60.3654 216.843 61.5075 216.625 61.5464 216.421C61.9352 214.146 58.3339 202.122 58.3339 202.122Z" fill="#DB5353"/>
<path d="M61.3229 216.547C59.7094 215.901 55.0486 206.098 57.1822 202.997C57.9598 201.865 62.0665 200.562 62.5622 200.329C62.5622 200.329 63.1843 203.25 65.2401 207.036C65.901 208.251 66.5036 208.11 66.5036 208.241C66.4988 208.722 65.9302 210.093 65.8718 210.268C65.7406 210.661 62.9413 217.179 61.3229 216.547Z" fill="#1A004D"/>
<path d="M64.8998 211.405C64.7783 211.522 64.5839 211.512 64.4722 211.39L62.1637 208.922C62.047 208.8 62.0567 208.606 62.1782 208.494C62.2997 208.377 62.4941 208.387 62.6059 208.508L64.9144 210.977C65.0311 211.099 65.0262 211.293 64.8998 211.405Z" fill="white"/>
<path d="M64.3264 212.479C64.2049 212.596 64.0105 212.586 63.8987 212.465L61.5902 209.996C61.4735 209.874 61.4833 209.68 61.6048 209.568C61.7263 209.451 61.9207 209.461 62.0324 209.583L64.3409 212.051C64.4527 212.168 64.4479 212.362 64.3264 212.479Z" fill="white"/>
<path d="M63.6655 213.655C63.544 213.772 63.3496 213.762 63.2378 213.641L60.9293 211.172C60.8126 211.05 60.8224 210.856 60.9439 210.744C61.0654 210.627 61.2598 210.637 61.3716 210.759L63.6801 213.228C63.7967 213.344 63.787 213.539 63.6655 213.655Z" fill="white"/>
<path d="M65.4539 210.394C65.3324 210.511 65.138 210.501 65.0262 210.38L62.7177 207.911C62.6011 207.789 62.6108 207.595 62.7323 207.483C62.8538 207.366 63.0482 207.376 63.16 207.498L65.4685 209.966C65.5803 210.088 65.5754 210.278 65.4539 210.394Z" fill="white"/>
<path d="M91.0953 198.312C91.0953 198.312 92.9713 200.125 93.1073 200.232C94.8326 201.534 96.8836 202.395 99.0317 202.662C101.987 203.026 105.005 202.37 107.697 201.165C109.685 200.276 111.663 199.182 113.169 197.583C117.004 193.52 116.061 186.284 113.529 181.793C111.575 178.323 107.979 175.806 103.926 177.278C93.7634 180.977 67.0043 196.422 67.0043 196.422L72.8363 206.526C72.8411 206.53 91.0856 198.317 91.0953 198.312Z" fill="#1A004D"/>
<path d="M93.9967 181.764C82.1626 187.669 67.0043 196.422 67.0043 196.422" stroke="black" stroke-width="0.225504" stroke-miterlimit="10" stroke-linecap="round" stroke-linejoin="round"/>
<path d="M91.0952 198.312L105.515 192.412" stroke="black" stroke-width="0.225504" stroke-miterlimit="10" stroke-linecap="round" stroke-linejoin="round"/>
<path d="M55.0437 179.601H83.3435L75.5724 157.017H47.2726L55.0437 179.601Z" fill="#383334"/>
<path d="M54.0329 179.601H82.3327L74.5664 157.017H46.2666L54.0329 179.601Z" fill="#536EC1"/>
<path d="M63.8324 170.634C64.8226 170.413 65.36 169.045 65.0327 167.578C64.7053 166.111 63.6372 165.101 62.647 165.322C61.6568 165.543 61.1194 166.911 61.4467 168.378C61.774 169.845 62.8421 170.855 63.8324 170.634Z" fill="#231F20"/>
<path d="M54.0368 179.604H95.1184V177.315H54.0368V179.604Z" fill="#536EC1"/>
<path d="M202.457 137.961H134.908C131.424 137.961 128.605 135.137 128.605 131.657C128.605 128.173 131.428 125.354 134.908 125.354H202.457C205.942 125.354 208.761 128.178 208.761 131.657C208.761 135.137 205.937 137.961 202.457 137.961Z" fill="#516CDD"/>
<path d="M148.92 117.139V117.881H150.117V118.571H148.92V119.376H150.273V120.092H148.026V116.423H150.273V117.139H148.92ZM152.63 117.144C152.972 117.144 153.243 117.256 153.446 117.479C153.651 117.698 153.754 118.002 153.754 118.388V120.092H152.865V118.508C152.865 118.313 152.815 118.162 152.714 118.054C152.613 117.946 152.477 117.892 152.306 117.892C152.136 117.892 152 117.946 151.899 118.054C151.798 118.162 151.747 118.313 151.747 118.508V120.092H150.853V117.176H151.747V117.563C151.838 117.434 151.96 117.333 152.113 117.259C152.266 117.183 152.439 117.144 152.63 117.144ZM156 119.334V120.092H155.545C155.221 120.092 154.969 120.013 154.788 119.857C154.607 119.696 154.516 119.437 154.516 119.078V117.918H154.161V117.176H154.516V116.465H155.41V117.176H155.995V117.918H155.41V119.089C155.41 119.176 155.431 119.238 155.472 119.277C155.514 119.315 155.584 119.334 155.681 119.334H156ZM159.247 118.587C159.247 118.67 159.242 118.758 159.231 118.848H157.209C157.223 119.029 157.28 119.169 157.381 119.266C157.486 119.36 157.613 119.407 157.763 119.407C157.986 119.407 158.141 119.313 158.228 119.125H159.179C159.13 119.317 159.041 119.489 158.912 119.642C158.787 119.796 158.628 119.916 158.437 120.003C158.245 120.09 158.031 120.134 157.794 120.134C157.508 120.134 157.254 120.073 157.031 119.951C156.808 119.829 156.634 119.655 156.508 119.428C156.383 119.202 156.32 118.937 156.32 118.634C156.32 118.331 156.381 118.066 156.503 117.84C156.629 117.613 156.803 117.439 157.026 117.317C157.249 117.195 157.505 117.134 157.794 117.134C158.076 117.134 158.327 117.193 158.547 117.312C158.766 117.43 158.937 117.599 159.059 117.819C159.184 118.038 159.247 118.294 159.247 118.587ZM158.332 118.352C158.332 118.198 158.28 118.076 158.175 117.986C158.071 117.895 157.94 117.85 157.784 117.85C157.634 117.85 157.507 117.894 157.402 117.981C157.301 118.068 157.238 118.191 157.214 118.352H158.332ZM160.612 117.662C160.716 117.502 160.847 117.376 161.004 117.286C161.161 117.191 161.335 117.144 161.526 117.144V118.09H161.281C161.058 118.09 160.891 118.139 160.779 118.237C160.668 118.331 160.612 118.498 160.612 118.738V120.092H159.718V117.176H160.612V117.662ZM166.207 116.423L164.937 118.879V120.092H164.043V118.879L162.774 116.423H163.787L164.498 117.96L165.204 116.423H166.207ZM167.894 120.134C167.609 120.134 167.351 120.073 167.121 119.951C166.895 119.829 166.715 119.655 166.583 119.428C166.454 119.202 166.389 118.937 166.389 118.634C166.389 118.334 166.456 118.071 166.588 117.845C166.72 117.615 166.902 117.439 167.131 117.317C167.361 117.195 167.619 117.134 167.905 117.134C168.191 117.134 168.448 117.195 168.678 117.317C168.908 117.439 169.089 117.615 169.222 117.845C169.354 118.071 169.42 118.334 169.42 118.634C169.42 118.933 169.353 119.198 169.217 119.428C169.084 119.655 168.901 119.829 168.668 119.951C168.438 120.073 168.18 120.134 167.894 120.134ZM167.894 119.36C168.065 119.36 168.21 119.298 168.328 119.172C168.45 119.047 168.511 118.867 168.511 118.634C168.511 118.4 168.452 118.221 168.333 118.096C168.218 117.97 168.076 117.907 167.905 117.907C167.731 117.907 167.586 117.97 167.471 118.096C167.356 118.218 167.299 118.397 167.299 118.634C167.299 118.867 167.354 119.047 167.466 119.172C167.581 119.298 167.724 119.36 167.894 119.36ZM172.774 117.176V120.092H171.88V119.695C171.79 119.824 171.666 119.928 171.509 120.008C171.356 120.085 171.185 120.123 170.997 120.123C170.774 120.123 170.577 120.074 170.407 119.977C170.236 119.876 170.104 119.731 170.01 119.543C169.915 119.355 169.868 119.134 169.868 118.879V117.176H170.757V118.759C170.757 118.954 170.807 119.106 170.908 119.214C171.009 119.322 171.145 119.376 171.316 119.376C171.49 119.376 171.628 119.322 171.729 119.214C171.83 119.106 171.88 118.954 171.88 118.759V117.176H172.774ZM174.31 117.662C174.414 117.502 174.545 117.376 174.702 117.286C174.858 117.191 175.033 117.144 175.224 117.144V118.09H174.979C174.756 118.09 174.588 118.139 174.477 118.237C174.365 118.331 174.31 118.498 174.31 118.738V120.092H173.416V117.176H174.31V117.662ZM180.041 120.092H179.147L177.652 117.829V120.092H176.759V116.423H177.652L179.147 118.697V116.423H180.041V120.092ZM180.511 118.629C180.511 118.329 180.566 118.066 180.678 117.84C180.793 117.613 180.948 117.439 181.143 117.317C181.338 117.195 181.556 117.134 181.796 117.134C182.002 117.134 182.181 117.176 182.335 117.259C182.491 117.343 182.612 117.453 182.695 117.589V117.176H183.589V120.092H182.695V119.679C182.608 119.815 182.486 119.925 182.329 120.008C182.176 120.092 181.997 120.134 181.791 120.134C181.554 120.134 181.338 120.073 181.143 119.951C180.948 119.825 180.793 119.649 180.678 119.423C180.566 119.193 180.511 118.928 180.511 118.629ZM182.695 118.634C182.695 118.411 182.632 118.235 182.507 118.106C182.385 117.977 182.235 117.913 182.058 117.913C181.88 117.913 181.728 117.977 181.603 118.106C181.481 118.231 181.42 118.406 181.42 118.629C181.42 118.852 181.481 119.029 181.603 119.162C181.728 119.291 181.88 119.355 182.058 119.355C182.235 119.355 182.385 119.291 182.507 119.162C182.632 119.033 182.695 118.857 182.695 118.634ZM187.956 117.144C188.319 117.144 188.606 117.254 188.818 117.474C189.034 117.693 189.142 117.998 189.142 118.388V120.092H188.254V118.508C188.254 118.32 188.204 118.176 188.103 118.075C188.005 117.97 187.869 117.918 187.695 117.918C187.521 117.918 187.383 117.97 187.282 118.075C187.184 118.176 187.136 118.32 187.136 118.508V120.092H186.247V118.508C186.247 118.32 186.197 118.176 186.096 118.075C185.998 117.97 185.862 117.918 185.688 117.918C185.514 117.918 185.376 117.97 185.275 118.075C185.178 118.176 185.129 118.32 185.129 118.508V120.092H184.235V117.176H185.129V117.542C185.22 117.42 185.338 117.324 185.484 117.254C185.631 117.181 185.796 117.144 185.981 117.144C186.2 117.144 186.395 117.191 186.566 117.286C186.74 117.38 186.876 117.514 186.974 117.688C187.075 117.528 187.212 117.397 187.387 117.296C187.561 117.195 187.751 117.144 187.956 117.144ZM192.516 118.587C192.516 118.67 192.511 118.758 192.501 118.848H190.478C190.492 119.029 190.55 119.169 190.651 119.266C190.755 119.36 190.882 119.407 191.032 119.407C191.255 119.407 191.41 119.313 191.497 119.125H192.448C192.4 119.317 192.311 119.489 192.182 119.642C192.056 119.796 191.898 119.916 191.706 120.003C191.515 120.09 191.3 120.134 191.064 120.134C190.778 120.134 190.524 120.073 190.301 119.951C190.078 119.829 189.903 119.655 189.778 119.428C189.653 119.202 189.59 118.937 189.59 118.634C189.59 118.331 189.651 118.066 189.773 117.84C189.898 117.613 190.072 117.439 190.295 117.317C190.518 117.195 190.774 117.134 191.064 117.134C191.346 117.134 191.597 117.193 191.816 117.312C192.036 117.43 192.206 117.599 192.328 117.819C192.454 118.038 192.516 118.294 192.516 118.587ZM191.602 118.352C191.602 118.198 191.55 118.076 191.445 117.986C191.34 117.895 191.21 117.85 191.053 117.85C190.903 117.85 190.776 117.894 190.672 117.981C190.571 118.068 190.508 118.191 190.483 118.352H191.602Z" fill="#1A004D"/>
<path d="M135.584 148.434H202.642" stroke="white" stroke-width="0.243" stroke-miterlimit="10"/>
<path d="M201.218 188.994C201.218 188.994 205.619 173.101 211.634 175.785C217.648 178.468 210.237 187.487 201.165 189.853" fill="#C63E3E"/>
<path d="M201.597 178.093C201.597 178.093 205.572 155.865 211.048 157.045C216.525 158.226 201.223 190.281 201.223 190.281L200.095 185.447L201.813 178.093" fill="#DB5353"/>
<path d="M199.663 190.981C199.663 190.981 190.692 160.569 196.279 159.359C205.461 157.372 201.54 179.817 200.791 190.765" fill="#C63E3E"/>
<path d="M200.469 189.585C200.469 189.585 195.746 168.431 189.41 169.021C183.074 169.612 200.147 189.906 200.147 189.906" fill="#DB5353"/>
<path d="M210.482 188.13C210.482 188.13 210.352 194.173 210.237 196.756C210.189 197.98 209.877 200.111 208.836 202.036H194.92C193.869 200.111 193.567 197.98 193.509 196.756C193.404 194.173 193.274 188.13 193.274 188.13H210.482Z" fill="#1A004D"/>
</g>
<defs>
<clipPath id="clip0_1655_27904">
<rect width="243" height="243" fill="white" transform="translate(0.5)"/>
</clipPath>
</defs>
</svg>
