<svg width="210" height="240" viewBox="0 0 210 240" fill="none" xmlns="http://www.w3.org/2000/svg">
<path d="M84.9552 166.421C122.421 166.421 152.794 136.049 152.794 98.5824C152.794 61.1163 122.421 30.744 84.9552 30.744C47.4891 30.744 17.1168 61.1163 17.1168 98.5824C17.1168 136.049 47.4891 166.421 84.9552 166.421Z" fill="#D7E3F4"/>
<path d="M101.587 213.446C154.021 213.446 196.526 210.537 196.526 206.947C196.526 203.358 154.021 200.448 101.587 200.448C49.1537 200.448 6.64801 203.358 6.64801 206.947C6.64801 210.537 49.1537 213.446 101.587 213.446Z" fill="#D7E3F4"/>
<path d="M145.694 83.04C155.906 83.04 164.184 74.7619 164.184 64.5504C164.184 54.3389 155.906 46.0608 145.694 46.0608C135.483 46.0608 127.205 54.3389 127.205 64.5504C127.205 74.7619 135.483 83.04 145.694 83.04Z" fill="#D7E3F4"/>
<path d="M165.648 117.984C168.381 117.984 170.597 115.768 170.597 113.035C170.597 110.302 168.381 108.086 165.648 108.086C162.915 108.086 160.699 110.302 160.699 113.035C160.699 115.768 162.915 117.984 165.648 117.984Z" fill="#D7E3F4"/>
<path d="M57.84 40.2432C83.7456 61.9056 115.666 76.296 149.05 81.3648C159.038 82.8816 169.565 83.7216 178.075 89.16C189.01 96.1392 194.496 110.645 190.92 123.115C187.344 135.586 175.003 144.979 162.034 145.104" stroke="#1A004D" stroke-width="1.1708" stroke-miterlimit="10" stroke-linecap="round" stroke-linejoin="round" stroke-dasharray="1.76 5.85"/>
<path d="M154.656 64.1856V199.69C154.656 203.914 151.229 207.341 147.005 207.341H73.5504C69.3264 207.341 65.8992 203.914 65.8992 199.69V64.176C65.8992 59.952 69.3264 56.5248 73.5504 56.5248H93.0096C94.7424 56.5248 96.144 57.9312 96.144 59.6592H124.406C124.406 57.9264 125.813 56.5248 127.541 56.5248H146.995C151.229 56.5248 154.656 59.9568 154.656 64.1856Z" fill="#1A004D"/>
<path d="M73.5504 205.118C70.5552 205.118 68.1216 202.685 68.1216 199.69V64.176C68.1216 61.1808 70.5552 58.7472 73.5504 58.7472H93.0096C93.5136 58.7472 93.9216 59.1552 93.9216 59.6592V61.8816H126.624V59.6592C126.624 59.1552 127.032 58.7472 127.536 58.7472H146.99C149.99 58.7472 152.429 61.1856 152.429 64.1856V199.69C152.429 202.685 149.995 205.118 147 205.118H73.5504Z" fill="#749F09"/>
<path d="M71.2752 75.3648H77.064" stroke="white" stroke-width="0.373648" stroke-miterlimit="10" stroke-linecap="round" stroke-linejoin="round"/>
<path d="M71.2752 77.5248H75.0096" stroke="white" stroke-width="0.373648" stroke-miterlimit="10" stroke-linecap="round" stroke-linejoin="round"/>
<path d="M138.163 102.067H82.536C78.3792 102.067 75.0096 98.6976 75.0096 94.5408C75.0096 90.384 78.3792 87.0144 82.536 87.0144H138.163C142.32 87.0144 145.69 90.384 145.69 94.5408C145.694 98.6976 142.325 102.067 138.163 102.067Z" fill="white"/>
<path d="M83.0076 95.4036H81.8381V96.6H80.7493V95.4036H79.5798V94.3752H80.7493V93.1721H81.8381V94.3752H83.0076V95.4036ZM83.5852 93.4007V92.332H85.447V97.2385H84.2506V93.4007H83.5852Z" fill="#1A004D"/>
<path d="M88.2816 96.9024H141.446" stroke="#1A004D" stroke-width="0.192148" stroke-miterlimit="10"/>
<path d="M86.2464 173.496C81.1728 173.496 77.0592 169.382 77.0592 164.309C77.0592 159.235 81.1728 155.122 86.2464 155.122C91.32 155.122 95.4336 159.235 95.4336 164.309C95.4288 169.382 91.32 173.496 86.2464 173.496Z" fill="#E8F0FE"/>
<path d="M85.4007 163.063V161.994H87.2625V166.901H86.0661V163.063H85.4007Z" fill="#516CDD"/>
<path d="M110.352 173.496C105.278 173.496 101.165 169.382 101.165 164.309C101.165 159.235 105.278 155.122 110.352 155.122C115.426 155.122 119.539 159.235 119.539 164.309C119.534 169.382 115.426 173.496 110.352 173.496Z" fill="#E8F0FE"/>
<path d="M108.715 165.98C108.867 165.859 108.937 165.803 108.923 165.812C109.362 165.449 109.707 165.151 109.958 164.918C110.214 164.685 110.429 164.441 110.603 164.186C110.778 163.93 110.866 163.681 110.866 163.439C110.866 163.256 110.823 163.112 110.738 163.009C110.653 162.906 110.525 162.855 110.355 162.855C110.184 162.855 110.05 162.92 109.951 163.05C109.857 163.175 109.81 163.354 109.81 163.587H108.701C108.71 163.206 108.791 162.888 108.943 162.633C109.1 162.377 109.304 162.189 109.555 162.068C109.81 161.947 110.093 161.887 110.402 161.887C110.935 161.887 111.336 162.024 111.605 162.297C111.878 162.57 112.015 162.926 112.015 163.366C112.015 163.845 111.851 164.291 111.524 164.703C111.197 165.111 110.78 165.51 110.274 165.899H112.089V166.834H108.715V165.98Z" fill="#516CDD"/>
<path d="M110.352 198.024C105.278 198.024 101.165 193.91 101.165 188.837C101.165 183.763 105.278 179.65 110.352 179.65C115.426 179.65 119.539 183.763 119.539 188.837C119.534 193.91 115.426 198.024 110.352 198.024Z" fill="#E8F0FE"/>
<path d="M108.755 188.91C108.755 188.14 108.903 187.532 109.199 187.089C109.499 186.645 109.981 186.423 110.644 186.423C111.307 186.423 111.786 186.645 112.082 187.089C112.382 187.532 112.532 188.14 112.532 188.91C112.532 189.69 112.382 190.302 112.082 190.745C111.786 191.189 111.307 191.411 110.644 191.411C109.981 191.411 109.499 191.189 109.199 190.745C108.903 190.302 108.755 189.69 108.755 188.91ZM111.403 188.91C111.403 188.458 111.354 188.111 111.255 187.869C111.157 187.622 110.953 187.499 110.644 187.499C110.335 187.499 110.131 187.622 110.032 187.869C109.934 188.111 109.884 188.458 109.884 188.91C109.884 189.215 109.902 189.468 109.938 189.67C109.974 189.867 110.046 190.028 110.153 190.154C110.265 190.275 110.429 190.335 110.644 190.335C110.859 190.335 111.02 190.275 111.128 190.154C111.24 190.028 111.314 189.867 111.35 189.67C111.385 189.468 111.403 189.215 111.403 188.91Z" fill="#516CDD"/>
<path d="M134.458 173.496C129.384 173.496 125.27 169.382 125.27 164.309C125.27 159.235 129.384 155.122 134.458 155.122C139.531 155.122 143.645 159.235 143.645 164.309C143.64 169.382 139.531 173.496 134.458 173.496Z" fill="#E8F0FE"/>
<path d="M132.902 163.379C132.919 162.9 133.076 162.53 133.372 162.27C133.668 162.01 134.069 161.88 134.575 161.88C134.911 161.88 135.198 161.938 135.435 162.055C135.677 162.171 135.859 162.33 135.98 162.532C136.105 162.734 136.168 162.96 136.168 163.211C136.168 163.507 136.094 163.749 135.946 163.937C135.798 164.121 135.626 164.246 135.429 164.313V164.34C135.684 164.425 135.886 164.566 136.034 164.764C136.182 164.961 136.255 165.214 136.255 165.523C136.255 165.801 136.19 166.047 136.061 166.262C135.935 166.473 135.749 166.639 135.503 166.76C135.261 166.881 134.972 166.941 134.636 166.941C134.098 166.941 133.668 166.809 133.345 166.545C133.027 166.28 132.859 165.882 132.841 165.348H133.957C133.961 165.545 134.017 165.702 134.125 165.819C134.232 165.931 134.389 165.987 134.595 165.987C134.77 165.987 134.904 165.938 134.999 165.839C135.097 165.736 135.146 165.601 135.146 165.436C135.146 165.221 135.077 165.066 134.938 164.972C134.804 164.873 134.586 164.824 134.286 164.824H134.071V163.89H134.286C134.515 163.89 134.698 163.852 134.837 163.776C134.981 163.695 135.052 163.554 135.052 163.352C135.052 163.191 135.008 163.065 134.918 162.976C134.828 162.886 134.705 162.841 134.548 162.841C134.378 162.841 134.25 162.893 134.165 162.996C134.084 163.099 134.037 163.227 134.024 163.379H132.902Z" fill="#516CDD"/>
<path d="M86.2464 150.768C81.1728 150.768 77.0592 146.654 77.0592 141.581C77.0592 136.507 81.1728 132.394 86.2464 132.394C91.32 132.394 95.4336 136.507 95.4336 141.581C95.4288 146.654 91.32 150.768 86.2464 150.768Z" fill="#E8F0FE"/>
<path d="M84.5031 143.302V142.374L86.627 139.336H87.9108V142.307H88.462V143.302H87.9108V144.175H86.7615V143.302H84.5031ZM86.8421 140.6L85.7129 142.307H86.8421V140.6Z" fill="#516CDD"/>
<path d="M110.352 150.768C105.278 150.768 101.165 146.654 101.165 141.581C101.165 136.507 105.278 132.394 110.352 132.394C115.426 132.394 119.539 136.507 119.539 141.581C119.534 146.654 115.426 150.768 110.352 150.768Z" fill="#E8F0FE"/>
<path d="M112.21 140.27H110.113V141.198C110.202 141.099 110.328 141.019 110.489 140.956C110.651 140.893 110.825 140.862 111.013 140.862C111.35 140.862 111.627 140.938 111.847 141.09C112.071 141.243 112.234 141.44 112.338 141.682C112.441 141.924 112.492 142.186 112.492 142.468C112.492 142.992 112.344 143.409 112.049 143.718C111.753 144.023 111.336 144.175 110.798 144.175C110.44 144.175 110.128 144.115 109.864 143.994C109.6 143.868 109.396 143.696 109.252 143.476C109.109 143.257 109.031 143.004 109.017 142.717H110.14C110.167 142.856 110.232 142.972 110.335 143.066C110.438 143.156 110.579 143.201 110.758 143.201C110.969 143.201 111.125 143.134 111.229 142.999C111.332 142.865 111.383 142.685 111.383 142.461C111.383 142.242 111.329 142.074 111.222 141.957C111.114 141.841 110.957 141.783 110.751 141.783C110.599 141.783 110.474 141.821 110.375 141.897C110.276 141.969 110.211 142.065 110.18 142.186H109.071V139.262H112.21V140.27Z" fill="#516CDD"/>
<path d="M134.458 150.768C129.384 150.768 125.27 146.654 125.27 141.581C125.27 136.507 129.384 132.394 134.458 132.394C139.531 132.394 143.645 136.507 143.645 141.581C143.64 146.654 139.531 150.768 134.458 150.768Z" fill="#E8F0FE"/>
<path d="M135.288 140.593C135.252 140.427 135.189 140.304 135.099 140.223C135.01 140.138 134.882 140.096 134.716 140.096C134.461 140.096 134.277 140.208 134.165 140.432C134.053 140.651 133.995 141.001 133.99 141.48C134.089 141.323 134.23 141.2 134.414 141.11C134.602 141.021 134.808 140.976 135.032 140.976C135.471 140.976 135.823 141.115 136.087 141.393C136.356 141.671 136.491 142.058 136.491 142.556C136.491 142.883 136.423 143.169 136.289 143.416C136.159 143.662 135.966 143.855 135.711 143.994C135.46 144.133 135.162 144.202 134.817 144.202C134.127 144.202 133.648 143.987 133.379 143.557C133.11 143.122 132.975 142.5 132.975 141.688C132.975 140.837 133.117 140.205 133.399 139.793C133.686 139.376 134.143 139.168 134.77 139.168C135.106 139.168 135.388 139.235 135.617 139.37C135.85 139.5 136.025 139.672 136.141 139.887C136.262 140.102 136.334 140.337 136.356 140.593H135.288ZM134.757 141.883C134.564 141.883 134.403 141.942 134.273 142.058C134.147 142.17 134.084 142.331 134.084 142.542C134.084 142.757 134.143 142.925 134.259 143.046C134.38 143.167 134.55 143.228 134.77 143.228C134.967 143.228 135.122 143.169 135.234 143.053C135.35 142.932 135.409 142.768 135.409 142.562C135.409 142.352 135.353 142.186 135.241 142.065C135.128 141.944 134.967 141.883 134.757 141.883Z" fill="#516CDD"/>
<path d="M86.2464 128.045C81.1728 128.045 77.0592 123.931 77.0592 118.858C77.0592 113.784 81.1728 109.67 86.2464 109.67C91.32 109.67 95.4336 113.784 95.4336 118.858C95.4288 123.931 91.32 128.045 86.2464 128.045Z" fill="#E8F0FE"/>
<path d="M88.6538 117.404L86.9667 121.45H85.7905L87.4977 117.532H85.4074V116.55H88.6538V117.404Z" fill="#516CDD"/>
<path d="M110.352 128.045C105.278 128.045 101.165 123.931 101.165 118.858C101.165 113.784 105.278 109.67 110.352 109.67C115.426 109.67 119.539 113.784 119.539 118.858C119.534 123.931 115.426 128.045 110.352 128.045Z" fill="#E8F0FE"/>
<path d="M109.562 118.815C109.14 118.591 108.93 118.24 108.93 117.76C108.93 117.518 108.993 117.299 109.118 117.102C109.244 116.9 109.434 116.741 109.689 116.624C109.945 116.503 110.258 116.443 110.63 116.443C111.002 116.443 111.314 116.503 111.565 116.624C111.82 116.741 112.01 116.9 112.136 117.102C112.261 117.299 112.324 117.518 112.324 117.76C112.324 118.002 112.266 118.213 112.149 118.392C112.037 118.571 111.885 118.712 111.692 118.815C111.934 118.932 112.12 119.093 112.25 119.299C112.38 119.501 112.445 119.739 112.445 120.012C112.445 120.33 112.364 120.606 112.203 120.839C112.042 121.067 111.822 121.242 111.544 121.363C111.271 121.484 110.966 121.544 110.63 121.544C110.294 121.544 109.987 121.484 109.71 121.363C109.436 121.242 109.219 121.067 109.058 120.839C108.896 120.606 108.816 120.33 108.816 120.012C108.816 119.734 108.881 119.494 109.011 119.293C109.14 119.087 109.324 118.927 109.562 118.815ZM111.208 117.935C111.208 117.751 111.155 117.61 111.047 117.512C110.944 117.408 110.805 117.357 110.63 117.357C110.456 117.357 110.314 117.408 110.207 117.512C110.104 117.615 110.052 117.758 110.052 117.942C110.052 118.116 110.106 118.255 110.214 118.358C110.321 118.457 110.46 118.506 110.63 118.506C110.801 118.506 110.94 118.455 111.047 118.352C111.155 118.249 111.208 118.11 111.208 117.935ZM110.63 119.313C110.42 119.313 110.249 119.371 110.12 119.488C109.99 119.6 109.925 119.756 109.925 119.958C109.925 120.146 109.987 120.301 110.113 120.422C110.243 120.543 110.415 120.603 110.63 120.603C110.845 120.603 111.013 120.543 111.134 120.422C111.26 120.301 111.323 120.146 111.323 119.958C111.323 119.761 111.258 119.604 111.128 119.488C111.002 119.371 110.836 119.313 110.63 119.313Z" fill="#516CDD"/>
<path d="M134.458 128.045C129.384 128.045 125.27 123.931 125.27 118.858C125.27 113.784 129.384 109.67 134.458 109.67C139.531 109.67 143.645 113.784 143.645 118.858C143.64 123.931 139.531 128.045 134.458 128.045Z" fill="#E8F0FE"/>
<path d="M134.098 120.012C134.165 120.366 134.371 120.543 134.716 120.543C134.954 120.543 135.122 120.438 135.22 120.227C135.319 120.016 135.368 119.674 135.368 119.199C135.27 119.337 135.135 119.445 134.965 119.521C134.795 119.597 134.604 119.635 134.394 119.635C134.107 119.635 133.851 119.577 133.627 119.461C133.403 119.34 133.226 119.163 133.096 118.93C132.971 118.692 132.908 118.405 132.908 118.069C132.908 117.738 132.975 117.449 133.11 117.202C133.249 116.956 133.444 116.765 133.695 116.631C133.95 116.497 134.25 116.429 134.595 116.429C135.258 116.429 135.722 116.635 135.987 117.048C136.251 117.46 136.383 118.067 136.383 118.869C136.383 119.452 136.329 119.933 136.222 120.314C136.119 120.691 135.942 120.977 135.691 121.175C135.444 121.372 135.106 121.47 134.676 121.47C134.335 121.47 134.044 121.403 133.802 121.269C133.565 121.134 133.381 120.957 133.251 120.738C133.126 120.518 133.054 120.276 133.036 120.012H134.098ZM134.656 118.728C134.844 118.728 134.994 118.672 135.106 118.56C135.218 118.444 135.274 118.287 135.274 118.09C135.274 117.874 135.216 117.709 135.099 117.592C134.983 117.476 134.826 117.417 134.629 117.417C134.432 117.417 134.275 117.478 134.158 117.599C134.046 117.715 133.99 117.877 133.99 118.083C133.99 118.275 134.046 118.432 134.158 118.553C134.275 118.67 134.441 118.728 134.656 118.728Z" fill="#516CDD"/>
<path d="M87.4571 75.9269V76.6659H88.649V77.3529H87.4571V78.1544H88.8051V78.8674H86.5672V75.2138H88.8051V75.9269H87.4571ZM91.1524 75.9321C91.4924 75.9321 91.763 76.0431 91.9643 76.2651C92.169 76.4837 92.2713 76.7856 92.2713 77.1707V78.8674H91.3866V77.2904C91.3866 77.0961 91.3363 76.9452 91.2357 76.8376C91.135 76.7301 90.9997 76.6763 90.8297 76.6763C90.6597 76.6763 90.5244 76.7301 90.4238 76.8376C90.3231 76.9452 90.2728 77.0961 90.2728 77.2904V78.8674H89.3829V75.9633H90.2728V76.3484C90.363 76.22 90.4845 76.1194 90.6371 76.0466C90.7898 75.9702 90.9616 75.9321 91.1524 75.9321ZM94.5084 78.1127V78.8674H94.0556C93.7329 78.8674 93.4814 78.7893 93.3009 78.6332C93.1205 78.4736 93.0303 78.2151 93.0303 77.8577V76.7023H92.6764V75.9633H93.0303V75.2555H93.9203V75.9633H94.5032V76.7023H93.9203V77.8681C93.9203 77.9549 93.9411 78.0173 93.9827 78.0555C94.0243 78.0936 94.0937 78.1127 94.1909 78.1127H94.5084ZM97.7416 77.3685C97.7416 77.4518 97.7364 77.5385 97.726 77.6287H95.7119C95.7258 77.8091 95.783 77.9479 95.8836 78.0451C95.9877 78.1387 96.1144 78.1856 96.2636 78.1856C96.4856 78.1856 96.64 78.0919 96.7268 77.9045H97.674C97.6254 78.0954 97.5369 78.2671 97.4085 78.4198C97.2836 78.5725 97.1258 78.6922 96.9349 78.7789C96.7441 78.8656 96.5307 78.909 96.2948 78.909C96.0103 78.909 95.757 78.8483 95.5349 78.7269C95.3129 78.6054 95.1394 78.4319 95.0145 78.2064C94.8896 77.9809 94.8271 77.7172 94.8271 77.4153C94.8271 77.1135 94.8879 76.8498 95.0093 76.6243C95.1342 76.3987 95.3077 76.2252 95.5297 76.1038C95.7518 75.9824 96.0068 75.9217 96.2948 75.9217C96.5758 75.9217 96.8256 75.9806 97.0442 76.0986C97.2628 76.2166 97.4328 76.3848 97.5543 76.6034C97.6792 76.822 97.7416 77.077 97.7416 77.3685ZM96.8309 77.1343C96.8309 76.9816 96.7788 76.8602 96.6747 76.77C96.5706 76.6798 96.4405 76.6347 96.2844 76.6347C96.1352 76.6347 96.0085 76.678 95.9045 76.7648C95.8038 76.8515 95.7414 76.9747 95.7171 77.1343H96.8309ZM99.1011 76.4473C99.2052 76.2877 99.3353 76.1628 99.4914 76.0726C99.6476 75.9789 99.821 75.9321 100.012 75.9321V76.8741H99.7673C99.5452 76.8741 99.3787 76.9226 99.2676 77.0198C99.1566 77.1135 99.1011 77.28 99.1011 77.5194V78.8674H98.2111V75.9633H99.1011V76.4473ZM104.673 75.2138L103.409 77.6599V78.8674H102.519V77.6599L101.254 75.2138H102.264L102.971 76.744L103.674 75.2138H104.673ZM106.354 78.909C106.069 78.909 105.812 78.8483 105.583 78.7269C105.358 78.6054 105.179 78.4319 105.047 78.2064C104.919 77.9809 104.855 77.7172 104.855 77.4153C104.855 77.1169 104.921 76.855 105.053 76.6295C105.184 76.4005 105.365 76.2252 105.594 76.1038C105.823 75.9824 106.08 75.9217 106.364 75.9217C106.649 75.9217 106.905 75.9824 107.134 76.1038C107.363 76.2252 107.544 76.4005 107.676 76.6295C107.808 76.855 107.873 77.1169 107.873 77.4153C107.873 77.7137 107.806 77.9774 107.67 78.2064C107.539 78.4319 107.356 78.6054 107.124 78.7269C106.895 78.8483 106.638 78.909 106.354 78.909ZM106.354 78.1387C106.524 78.1387 106.668 78.0763 106.786 77.9514C106.907 77.8265 106.968 77.6478 106.968 77.4153C106.968 77.1829 106.909 77.0042 106.791 76.8793C106.676 76.7544 106.534 76.6919 106.364 76.6919C106.191 76.6919 106.047 76.7544 105.932 76.8793C105.818 77.0007 105.76 77.1794 105.76 77.4153C105.76 77.6478 105.816 77.8265 105.927 77.9514C106.041 78.0763 106.184 78.1387 106.354 78.1387ZM111.213 75.9633V78.8674H110.323V78.4718C110.233 78.6002 110.11 78.7043 109.954 78.7841C109.801 78.8604 109.631 78.8986 109.444 78.8986C109.222 78.8986 109.026 78.85 108.856 78.7529C108.686 78.6523 108.554 78.5083 108.46 78.3209C108.366 78.1335 108.32 77.9132 108.32 77.6599V75.9633H109.204V77.5402C109.204 77.7345 109.255 77.8855 109.355 77.993C109.456 78.1006 109.591 78.1544 109.761 78.1544C109.935 78.1544 110.072 78.1006 110.172 77.993C110.273 77.8855 110.323 77.7345 110.323 77.5402V75.9633H111.213ZM112.742 76.4473C112.847 76.2877 112.977 76.1628 113.133 76.0726C113.289 75.9789 113.462 75.9321 113.653 75.9321V76.8741H113.409C113.187 76.8741 113.02 76.9226 112.909 77.0198C112.798 77.1135 112.742 77.28 112.742 77.5194V78.8674H111.852V75.9633H112.742V76.4473ZM118.45 78.8674H117.56L116.071 76.6138V78.8674H115.182V75.2138H116.071L117.56 77.4778V75.2138H118.45V78.8674ZM121.963 75.9633V78.8674H121.073V78.4718C120.982 78.6002 120.859 78.7043 120.703 78.7841C120.551 78.8604 120.381 78.8986 120.193 78.8986C119.971 78.8986 119.775 78.85 119.605 78.7529C119.435 78.6523 119.303 78.5083 119.21 78.3209C119.116 78.1335 119.069 77.9132 119.069 77.6599V75.9633H119.954V77.5402C119.954 77.7345 120.004 77.8855 120.105 77.993C120.205 78.1006 120.341 78.1544 120.511 78.1544C120.684 78.1544 120.821 78.1006 120.922 77.993C121.022 77.8855 121.073 77.7345 121.073 77.5402V75.9633H121.963ZM126.307 75.9321C126.668 75.9321 126.955 76.0414 127.166 76.2599C127.381 76.4785 127.489 76.7821 127.489 77.1707V78.8674H126.604V77.2904C126.604 77.1031 126.554 76.9591 126.453 76.8585C126.356 76.7544 126.221 76.7023 126.047 76.7023C125.874 76.7023 125.737 76.7544 125.636 76.8585C125.539 76.9591 125.49 77.1031 125.49 77.2904V78.8674H124.606V77.2904C124.606 77.1031 124.555 76.9591 124.455 76.8585C124.358 76.7544 124.222 76.7023 124.049 76.7023C123.875 76.7023 123.738 76.7544 123.638 76.8585C123.54 76.9591 123.492 77.1031 123.492 77.2904V78.8674H122.602V75.9633H123.492V76.3276C123.582 76.2062 123.7 76.1107 123.846 76.0414C123.992 75.9685 124.156 75.9321 124.34 75.9321C124.559 75.9321 124.753 75.9789 124.923 76.0726C125.097 76.1663 125.232 76.2998 125.329 76.4733C125.43 76.3137 125.567 76.1836 125.74 76.083C125.914 75.9824 126.103 75.9321 126.307 75.9321ZM129.001 76.3744C129.085 76.2391 129.204 76.1298 129.36 76.0466C129.517 75.9633 129.695 75.9217 129.896 75.9217C130.136 75.9217 130.353 75.9824 130.547 76.1038C130.741 76.2252 130.894 76.3987 131.005 76.6243C131.119 76.8498 131.177 77.1117 131.177 77.4101C131.177 77.7085 131.119 77.9722 131.005 78.2012C130.894 78.4267 130.741 78.6019 130.547 78.7269C130.353 78.8483 130.136 78.909 129.896 78.909C129.692 78.909 129.513 78.8691 129.36 78.7893C129.208 78.706 129.088 78.5967 129.001 78.4614V78.8674H128.111V75.0161H129.001V76.3744ZM130.271 77.4101C130.271 77.1881 130.209 77.0146 130.084 76.8897C129.962 76.7613 129.811 76.6971 129.631 76.6971C129.454 76.6971 129.303 76.7613 129.178 76.8897C129.057 77.0181 128.996 77.1933 128.996 77.4153C128.996 77.6374 129.057 77.8126 129.178 77.941C129.303 78.0694 129.454 78.1335 129.631 78.1335C129.808 78.1335 129.959 78.0694 130.084 77.941C130.209 77.8091 130.271 77.6322 130.271 77.4101ZM134.381 77.3685C134.381 77.4518 134.376 77.5385 134.366 77.6287H132.351C132.365 77.8091 132.423 77.9479 132.523 78.0451C132.627 78.1387 132.754 78.1856 132.903 78.1856C133.125 78.1856 133.28 78.0919 133.366 77.9045H134.314C134.265 78.0954 134.176 78.2671 134.048 78.4198C133.923 78.5725 133.765 78.6922 133.574 78.7789C133.384 78.8656 133.17 78.909 132.934 78.909C132.65 78.909 132.397 78.8483 132.174 78.7269C131.952 78.6054 131.779 78.4319 131.654 78.2064C131.529 77.9809 131.467 77.7172 131.467 77.4153C131.467 77.1135 131.527 76.8498 131.649 76.6243C131.774 76.3987 131.947 76.2252 132.169 76.1038C132.391 75.9824 132.646 75.9217 132.934 75.9217C133.215 75.9217 133.465 75.9806 133.684 76.0986C133.902 76.2166 134.072 76.3848 134.194 76.6034C134.319 76.822 134.381 77.077 134.381 77.3685ZM133.47 77.1343C133.47 76.9816 133.418 76.8602 133.314 76.77C133.21 76.6798 133.08 76.6347 132.924 76.6347C132.775 76.6347 132.648 76.678 132.544 76.7648C132.443 76.8515 132.381 76.9747 132.357 77.1343H133.47ZM135.741 76.4473C135.845 76.2877 135.975 76.1628 136.131 76.0726C136.287 75.9789 136.461 75.9321 136.651 75.9321V76.8741H136.407C136.185 76.8741 136.018 76.9226 135.907 77.0198C135.796 77.1135 135.741 77.28 135.741 77.5194V78.8674H134.851V75.9633H135.741V76.4473Z" fill="white"/>
<path d="M52.2816 192.245L52.4496 194.179L52.584 195.715L53.0832 199.435L54.5472 203.054L60.0672 202.958L60.5616 199.67L60.0912 195.811L59.7792 192.029L59.7312 191.424L52.2816 192.245Z" fill="#E9C09F"/>
<path d="M30.792 199.152L30.9552 201.451L36.4272 202.176L37.6608 199.229L37.8672 196.07L38.1552 191.746L33.7392 191.222L31.2096 190.92L31.1616 191.875L31.128 192.518L30.792 199.152Z" fill="#E9C09F"/>
<path d="M20.7216 204.6C20.7216 204.6 20.0976 206.486 23.1888 206.88C26.28 207.274 28.6368 207.341 30.2496 207.034C31.8576 206.726 32.688 206.808 34.3632 206.99C36.0432 207.178 37.7376 207.293 38.6016 206.458C39.312 205.776 38.7408 204.47 38.7408 204.47L29.4672 204.274L20.7216 204.6Z" fill="#DB6A6A"/>
<path d="M30.672 199.2C30.672 199.2 26.928 201.725 25.0944 202.57C23.2608 203.414 20.928 202.733 20.7216 204.6C20.5104 206.467 25.6272 206.184 28.6224 205.987C31.6176 205.79 33.744 204.677 35.2992 205.181C36.8544 205.685 38.6112 204.984 38.736 204.47C38.8608 203.957 38.1744 199.402 37.7904 198.955C37.7904 198.955 37.1568 200.563 34.2144 200.568C31.2672 200.568 30.672 199.2 30.672 199.2Z" fill="#1A004D"/>
<path d="M27.1488 202.901L27.1008 202.925C27.0144 202.973 26.904 202.944 26.856 202.853L26.3184 201.888C26.2704 201.802 26.2992 201.691 26.3856 201.638L26.4336 201.614C26.52 201.566 26.6304 201.595 26.6784 201.686L27.216 202.651C27.2688 202.742 27.2352 202.853 27.1488 202.901Z" fill="url(#paint0_linear_1655_27704)"/>
<path d="M27.9984 202.334L27.9504 202.358C27.864 202.406 27.7536 202.378 27.7056 202.286L27.168 201.322C27.12 201.235 27.1488 201.125 27.2352 201.072L27.2832 201.048C27.3696 201 27.48 201.029 27.528 201.12L28.0656 202.085C28.1184 202.171 28.0848 202.282 27.9984 202.334Z" fill="url(#paint1_linear_1655_27704)"/>
<path d="M28.9872 201.73L28.9392 201.754C28.8528 201.802 28.7424 201.773 28.6944 201.682L28.1568 200.717C28.1088 200.63 28.1376 200.52 28.224 200.467L28.272 200.443C28.3584 200.395 28.4688 200.424 28.5168 200.515L29.0544 201.48C29.1072 201.571 29.0736 201.682 28.9872 201.73Z" fill="url(#paint2_linear_1655_27704)"/>
<path d="M29.9664 201.134L29.9184 201.158C29.832 201.206 29.7216 201.178 29.6736 201.086L29.136 200.122C29.088 200.035 29.1168 199.925 29.2032 199.872L29.2512 199.848C29.3376 199.8 29.448 199.829 29.496 199.92L30.0336 200.885C30.0816 200.976 30.0528 201.086 29.9664 201.134Z" fill="url(#paint3_linear_1655_27704)"/>
<path d="M29.8128 194.117L39.0384 194.966L41.6784 157.018L45.4896 140.928C45.5232 141.24 46.92 154.814 47.5968 160.646C48.3024 166.709 49.2864 184.608 50.6784 195.312L61.2432 194.616C60.6528 182.563 58.8384 162.49 59.0976 158.05C60.408 135.893 60.0912 130.474 59.7648 122.909C59.5728 118.402 58.7952 115.963 58.7952 115.963C58.7952 115.963 35.4384 115.963 35.064 115.963C35.064 115.963 31.2144 142.416 30.4752 157.368C30.1152 164.611 29.8416 182.314 29.8176 193.094C29.8128 193.44 29.8128 193.781 29.8128 194.117Z" fill="#1A004D"/>
<path d="M29.8128 194.117L39.0384 194.966L41.6784 157.018L45.4896 140.928L43.9728 131.141C43.9728 131.141 39.7632 148.219 38.808 155.914C37.8528 163.608 38.3328 189.898 30.5424 192.787C30.264 192.888 30.024 192.994 29.8128 193.104C29.8128 193.44 29.8128 193.781 29.8128 194.117Z" fill="#E5E6E7"/>
<path d="M60.8544 203.16C60.8544 203.16 60.8976 205.747 60.5952 205.93C59.7504 206.443 59.1648 206.429 58.152 206.861C57.1776 207.274 55.392 207.581 53.64 207.653C52.4688 207.706 49.848 207.734 49.7808 206.635C49.776 206.544 49.6176 205.891 49.7472 205.795C51.2016 204.739 60.8544 203.16 60.8544 203.16Z" fill="#DB6A6A"/>
<path d="M49.728 205.997C50.7312 206.914 59.7024 207.077 60.6288 204.274C61.152 202.709 60.6624 199.43 60.6624 199.43C60.6624 199.43 58.416 200.122 55.0608 199.963C53.9856 199.915 53.0448 199.387 53.0448 199.488C53.0448 199.872 52.6848 200.525 52.584 200.63C52.3488 200.856 48.7344 205.07 49.728 205.997Z" fill="#1A004D"/>
<path d="M52.1136 201.701C52.0752 201.826 52.1472 201.96 52.272 201.998L54.7872 202.781C54.912 202.819 55.0464 202.747 55.0848 202.622C55.1232 202.498 55.0512 202.363 54.9264 202.325L52.4112 201.542C52.2864 201.504 52.152 201.576 52.1136 201.701Z" fill="url(#paint4_linear_1655_27704)"/>
<path d="M51.5616 202.478C51.5232 202.603 51.5952 202.738 51.72 202.776L54.2352 203.558C54.36 203.597 54.4944 203.525 54.5328 203.4C54.5712 203.275 54.4992 203.141 54.3744 203.102L51.8592 202.32C51.7296 202.282 51.6 202.354 51.5616 202.478Z" fill="url(#paint5_linear_1655_27704)"/>
<path d="M50.9616 203.347C50.9232 203.472 50.9952 203.606 51.12 203.645L53.6352 204.427C53.76 204.466 53.8944 204.394 53.9328 204.269C53.9712 204.144 53.8992 204.01 53.7744 203.971L51.2592 203.189C51.1296 203.15 51 203.222 50.9616 203.347Z" fill="url(#paint6_linear_1655_27704)"/>
<path d="M52.6368 200.966C52.5984 201.091 52.6704 201.226 52.7952 201.264L55.3104 202.046C55.4352 202.085 55.5696 202.013 55.608 201.888C55.6464 201.763 55.5744 201.629 55.4496 201.59L52.9344 200.808C52.8048 200.77 52.6752 200.842 52.6368 200.966Z" fill="url(#paint7_linear_1655_27704)"/>
<path d="M29.3856 92.5104C29.3856 92.5104 26.9184 103.171 26.6976 104.141C26.304 105.864 24.8976 109.838 24.8976 109.838C24.8976 109.838 30.8688 113.227 32.5776 112.166C33.864 111.365 33.7776 106.858 33.8928 105.187C34.0032 103.594 38.4576 88.2624 38.4576 88.2624L29.3856 92.5104Z" fill="#EFC0C1"/>
<path d="M38.7888 80.8127C38.7888 80.8127 33.0864 78.1775 30.5568 85.8575C28.4928 92.1263 27.1488 99.1535 27.1488 99.1535L36.96 102.11L38.7888 80.8127Z" fill="#DB5353"/>
<path d="M34.2336 85.5984C34.2432 85.5456 39.7056 89.616 42.5232 88.0848C45.672 86.3664 45.9456 79.2144 45.9456 79.2144L44.184 72.4032L44.1552 72.2928L44.0688 71.88L43.4496 72.2448L40.992 73.6848L40.008 74.2656L37.488 75.744C37.488 75.744 37.7568 77.5392 37.6848 79.0464C37.6752 79.2048 37.6704 79.3584 37.6512 79.5024C37.6176 79.752 37.5456 79.9968 37.4544 80.2128C37.248 80.7216 36.9408 81.0768 36.9408 81.0816C36.5328 82.6416 34.2528 85.5936 34.2336 85.5984Z" fill="#EFC0C1"/>
<path d="M37.464 80.2128C43.5024 80.6544 44.1984 73.3632 44.184 72.4032L44.1552 72.2928L44.0688 71.88L43.4496 72.2448C42.8112 72.864 41.88 73.6176 40.992 73.6848L40.008 74.2656L37.488 75.744C37.488 75.744 37.7568 77.5392 37.6848 79.0464C37.6752 79.2048 37.6704 79.3584 37.6512 79.5024C37.632 79.7568 37.5552 80.0016 37.464 80.2128Z" fill="#E5E6E7"/>
<path d="M33.4896 72.1824C34.4784 75.6384 36.0768 79.0656 39.408 78.3456C41.736 77.8416 43.8192 74.4192 44.1504 71.376C44.3232 69.8064 44.4912 68.4288 44.424 67.4064C44.3712 66.6 44.304 66.0912 44.304 66.0912L43.6224 64.368L43.224 63.36C43.224 63.36 42.432 62.784 41.5488 62.1408C40.4448 61.3296 38.8944 62.688 38.8608 62.6304C38.8128 62.5392 34.0512 62.1504 32.6736 64.1472C32.6688 64.152 32.664 64.1568 32.6688 64.1616C32.544 64.344 32.448 64.5264 32.3952 64.7088C32.3472 64.8624 32.328 65.016 32.3376 65.1648C32.3568 65.4576 32.3904 65.8992 32.4432 66.456C32.472 66.6864 32.4912 66.9408 32.5248 67.2096C32.5776 67.6608 32.6448 68.16 32.7264 68.6784C32.8992 69.7728 33.144 70.9872 33.4896 72.1824Z" fill="#EFC0C1"/>
<path d="M44.5824 67.3632C44.5824 67.3632 46.1088 59.112 39.5568 59.6832C39.5568 59.6832 34.4352 57.7248 31.3488 60.5664C28.6032 63.0912 30.1296 66.168 32.3472 66.696C33.7968 67.0416 40.1184 64.6032 41.16 65.1408C42.2016 65.6736 44.1264 71.8032 44.1264 71.8032C44.1264 71.8032 44.1072 68.9664 44.5824 67.3632Z" fill="#1A004D"/>
<path d="M38.4137 62.8634C39.8631 62.7047 40.903 61.3433 40.7364 59.8228C40.5699 58.3023 39.2599 57.1984 37.8105 57.3572C36.3612 57.516 35.3213 58.8773 35.4878 60.3978C35.6544 61.9183 36.9644 63.0222 38.4137 62.8634Z" fill="#1A004D"/>
<path d="M34.625 64.9753C36.5065 64.7692 37.8565 63.002 37.6403 61.0283C37.4241 59.0545 35.7235 57.6216 33.842 57.8277C31.9604 58.0338 30.6104 59.801 30.8267 61.7747C31.0429 63.7485 32.7435 65.1814 34.625 64.9753Z" fill="#1A004D"/>
<path d="M31.2136 66.5113C32.6629 66.3525 33.7028 64.9911 33.5363 63.4706C33.3697 61.9501 32.0597 60.8462 30.6104 61.005C29.161 61.1638 28.1211 62.5251 28.2877 64.0456C28.4542 65.5661 29.7642 66.67 31.2136 66.5113Z" fill="#1A004D"/>
<path d="M40.029 66.54C41.0778 66.4251 41.8305 65.4411 41.7101 64.3423C41.5897 63.2434 40.6419 62.4457 39.5931 62.5606C38.5443 62.6755 37.7916 63.6595 37.912 64.7583C38.0324 65.8572 38.9802 66.6549 40.029 66.54Z" fill="#1A004D"/>
<path d="M42.4966 63.0214C43.5454 62.9065 44.2981 61.9225 44.1777 60.8236C44.0573 59.7248 43.1095 58.9271 42.0607 59.042C41.0118 59.1569 40.2592 60.1408 40.3796 61.2397C40.5 62.3386 41.4478 63.1363 42.4966 63.0214Z" fill="#1A004D"/>
<path d="M43.6002 65.393C44.649 65.2781 45.4016 64.2941 45.2812 63.1952C45.1608 62.0963 44.213 61.2987 43.1642 61.4136C42.1154 61.5285 41.3628 62.5124 41.4831 63.6113C41.6035 64.7102 42.5514 65.5079 43.6002 65.393Z" fill="#1A004D"/>
<path d="M43.7012 67.3533C44.5893 67.256 45.2266 66.4231 45.1247 65.4928C45.0228 64.5626 44.2202 63.8874 43.3322 63.9847C42.4441 64.082 41.8068 64.9149 41.9087 65.8451C42.0106 66.7754 42.8131 67.4506 43.7012 67.3533Z" fill="#1A004D"/>
<path d="M36.4198 67.7641C37.4686 67.6492 38.2213 66.6652 38.1009 65.5663C37.9805 64.4674 37.0327 63.6698 35.9839 63.7847C34.9351 63.8996 34.1824 64.8835 34.3028 65.9824C34.4232 67.0813 35.371 67.879 36.4198 67.7641Z" fill="#1A004D"/>
<path d="M40.3641 61.2119C41.405 61.0978 42.1517 60.1189 42.0319 59.0253C41.9121 57.9316 40.9712 57.1375 39.9303 57.2516C38.8894 57.3656 38.1427 58.3446 38.2625 59.4382C38.3823 60.5318 39.3232 61.3259 40.3641 61.2119Z" fill="#1A004D"/>
<path d="M43.5168 68.136C43.5168 68.136 45.432 66.576 45.576 68.664C45.72 70.7568 43.8528 71.8608 43.8528 71.8608L43.5168 68.136Z" fill="#EFC0C1"/>
<path d="M44.088 68.7552C44.088 68.7552 45.648 68.0976 44.2512 70.5072L44.088 68.7552Z" fill="#EDAA98"/>
<path d="M35.545 72.0765C35.7179 72.0169 35.7749 71.7269 35.6722 71.4286C35.5696 71.1303 35.3461 70.9367 35.1732 70.9963C35.0002 71.0558 34.9432 71.3459 35.0459 71.6442C35.1486 71.9425 35.372 72.136 35.545 72.0765Z" fill="#1A004D"/>
<path d="M39.3408 71.2163C39.5138 71.1568 39.5707 70.8667 39.4681 70.5684C39.3654 70.2701 39.1419 70.0766 38.969 70.1361C38.796 70.1956 38.7391 70.4857 38.8417 70.784C38.9444 71.0823 39.1679 71.2758 39.3408 71.2163Z" fill="#1A004D"/>
<path d="M35.7696 69.9312C35.7696 69.9312 34.7376 69.3408 33.9792 69.8688L35.7696 69.9312Z" fill="#1A004D"/>
<path d="M40.1088 68.6256C40.032 68.6256 38.7984 68.5632 38.1696 69.4368L40.1088 68.6256Z" fill="#1A004D"/>
<path d="M37.296 71.7696C37.296 71.7696 37.632 72.6576 37.2624 72.9744C36.8928 73.2912 36.84 74.2464 37.9008 73.7664" stroke="#EDAA98" stroke-width="0.107932" stroke-miterlimit="10" stroke-linecap="round" stroke-linejoin="round"/>
<path d="M36.8784 75.6672C36.8784 75.6672 36.936 75.7488 37.056 75.8496C37.2672 76.032 37.6656 76.272 38.2464 76.1712C38.8176 76.0656 39.1584 75.672 39.3312 75.4032C39.4272 75.2496 39.4704 75.1392 39.4704 75.1392" fill="white"/>
<path d="M31.5408 86.7504C31.9584 92.7936 33.0768 98.6544 33.5232 104.602C34.2576 110.962 34.1808 121.661 34.1904 121.723C34.1616 121.541 37.2576 122.942 43.08 123.902C48.6192 124.814 57.2832 123.346 59.7312 122.198C59.8176 122.16 59.3856 104.976 59.3088 104.616C57.0528 82.632 57.2592 81.072 54.3696 79.6272C53.0112 78.816 51.9936 78.8688 50.424 78.5808V78.576C49.3392 78.3456 46.248 78.0336 45.6384 78.0288C44.1648 80.2032 41.4048 83.9616 39.2112 84.384C38.1168 84.1968 37.9056 80.1456 37.6608 79.5072C33.8592 80.376 31.0128 82.584 31.5408 86.7504Z" fill="#DB5353"/>
<path d="M61.3056 98.6496C61.3056 98.6496 63.1584 109.118 62.0208 111.605C61.0224 113.784 60.4512 115.747 48.0912 110.117C44.904 108.662 37.7424 103.565 37.7424 103.565L40.296 99.8352L52.7472 103.838L52.2384 100.752L61.3056 98.6496Z" fill="#EFC0C1"/>
<path d="M52.752 103.838L56.8032 105.24" stroke="#313131" stroke-width="0.0968" stroke-miterlimit="10"/>
<path d="M53.952 79.3632C53.952 79.3632 58.3344 80.9808 59.2704 84.9312C60.2064 88.8816 62.0016 99.4896 62.0016 99.4896L52.1136 101.045C52.1136 101.045 50.1312 91.4256 49.6512 86.3904C49.1616 81.36 53.952 79.3632 53.952 79.3632Z" fill="#DB5353"/>
<path d="M52.344 101.597C52.344 101.597 50.1264 91.4304 49.6464 86.3952" stroke="#313131" stroke-width="0.0968" stroke-miterlimit="10"/>
<path d="M31.7904 88.7616C32.112 91.6992 32.6928 95.0832 33.1392 101.035" stroke="#313131" stroke-width="0.0968" stroke-miterlimit="10"/>
<path d="M22.9824 93.3024L23.1984 92.8943L30.6528 92.7408L37.512 102.346L29.9808 103.099L23.5824 93.4703L22.9824 93.3024Z" fill="#260F60"/>
<path d="M30.4416 93.1487L37.3008 102.754L29.7696 103.507L22.9824 93.3023L30.4416 93.1487Z" fill="#1A004D"/>
<path d="M25.4497 95.1849C25.6358 95.0627 25.6358 94.7336 25.4495 94.45C25.2633 94.1664 24.9614 94.0355 24.7752 94.1577C24.5891 94.28 24.5892 94.609 24.7754 94.8926C24.9617 95.1763 25.2636 95.3071 25.4497 95.1849Z" fill="#260F60"/>
<path d="M23.8848 103.234C23.8848 103.234 23.9328 101.131 23.904 100.133C23.8752 99.1344 23.6736 98.064 23.9232 97.4928C24.1776 96.9216 25.9008 93.8208 26.688 94.3056C27.4752 94.7904 25.9824 96.2112 25.656 97.176C25.3296 98.1408 25.4208 98.2944 25.4208 98.2944C25.4208 98.2944 26.8992 97.0368 27.8736 96.2064C28.848 95.376 30.024 94.632 30.3552 95.0352C30.6864 95.4384 28.6992 97.2336 28.3296 97.608C28.3296 97.608 30.7152 95.28 31.1232 95.6016C31.5312 95.9232 30.1488 97.4544 30.1488 97.4544C30.1488 97.4544 30.6864 97.1904 30.2256 97.9488C29.7648 98.7072 29.448 100.445 29.1024 101.059C28.7568 101.678 28.1088 103.656 28.1952 104.045L23.8848 103.234Z" fill="#EFC0C1"/>
<path d="M28.3392 97.6032L26.8272 99.1392" stroke="black" stroke-width="0.090508" stroke-miterlimit="10"/>
<path d="M30.1584 97.4448L27.9648 99.8112" stroke="black" stroke-width="0.090508" stroke-miterlimit="10"/>
<path d="M23.9376 102.624C23.9376 102.624 23.4288 111.533 27.3648 112.838C31.3008 114.144 32.5776 112.094 32.5776 112.094L28.248 104.006" fill="#EFC0C1"/>
<path d="M30.5232 109.608L28.248 104.006" stroke="#231F20" stroke-width="0.098252" stroke-miterlimit="10"/>
<path d="M30.2112 100.171C30.2112 100.171 29.2608 100.061 29.736 100.853C30.2112 101.645 32.256 103.325 33.3216 103.474C34.3776 103.622 37.3248 103.31 37.7472 103.565C38.1648 103.824 40.3584 99.984 40.3584 99.984C40.3584 99.984 37.6704 97.344 36.336 96.6048C35.6064 96.2016 34.2912 96.1488 33.312 96.3072L34.2288 97.68C34.488 97.6992 34.6752 97.728 34.7328 97.7904C34.9344 98.0256 34.6032 98.2512 33.888 98.1024C33.1776 97.9536 29.5248 96.4992 29.28 96.8832C28.8768 97.5312 31.056 98.5056 32.5536 99.1536C33.12 99.3984 34.1232 99.984 34.1232 99.984C34.1232 99.984 33.2064 99.984 32.256 99.5568C31.3056 99.1296 29.5872 98.2464 29.1648 98.7264C28.7472 99.216 30.2112 100.171 30.2112 100.171Z" fill="#EFC0C1"/>
<path d="M30.2112 100.171C30.2112 100.171 32.0928 101.664 33.7776 101.76" stroke="#231F20" stroke-width="0.098252" stroke-miterlimit="10"/>
<path d="M56.2224 37.1712L46.0704 32.5152L49.92 29.688L54.4896 33.168L56.2224 37.1712Z" fill="#1A004D"/>
<path d="M56.2224 27.1056V37.1712L51.5568 32.4912L30.912 24.1104L56.2224 27.1056Z" fill="#C14040"/>
<path d="M59.6112 22.8L56.2224 27.1056L30.912 24.1104L59.6112 22.8Z" fill="#DB5353"/>
<path d="M51.5568 32.4912L46.8096 39.4752L30.912 24.1104L51.5568 32.4912Z" fill="#DB5353"/>
<path d="M167.63 195.701C167.63 195.701 171.95 180.106 177.85 182.741C183.749 185.376 176.482 194.227 167.578 196.546" fill="#C63E3E"/>
<path d="M168 185.006C168 185.006 171.898 163.195 177.274 164.352C182.65 165.509 167.63 196.968 167.63 196.968L166.522 192.226L168.206 185.006" fill="#DB5353"/>
<path d="M166.104 197.654C166.104 197.654 157.301 167.808 162.782 166.622C171.792 164.674 167.947 186.696 167.208 197.443" fill="#C63E3E"/>
<path d="M166.896 196.282C166.896 196.282 162.259 175.522 156.043 176.102C149.827 176.683 166.579 196.598 166.579 196.598" fill="#DB5353"/>
<path d="M176.722 194.856C176.722 194.856 176.592 200.789 176.482 203.323C176.434 204.523 176.131 206.616 175.109 208.502H161.458C160.426 206.616 160.133 204.523 160.075 203.323C159.97 200.789 159.845 194.856 159.845 194.856H176.722Z" fill="#1A004D"/>
<defs>
<linearGradient id="paint0_linear_1655_27704" x1="27.2419" y1="202.275" x2="26.2992" y2="202.275" gradientUnits="userSpaceOnUse">
<stop stop-color="#E9EEFA"/>
<stop offset="1" stop-color="white"/>
</linearGradient>
<linearGradient id="paint1_linear_1655_27704" x1="28.0915" y1="201.705" x2="27.1488" y2="201.705" gradientUnits="userSpaceOnUse">
<stop stop-color="#E9EEFA"/>
<stop offset="1" stop-color="white"/>
</linearGradient>
<linearGradient id="paint2_linear_1655_27704" x1="29.0803" y1="201.104" x2="28.1376" y2="201.104" gradientUnits="userSpaceOnUse">
<stop stop-color="#E9EEFA"/>
<stop offset="1" stop-color="white"/>
</linearGradient>
<linearGradient id="paint3_linear_1655_27704" x1="30.0571" y1="200.509" x2="29.1149" y2="200.509" gradientUnits="userSpaceOnUse">
<stop stop-color="#E9EEFA"/>
<stop offset="1" stop-color="white"/>
</linearGradient>
<linearGradient id="paint4_linear_1655_27704" x1="55.0915" y1="202.164" x2="52.1035" y2="202.164" gradientUnits="userSpaceOnUse">
<stop stop-color="#E9EEFA"/>
<stop offset="1" stop-color="white"/>
</linearGradient>
<linearGradient id="paint5_linear_1655_27704" x1="54.5376" y1="202.94" x2="51.5496" y2="202.94" gradientUnits="userSpaceOnUse">
<stop stop-color="#E9EEFA"/>
<stop offset="1" stop-color="white"/>
</linearGradient>
<linearGradient id="paint6_linear_1655_27704" x1="53.9376" y1="203.809" x2="50.9496" y2="203.809" gradientUnits="userSpaceOnUse">
<stop stop-color="#E9EEFA"/>
<stop offset="1" stop-color="white"/>
</linearGradient>
<linearGradient id="paint7_linear_1655_27704" x1="55.6133" y1="201.427" x2="52.6253" y2="201.427" gradientUnits="userSpaceOnUse">
<stop stop-color="#E9EEFA"/>
<stop offset="1" stop-color="white"/>
</linearGradient>
</defs>
</svg>
