<svg width="240" height="240" viewBox="0 0 240 240" fill="none" xmlns="http://www.w3.org/2000/svg">
<path d="M111.979 163.334C150.156 163.334 181.104 132.386 181.104 94.2096C181.104 56.033 150.156 25.0848 111.979 25.0848C73.8026 25.0848 42.8544 56.033 42.8544 94.2096C42.8544 132.386 73.8026 163.334 111.979 163.334Z" fill="#D7E3F4"/>
<path d="M190.402 64.1616C196.061 64.1616 200.65 59.5734 200.65 53.9136C200.65 48.2538 196.061 43.6656 190.402 43.6656C184.742 43.6656 180.154 48.2538 180.154 53.9136C180.154 59.5734 184.742 64.1616 190.402 64.1616Z" fill="#D7E3F4"/>
<path d="M65.4144 174.336C85.3523 174.336 101.515 158.173 101.515 138.235C101.515 118.297 85.3523 102.134 65.4144 102.134C45.4765 102.134 29.3136 118.297 29.3136 138.235C29.3136 158.173 45.4765 174.336 65.4144 174.336Z" fill="#D7E3F4"/>
<path d="M122.501 211.166C174.934 211.166 217.44 208.257 217.44 204.667C217.44 201.078 174.934 198.168 122.501 198.168C70.0673 198.168 27.5616 201.078 27.5616 204.667C27.5616 208.257 70.0673 211.166 122.501 211.166Z" fill="#D7E3F4"/>
<path d="M173.765 59.4528V197.53C173.765 201.835 170.275 205.325 165.97 205.325H91.1184C86.8128 205.325 83.3232 201.835 83.3232 197.53V59.448C83.3232 55.1424 86.8128 51.6528 91.1184 51.6528H110.947C112.714 51.6528 114.144 53.0832 114.144 54.8496H142.944C142.944 53.0832 144.374 51.6528 146.141 51.6528H165.965C170.27 51.648 173.765 55.1424 173.765 59.4528Z" fill="#1A004D"/>
<path d="M91.1184 203.064C88.0704 203.064 85.5888 200.582 85.5888 197.53V59.448C85.5888 56.4 88.0704 53.9136 91.1232 53.9136H110.952C111.466 53.9136 111.883 54.3312 111.883 54.8448V57.1104H145.21V54.8448C145.21 54.3312 145.627 53.9136 146.141 53.9136H165.965C169.018 53.9136 171.504 56.4 171.504 59.4528V197.53C171.504 200.582 169.022 203.064 165.97 203.064H91.1184Z" fill="#749F09"/>
<path d="M88.8 70.8432H94.6992" stroke="white" stroke-width="0.787" stroke-miterlimit="10" stroke-linecap="round" stroke-linejoin="round"/>
<path d="M88.8 73.0512H92.6016" stroke="white" stroke-width="0.787" stroke-miterlimit="10" stroke-linecap="round" stroke-linejoin="round"/>
<path d="M203.659 74.5584V135.984C203.659 138.662 201.864 140.827 199.656 140.827H96.768C94.5648 140.827 92.7648 138.662 92.7648 135.984V74.5584C92.7648 71.8992 94.5648 69.7344 96.768 69.7344H199.661C201.864 69.7392 203.659 71.8992 203.659 74.5584Z" fill="white"/>
<path d="M199.656 140.986H96.768C94.4736 140.986 92.6016 138.739 92.6016 135.984V74.5584C92.6016 71.808 94.4688 69.576 96.768 69.576H199.661C201.955 69.576 203.827 71.8128 203.827 74.5584V135.984C203.822 138.744 201.955 140.986 199.656 140.986ZM96.768 69.8976C94.6512 69.8976 92.928 71.9904 92.928 74.5584V135.984C92.928 138.566 94.6512 140.664 96.768 140.664H199.661C201.778 140.664 203.501 138.566 203.501 135.984V74.5584C203.501 71.9904 201.778 69.8976 199.661 69.8976H96.768Z" fill="#D7E3F4"/>
<path d="M203.698 74.5536V83.3664H92.7936V74.5536C92.7936 71.8848 94.5888 69.7248 96.8064 69.7248H199.69C201.902 69.72 203.698 71.8848 203.698 74.5536Z" fill="#1A004D"/>
<path d="M203.861 83.5248H92.6352V74.5488C92.6352 71.7984 94.5072 69.5568 96.8112 69.5568H199.694C201.994 69.5568 203.861 71.7936 203.861 74.5488V83.5248ZM92.9568 83.2032H203.534V74.5536C203.534 71.9808 201.811 69.888 199.69 69.888H96.8064C94.6848 69.888 92.9568 71.9808 92.9568 74.5536V83.2032Z" fill="#1A004D"/>
<path d="M184.68 77.8368C185.268 77.8368 185.746 77.3597 185.746 76.7712C185.746 76.1827 185.268 75.7056 184.68 75.7056C184.091 75.7056 183.614 76.1827 183.614 76.7712C183.614 77.3597 184.091 77.8368 184.68 77.8368Z" fill="white"/>
<path d="M189.331 77.8368C189.92 77.8368 190.397 77.3597 190.397 76.7712C190.397 76.1827 189.92 75.7056 189.331 75.7056C188.743 75.7056 188.266 76.1827 188.266 76.7712C188.266 77.3597 188.743 77.8368 189.331 77.8368Z" fill="white"/>
<path d="M193.982 77.8368C194.571 77.8368 195.048 77.3597 195.048 76.7712C195.048 76.1827 194.571 75.7056 193.982 75.7056C193.394 75.7056 192.917 76.1827 192.917 76.7712C192.917 77.3597 193.394 77.8368 193.982 77.8368Z" fill="white"/>
<path d="M186.475 192.346C186.475 192.346 190.877 176.453 196.891 179.136C202.906 181.819 195.494 190.838 186.422 193.205" fill="#C63E3E"/>
<path d="M186.854 181.445C186.854 181.445 190.829 159.216 196.306 160.397C201.782 161.578 186.48 193.632 186.48 193.632L185.352 188.798L187.07 181.445" fill="#DB5353"/>
<path d="M184.92 194.333C184.92 194.333 175.949 163.92 181.536 162.71C190.718 160.723 186.797 183.168 186.048 194.117" fill="#C63E3E"/>
<path d="M185.726 192.936C185.726 192.936 181.003 171.782 174.667 172.373C168.331 172.963 185.405 193.258 185.405 193.258" fill="#DB5353"/>
<path d="M195.739 191.482C195.739 191.482 195.61 197.525 195.494 200.107C195.446 201.331 195.134 203.462 194.093 205.387H180.178C179.126 203.462 178.824 201.331 178.766 200.107C178.661 197.525 178.531 191.482 178.531 191.482H195.739Z" fill="#1A004D"/>
<path d="M148.229 88.2912C145.003 88.2912 142.378 90.912 142.378 94.1424V99.4512H143.554V94.1424C143.554 91.5648 145.651 89.4672 148.229 89.4672C150.802 89.4672 152.904 91.5648 152.904 94.1424V99.4512H154.08V94.1424C154.08 90.912 151.454 88.2912 148.229 88.2912Z" fill="#DB5353"/>
<path d="M155.957 97.704H140.506C139.939 97.704 139.478 98.1648 139.478 98.736V107.832C139.478 108.403 139.939 108.864 140.506 108.864H155.957C156.528 108.864 156.989 108.403 156.989 107.832V98.736C156.989 98.1648 156.528 97.704 155.957 97.704ZM148.963 103.411V105.696H147.499V103.416C147.11 103.171 146.851 102.739 146.851 102.25C146.851 101.486 147.47 100.877 148.229 100.877C148.987 100.877 149.602 101.491 149.602 102.25C149.606 102.734 149.352 103.166 148.963 103.411Z" fill="#DB5353"/>
<path d="M119.155 117.614H104.803V131.966H119.155V117.614Z" fill="#D7E3F4"/>
<path d="M107.99 128.717H115.973" stroke="#1A004D" stroke-width="0.833" stroke-miterlimit="10"/>
<path d="M137.28 117.614H122.928V131.966H137.28V117.614Z" fill="#D7E3F4"/>
<path d="M126.115 128.717H134.098" stroke="#1A004D" stroke-width="0.833" stroke-miterlimit="10"/>
<path d="M155.405 117.614H141.053V131.966H155.405V117.614Z" fill="#D7E3F4"/>
<path d="M144.24 128.717H152.222" stroke="#1A004D" stroke-width="0.833" stroke-miterlimit="10"/>
<path d="M173.53 117.614H159.178V131.966H173.53V117.614Z" fill="#D7E3F4"/>
<path d="M162.365 128.717H170.347" stroke="#1A004D" stroke-width="0.833" stroke-miterlimit="10"/>
<path d="M191.654 117.614H177.302V131.966H191.654V117.614Z" fill="#D7E3F4"/>
<path d="M180.49 128.717H188.472" stroke="#1A004D" stroke-width="0.833" stroke-miterlimit="10"/>
<path d="M55.0896 190.954L54.9312 192.768L54.8064 194.198L54.3408 197.678L52.968 201.067L47.8032 200.976L47.3424 197.899L47.784 194.29L48.072 190.757L48.12 190.186L55.0896 190.954Z" fill="#E9C09F"/>
<path d="M75.1872 197.419L75.0336 199.57L69.9168 200.242L68.7648 197.491L68.5728 194.53L68.304 190.488L72.432 189.998L74.7984 189.715L74.8416 190.613L74.8704 191.208L75.1872 197.419Z" fill="#E9C09F"/>
<path d="M84.6096 202.512C84.6096 202.512 85.1904 204.278 82.3056 204.643C79.416 205.013 77.208 205.075 75.7008 204.787C74.1936 204.499 73.4208 204.576 71.8512 204.749C70.2816 204.922 68.6976 205.032 67.8864 204.25C67.2192 203.611 67.7568 202.392 67.7568 202.392L76.4304 202.21L84.6096 202.512Z" fill="#DB6A6A"/>
<path d="M75.3024 197.462C75.3024 197.462 78.8064 199.824 80.52 200.616C82.2336 201.408 84.4176 200.77 84.6096 202.512C84.8064 204.254 80.0208 203.995 77.2176 203.813C74.4144 203.63 72.4272 202.589 70.9728 203.059C69.5184 203.53 67.872 202.877 67.7568 202.397C67.6416 201.917 68.28 197.654 68.6448 197.237C68.6448 197.237 69.2352 198.744 71.9904 198.744C74.7456 198.739 75.3024 197.462 75.3024 197.462Z" fill="#1A004D"/>
<path d="M78.5952 200.923L78.6384 200.947C78.72 200.995 78.8208 200.962 78.8688 200.88L79.368 199.978C79.4112 199.896 79.3824 199.79 79.3056 199.747L79.2624 199.723C79.1808 199.675 79.08 199.709 79.032 199.79L78.5328 200.693C78.4848 200.774 78.5136 200.88 78.5952 200.923Z" fill="url(#paint0_linear_1655_27494)"/>
<path d="M77.8032 200.39L77.8464 200.414C77.928 200.462 78.0288 200.429 78.0768 200.347L78.576 199.445C78.6192 199.363 78.5904 199.258 78.5136 199.214L78.4704 199.19C78.3888 199.142 78.288 199.176 78.24 199.258L77.7408 200.16C77.6928 200.242 77.7216 200.342 77.8032 200.39Z" fill="url(#paint1_linear_1655_27494)"/>
<path d="M76.8768 199.829L76.92 199.853C77.0016 199.901 77.1024 199.867 77.1504 199.786L77.6496 198.883C77.6928 198.802 77.664 198.696 77.5872 198.653L77.544 198.629C77.4624 198.581 77.3616 198.614 77.3136 198.696L76.8144 199.598C76.7664 199.68 76.7952 199.781 76.8768 199.829Z" fill="url(#paint2_linear_1655_27494)"/>
<path d="M75.96 199.272L76.0032 199.296C76.0848 199.344 76.1856 199.31 76.2336 199.229L76.7328 198.326C76.776 198.245 76.7472 198.139 76.6704 198.096L76.6272 198.072C76.5456 198.024 76.4448 198.058 76.3968 198.139L75.8976 199.042C75.8544 199.123 75.8832 199.224 75.96 199.272Z" fill="url(#paint3_linear_1655_27494)"/>
<path d="M76.104 192.706L67.4736 193.498L65.0064 158.002L61.44 142.954C61.4064 143.246 60.1008 155.942 59.472 161.4C58.8144 167.074 57.8928 183.811 56.592 193.824L46.7088 193.176C47.2608 181.901 48.96 163.123 48.7152 158.976C47.4864 138.254 47.7888 133.181 48.0912 126.106C48.2736 121.891 48.9984 119.611 48.9984 119.611C48.9984 119.611 70.8432 119.611 71.1936 119.611C71.1936 119.611 74.7936 144.355 75.4848 158.342C75.8208 165.115 76.0752 181.675 76.0992 191.76C76.104 192.077 76.104 192.394 76.104 192.706Z" fill="#1A004D"/>
<path d="M76.104 192.706L67.4736 193.498L65.0064 158.002L61.44 142.954L62.856 133.795C62.856 133.795 66.792 149.77 67.6848 156.97C68.5776 164.165 68.1312 188.755 75.4176 191.458C75.6768 191.554 75.9024 191.654 76.0992 191.75C76.104 192.077 76.104 192.394 76.104 192.706Z" fill="#E5E6E7"/>
<path d="M47.0736 201.163C47.0736 201.163 47.0304 203.582 47.3136 203.755C48.1056 204.235 48.6528 204.226 49.6032 204.624C50.5104 205.008 52.1808 205.296 53.8224 205.368C54.9168 205.416 57.3696 205.445 57.432 204.418C57.4368 204.331 57.5856 203.722 57.4608 203.63C56.0976 202.642 47.0736 201.163 47.0736 201.163Z" fill="#DB6A6A"/>
<path d="M57.4752 203.818C56.5392 204.677 48.144 204.826 47.28 202.205C46.7904 200.741 47.2512 197.674 47.2512 197.674C47.2512 197.674 49.3536 198.317 52.488 198.173C53.496 198.125 54.3744 197.63 54.3744 197.726C54.3744 198.086 54.7104 198.696 54.8016 198.792C55.0224 199.008 58.4064 202.954 57.4752 203.818Z" fill="#1A004D"/>
<path d="M55.2432 199.8C55.2816 199.92 55.2144 200.045 55.0992 200.078L52.7472 200.813C52.632 200.851 52.5072 200.784 52.4688 200.664C52.4304 200.544 52.4976 200.419 52.6128 200.386L54.9648 199.651C55.0848 199.618 55.2096 199.685 55.2432 199.8Z" fill="url(#paint4_linear_1655_27494)"/>
<path d="M55.7616 200.525C55.8 200.645 55.7328 200.77 55.6176 200.803L53.2656 201.538C53.1504 201.576 53.0256 201.509 52.9872 201.389C52.9488 201.269 53.016 201.144 53.1312 201.11L55.4832 200.376C55.6032 200.342 55.728 200.41 55.7616 200.525Z" fill="url(#paint5_linear_1655_27494)"/>
<path d="M56.3232 201.341C56.3616 201.461 56.2944 201.586 56.1792 201.619L53.8272 202.354C53.712 202.392 53.5872 202.325 53.5488 202.205C53.5104 202.085 53.5776 201.96 53.6928 201.926L56.0448 201.192C56.1648 201.154 56.2896 201.221 56.3232 201.341Z" fill="url(#paint6_linear_1655_27494)"/>
<path d="M54.7584 199.114C54.7968 199.234 54.7296 199.358 54.6144 199.392L52.2624 200.126C52.1472 200.165 52.0224 200.098 51.984 199.978C51.9456 199.858 52.0128 199.733 52.128 199.699L54.48 198.965C54.5952 198.926 54.72 198.994 54.7584 199.114Z" fill="url(#paint7_linear_1655_27494)"/>
<path d="M77.0592 95.8128C77.0592 95.8128 78.84 99.7344 79.296 100.56L88.2768 88.9968L91.7088 91.3824C91.7088 91.3824 83.6448 110.914 76.4256 109.541C71.2992 108.566 67.488 94.4592 67.5792 94.2816L77.0592 95.8128Z" fill="#EFC0C1"/>
<path d="M79.296 100.56L77.3376 103.949" stroke="#313131" stroke-width="0.187" stroke-miterlimit="10"/>
<path d="M60.0768 86.7312C60.0768 86.7312 63.24 82.8 65.1888 82.7808C66.8064 82.7664 68.1792 80.9808 72.2448 86.6064C75.9264 91.704 78.8352 97.8912 78.8352 97.8912L69.888 103.574L60.0768 86.7312Z" fill="#DB5353"/>
<path d="M87.5568 90.4464C87.5568 90.4464 88.3248 89.7504 88.3248 88.4592C88.3248 87.1728 88.3872 85.896 89.0448 84.984C89.7024 84.072 91.0704 82.4592 91.9872 82.3872C92.904 82.3152 94.2768 82.8336 94.512 83.2128C94.752 83.5872 94.5072 83.8224 94.5072 83.8224C94.5072 83.8224 95.1888 83.928 95.4576 84.2064C95.7264 84.4848 95.5536 84.7536 95.5536 84.7536C95.5536 84.7536 96.3504 84.9024 96.4656 85.248C96.5808 85.5936 96.2016 85.9824 95.7072 85.9008C95.2128 85.8192 93.672 86.1024 93.3888 86.6352C93.1056 87.1728 93.096 89.5248 92.4672 90.7728C92.064 91.5696 91.5456 91.8816 91.5456 91.8816L87.5568 90.4464Z" fill="#EFC0C1"/>
<path opacity="0.5" d="M90.5472 91.0848C90.5472 91.0848 90.6624 90.984 90.8304 90.7824C91.0032 90.5856 91.2336 90.2832 91.4208 89.88C91.512 89.6784 91.584 89.448 91.5984 89.2032C91.608 88.9584 91.584 88.6704 91.6032 88.3872C91.6224 87.816 91.7616 87.168 92.1552 86.664C92.2512 86.5344 92.3712 86.4288 92.4144 86.3232C92.4672 86.2128 92.4576 86.112 92.3808 86.0256C92.2176 85.848 91.92 85.7856 91.6608 85.7904C91.1136 85.7952 90.72 86.184 90.4752 86.5536C90.2208 86.9232 90.048 87.2592 89.9328 87.4944C89.8176 87.7344 89.7648 87.8736 89.7648 87.8736C89.7648 87.8736 89.8032 87.7296 89.8944 87.4752C89.9904 87.2304 90.1248 86.8704 90.3696 86.4768C90.4944 86.2848 90.6432 86.0784 90.8496 85.896C91.0608 85.7136 91.3488 85.608 91.6512 85.584C91.9488 85.5744 92.2848 85.6128 92.544 85.872C92.6784 86.0016 92.7024 86.2464 92.616 86.4048C92.5296 86.5776 92.4144 86.6736 92.3328 86.7888C91.9728 87.2448 91.8384 87.8352 91.8 88.392C91.7712 88.6752 91.7856 88.9344 91.7616 89.208C91.7328 89.4816 91.6368 89.7216 91.536 89.928C91.3248 90.3408 91.0512 90.6192 90.864 90.8064C90.672 90.9984 90.5472 91.0848 90.5472 91.0848Z" fill="#EFC0C1"/>
<path opacity="0.5" d="M95.5536 84.7536C95.5536 84.7536 95.5104 84.7632 95.4336 84.7728C95.3616 84.7824 95.208 84.8064 95.1168 84.8208C94.992 84.84 94.7952 84.8688 94.6752 84.888C94.5168 84.912 94.344 84.936 94.176 84.9744C94.008 85.0032 93.84 85.0416 93.6864 85.0848C93.5328 85.128 93.3888 85.1712 93.2784 85.2288C93.168 85.2864 93.0672 85.3344 93.0144 85.3872C92.9568 85.4352 92.9184 85.464 92.9184 85.464C92.9184 85.464 92.9424 85.4256 92.9808 85.3584C93.024 85.2912 93.1008 85.2 93.2112 85.1232C93.3216 85.0416 93.4608 84.96 93.624 84.9024C93.7824 84.8352 93.96 84.7968 94.1328 84.7584C94.3104 84.7296 94.488 84.7056 94.656 84.696C94.824 84.6864 94.9776 84.696 95.112 84.7008C95.2464 84.7056 95.3568 84.7248 95.4336 84.7344C95.5104 84.744 95.5536 84.7536 95.5536 84.7536Z" fill="#EFC0C1"/>
<path opacity="0.5" d="M94.5072 83.8224C94.5072 83.8224 94.4448 83.8176 94.3392 83.8128C94.2384 83.808 94.0368 83.7984 93.9024 83.7888C93.7248 83.7744 93.5136 83.7744 93.2928 83.7744C93.072 83.7744 92.8368 83.7792 92.6112 83.8224C92.3856 83.8512 92.208 83.9568 92.04 84.1008C91.8768 84.24 91.7328 84.3888 91.6176 84.5232C91.5072 84.6624 91.4112 84.7776 91.3488 84.864C91.2864 84.9504 91.2528 84.9984 91.2528 84.9984C91.2528 84.9984 91.272 84.9408 91.3104 84.84C91.3536 84.744 91.416 84.6 91.512 84.4464C91.6128 84.2928 91.7328 84.1104 91.9056 83.9472C92.064 83.784 92.3136 83.6304 92.568 83.5968C92.8176 83.5536 93.0672 83.5584 93.2976 83.5728C93.528 83.5872 93.7344 83.6304 93.9168 83.6592C94.0944 83.6928 94.2432 83.736 94.344 83.7648C94.4496 83.8032 94.5072 83.8224 94.5072 83.8224Z" fill="#EFC0C1"/>
<path d="M68.7504 85.1664C68.7264 85.1232 64.9248 90.2352 61.9872 89.616C58.704 88.92 56.5392 82.584 56.5392 82.584L56.2944 76.008L56.2896 75.9024L56.256 75.5136L56.9088 75.672L59.496 76.3056L60.5328 76.5648L63.1872 77.2128C63.1872 77.2128 63.4272 78.8928 63.8976 80.2272C63.9504 80.3664 63.9936 80.5008 64.0464 80.6256C64.1424 80.8416 64.272 81.0432 64.4112 81.2112C64.7328 81.6096 65.1024 81.8496 65.1024 81.8544C65.8944 83.1312 68.7312 85.1664 68.7504 85.1664Z" fill="#EFC0C1"/>
<path d="M64.4112 81.2064C59.1216 83.2224 56.5392 76.8768 56.2944 76.008L56.2896 75.9024L56.256 75.5136L56.9088 75.672C57.648 76.056 58.6848 76.4784 59.496 76.3056L60.5328 76.5648L63.1872 77.2128C63.1872 77.2128 63.4272 78.8928 63.8976 80.2272C63.9504 80.3664 63.9936 80.5008 64.0464 80.6256C64.1424 80.8368 64.272 81.0384 64.4112 81.2064Z" fill="#E5E6E7"/>
<path d="M65.8224 72.9408C65.8608 76.3008 65.3472 79.8 62.1696 80.0544C59.9472 80.2272 57.168 77.7168 56.0496 75.0768C55.4736 73.7136 54.9552 72.528 54.7392 71.5968C54.5664 70.8576 54.4944 70.3872 54.4944 70.3872L54.6384 68.6592L54.7248 67.6464C54.7248 67.6464 55.2816 66.9216 55.9008 66.1056C56.6736 65.0832 58.4256 65.8848 58.44 65.8224C58.4592 65.7312 62.6208 64.104 64.392 65.5248C64.3968 65.5296 64.4016 65.5296 64.4016 65.5344C64.5648 65.664 64.6944 65.8032 64.7952 65.952C64.8768 66.0768 64.9344 66.2064 64.968 66.3456C65.0304 66.6144 65.1168 67.0176 65.2176 67.5312C65.256 67.7472 65.304 67.9776 65.3472 68.2272C65.4192 68.6496 65.496 69.1104 65.5632 69.6C65.7024 70.6224 65.808 71.7792 65.8224 72.9408Z" fill="#EFC0C1"/>
<path d="M54.5904 71.5968C54.5904 71.5968 51.0144 64.6128 57.0384 63.3696C57.0384 63.3696 61.104 60.2448 64.632 61.9632C67.7664 63.4896 67.2288 66.6576 65.3808 67.7232C64.1712 68.424 57.8544 67.9296 57.0624 68.688C56.2704 69.4464 56.1936 75.456 56.1936 75.456C56.1936 75.456 55.4448 72.9024 54.5904 71.5968Z" fill="#1A004D"/>
<path d="M58.9124 65.9064C60.2527 65.6606 61.1303 64.3221 60.8725 62.9166C60.6148 61.5112 59.3194 60.5711 57.9792 60.8169C56.6389 61.0626 55.7614 62.4012 56.0191 63.8066C56.2768 65.2121 57.5722 66.1522 58.9124 65.9064Z" fill="#1A004D"/>
<path d="M62.8727 66.7869C64.6119 66.468 65.7504 64.7298 65.4157 62.9045C65.081 61.0793 63.3998 59.8582 61.6606 60.1771C59.9214 60.496 58.7829 62.2342 59.1176 64.0594C59.4523 65.8847 61.1335 67.1058 62.8727 66.7869Z" fill="#1A004D"/>
<path d="M66.3428 67.246C67.6831 67.0002 68.5606 65.6616 68.3029 64.2562C68.0452 62.8508 66.7498 61.9107 65.4095 62.1564C64.0693 62.4022 63.1917 63.7408 63.4494 65.1462C63.7071 66.5516 65.0026 67.4917 66.3428 67.246Z" fill="#1A004D"/>
<path d="M58.4527 69.6429C59.4227 69.465 60.0579 68.4965 59.8714 67.4795C59.6849 66.4626 58.7474 65.7824 57.7774 65.9603C56.8074 66.1382 56.1723 67.1067 56.3588 68.1237C56.5452 69.1406 57.4827 69.8208 58.4527 69.6429Z" fill="#1A004D"/>
<path d="M55.2942 67.1478C56.2642 66.9699 56.8994 66.0014 56.7129 64.9844C56.5264 63.9675 55.5889 63.2873 54.6189 63.4652C53.6489 63.6431 53.0138 64.6116 53.2003 65.6285C53.3867 66.6455 54.3242 67.3257 55.2942 67.1478Z" fill="#1A004D"/>
<path d="M54.9388 69.5718C55.9088 69.3939 56.544 68.4254 56.3575 67.4084C56.171 66.3915 55.2335 65.7113 54.2635 65.8892C53.2935 66.0671 52.6584 67.0356 52.8448 68.0526C53.0313 69.0695 53.9688 69.7497 54.9388 69.5718Z" fill="#1A004D"/>
<path d="M55.376 71.3518C56.1973 71.2012 56.7353 70.3815 56.5775 69.521C56.4197 68.6606 55.6259 68.0851 54.8046 68.2357C53.9832 68.3864 53.4453 69.206 53.6031 70.0665C53.7609 70.9269 54.5546 71.5024 55.376 71.3518Z" fill="#1A004D"/>
<path d="M62.0094 69.7686C62.9794 69.5907 63.6146 68.6222 63.4281 67.6052C63.2416 66.5883 62.3041 65.9081 61.3341 66.086C60.3641 66.2639 59.729 67.2324 59.9155 68.2493C60.1019 69.2663 61.0394 69.9465 62.0094 69.7686Z" fill="#1A004D"/>
<path d="M56.7225 64.9538C57.6873 64.7768 58.319 63.8133 58.1335 62.8016C57.948 61.7899 57.0155 61.1131 56.0507 61.29C55.0859 61.467 54.4542 62.4305 54.6397 63.4422C54.8253 64.4539 55.7578 65.1307 56.7225 64.9538Z" fill="#1A004D"/>
<path d="M55.7472 72.0048C55.7472 72.0048 53.616 71.1168 54.0432 73.032C54.4752 74.9472 56.4432 75.4368 56.4432 75.4368L55.7472 72.0048Z" fill="#EFC0C1"/>
<path d="M55.4016 72.7104C55.4016 72.7104 53.832 72.5376 55.7232 74.3232L55.4016 72.7104Z" fill="#EDAA98"/>
<path d="M64.2809 72.8742C64.293 72.5802 64.1653 72.3362 63.9958 72.3293C63.8263 72.3223 63.6791 72.5551 63.6671 72.8491C63.655 73.1431 63.7827 73.387 63.9522 73.394C64.1217 73.4009 64.2689 73.1682 64.2809 72.8742Z" fill="#1A004D"/>
<path d="M60.6522 73.1229C60.6642 72.8288 60.5365 72.5849 60.367 72.5779C60.1975 72.571 60.0503 72.8037 60.0383 73.0977C60.0262 73.3917 60.1539 73.6357 60.3234 73.6426C60.4929 73.6496 60.6401 73.4169 60.6522 73.1229Z" fill="#1A004D"/>
<path d="M63.1728 71.5344C63.1728 71.5344 63.9408 70.728 64.7616 71.0016L63.1728 71.5344Z" fill="#1A004D"/>
<path d="M58.9344 71.5248C59.0016 71.5056 60.096 71.1168 60.888 71.7312L58.9344 71.5248Z" fill="#1A004D"/>
<path d="M62.2992 73.5936C62.2992 73.5936 62.2368 74.4816 62.6496 74.664C63.0624 74.8464 63.3696 75.6912 62.2896 75.5424" stroke="#EDAA98" stroke-width="0.209" stroke-miterlimit="10" stroke-linecap="round" stroke-linejoin="round"/>
<path d="M63.7152 76.9728C63.7152 76.9728 63.6864 77.064 63.6048 77.184C63.4656 77.4048 63.1728 77.7264 62.6256 77.7888C62.088 77.8464 61.6752 77.5872 61.4496 77.3904C61.3248 77.28 61.2528 77.1888 61.2528 77.1888" fill="white"/>
<path d="M70.4688 87.336C70.7136 93 70.2864 98.5584 70.4928 104.136C70.4784 110.126 71.664 120.062 71.664 120.12C71.6688 119.947 68.9376 121.574 63.6288 123.072C58.5744 124.498 50.3712 124.042 47.976 123.23C47.8896 123.206 46.4928 107.184 46.5312 106.843C46.3296 86.1744 45.9696 84.744 48.5088 83.1024C49.6848 82.2048 50.6352 82.152 52.0656 81.7152V81.7104C53.0496 81.384 55.8864 80.7696 56.4528 80.7024C58.0512 82.5696 61.008 85.7712 63.0912 85.9344C65.3568 85.1136 64.2528 81.8208 64.4112 81.2064C68.0352 81.6192 70.5216 83.4048 70.4688 87.336Z" fill="#DB5353"/>
<path d="M44.0448 101.51C44.0448 101.51 43.416 111.437 44.736 113.626C45.8928 115.546 46.6272 117.312 57.528 110.784C60.3408 109.099 66.4608 103.613 66.4608 103.613L63.696 100.411L52.5408 105.432L52.6944 102.509L44.0448 101.51Z" fill="#EFC0C1"/>
<path d="M52.536 105.437L48.9168 107.165" stroke="#313131" stroke-width="0.187" stroke-miterlimit="10"/>
<path d="M48.864 82.8144C48.864 82.8144 44.9616 84.7728 44.5056 88.5456C44.0496 92.3136 43.4928 102.365 43.4928 102.365L52.848 102.778C52.848 102.778 53.6832 93.6288 53.6064 88.9008C53.5248 84.168 48.864 82.8144 48.864 82.8144Z" fill="#DB5353"/>
<path d="M52.68 103.31C52.68 103.31 53.6736 93.6288 53.5968 88.9008" stroke="#313131" stroke-width="0.187" stroke-miterlimit="10"/>
<path d="M70.4448 89.232C70.4496 91.9968 70.2672 95.2032 70.4784 100.781" stroke="#313131" stroke-width="0.187" stroke-miterlimit="10"/>
<path d="M79.104 92.5248L78.864 92.1696L71.9184 92.808L66.5472 102.456L73.6272 102.37L78.5664 92.7504L79.104 92.5248Z" fill="#260F60"/>
<path d="M72.1584 93.168L66.7872 102.811L73.8672 102.725L79.104 92.5248L72.1584 93.168Z" fill="#1A004D"/>
<path d="M77.6058 94.1901C77.7496 93.9064 77.7147 93.5996 77.5279 93.5049C77.3411 93.4103 77.0731 93.5636 76.9293 93.8473C76.7855 94.1311 76.8204 94.4379 77.0072 94.5325C77.194 94.6272 77.462 94.4739 77.6058 94.1901Z" fill="#260F60"/>
<path d="M73.104 99.672C73.104 99.672 73.9776 99.4704 73.6176 100.258C73.2624 101.045 71.5344 102.821 70.56 103.066C69.5904 103.315 66.8208 103.33 66.456 103.613C66.096 103.896 63.6528 100.56 63.6528 100.56C63.6528 100.56 65.8752 97.824 67.0416 96.9984C67.6752 96.5472 68.8944 96.36 69.8208 96.4032L69.1152 97.776C68.8752 97.8192 68.7024 97.8672 68.6592 97.9296C68.5008 98.1696 68.8272 98.3472 69.4752 98.1312C70.1232 97.92 73.3632 96.1824 73.6272 96.5136C74.0736 97.0704 72.1488 98.208 70.824 98.9664C70.32 99.2544 69.4512 99.9024 69.4512 99.9024C69.4512 99.9024 70.3008 99.8064 71.1408 99.312C71.9808 98.8176 73.4832 97.8144 73.9248 98.2176C74.3664 98.6256 73.104 99.672 73.104 99.672Z" fill="#EFC0C1"/>
<path d="M73.104 99.672C73.104 99.672 71.5104 101.256 69.9552 101.52" stroke="#231F20" stroke-width="0.19" stroke-miterlimit="10"/>
<path d="M163.157 152.597H93.9312V187.402H163.157V152.597Z" fill="#D7E3F4"/>
<path d="M118.11 126.461H113.254V128.609C113.462 128.38 113.752 128.193 114.126 128.048C114.499 127.903 114.904 127.83 115.34 127.83C116.118 127.83 116.761 128.007 117.27 128.359C117.788 128.712 118.167 129.169 118.406 129.729C118.644 130.289 118.764 130.896 118.764 131.55C118.764 132.764 118.421 133.729 117.737 134.445C117.052 135.151 116.087 135.503 114.842 135.503C114.012 135.503 113.29 135.363 112.678 135.083C112.066 134.793 111.594 134.393 111.262 133.885C110.93 133.376 110.748 132.79 110.717 132.126H113.316C113.379 132.448 113.529 132.717 113.768 132.935C114.006 133.143 114.333 133.247 114.748 133.247C115.236 133.247 115.599 133.091 115.838 132.78C116.076 132.468 116.196 132.053 116.196 131.535C116.196 131.026 116.071 130.637 115.822 130.367C115.573 130.097 115.21 129.963 114.733 129.963C114.38 129.963 114.089 130.051 113.861 130.227C113.633 130.393 113.482 130.616 113.41 130.896H110.842V124.126H118.11V126.461Z" fill="black"/>
<path d="M136.09 126.134L132.183 135.503H129.459L133.413 126.43H128.572V124.157H136.09V126.134Z" fill="black"/>
<path d="M146.789 133.48V131.332L151.707 124.297H154.68V131.177H155.956V133.48H154.68V135.503H152.019V133.48H146.789ZM152.205 127.223L149.591 131.177H152.205V127.223Z" fill="black"/>
<defs>
<linearGradient id="paint0_linear_1655_27494" x1="78.5093" y1="200.337" x2="79.3911" y2="200.337" gradientUnits="userSpaceOnUse">
<stop stop-color="#E9EEFA"/>
<stop offset="1" stop-color="white"/>
</linearGradient>
<linearGradient id="paint1_linear_1655_27494" x1="77.7149" y1="199.803" x2="78.5967" y2="199.803" gradientUnits="userSpaceOnUse">
<stop stop-color="#E9EEFA"/>
<stop offset="1" stop-color="white"/>
</linearGradient>
<linearGradient id="paint2_linear_1655_27494" x1="76.7899" y1="199.241" x2="77.6717" y2="199.241" gradientUnits="userSpaceOnUse">
<stop stop-color="#E9EEFA"/>
<stop offset="1" stop-color="white"/>
</linearGradient>
<linearGradient id="paint3_linear_1655_27494" x1="75.876" y1="198.685" x2="76.7577" y2="198.685" gradientUnits="userSpaceOnUse">
<stop stop-color="#E9EEFA"/>
<stop offset="1" stop-color="white"/>
</linearGradient>
<linearGradient id="paint4_linear_1655_27494" x1="52.4602" y1="200.233" x2="55.2552" y2="200.233" gradientUnits="userSpaceOnUse">
<stop stop-color="#E9EEFA"/>
<stop offset="1" stop-color="white"/>
</linearGradient>
<linearGradient id="paint5_linear_1655_27494" x1="52.978" y1="200.959" x2="55.7731" y2="200.959" gradientUnits="userSpaceOnUse">
<stop stop-color="#E9EEFA"/>
<stop offset="1" stop-color="white"/>
</linearGradient>
<linearGradient id="paint6_linear_1655_27494" x1="53.5392" y1="201.772" x2="56.3343" y2="201.772" gradientUnits="userSpaceOnUse">
<stop stop-color="#E9EEFA"/>
<stop offset="1" stop-color="white"/>
</linearGradient>
<linearGradient id="paint7_linear_1655_27494" x1="51.972" y1="199.544" x2="54.767" y2="199.544" gradientUnits="userSpaceOnUse">
<stop stop-color="#E9EEFA"/>
<stop offset="1" stop-color="white"/>
</linearGradient>
</defs>
</svg>
