<svg width="270" height="235" viewBox="0 0 270 235" fill="none" xmlns="http://www.w3.org/2000/svg">
<g clip-path="url(#clip0_1293_23563)">
<path d="M147.219 226.68C147.004 226.69 146.79 226.633 146.608 226.518C146.426 226.403 146.283 226.235 146.2 226.037C146.117 225.838 146.097 225.619 146.143 225.409C146.188 225.198 146.298 225.007 146.456 224.861L146.529 224.575C146.519 224.553 146.51 224.53 146.5 224.507C146.283 223.995 145.919 223.559 145.454 223.254C144.989 222.948 144.444 222.786 143.887 222.788C143.33 222.79 142.786 222.956 142.324 223.265C141.861 223.574 141.501 224.013 141.287 224.526C140.435 226.574 139.349 228.625 139.082 230.789C138.964 231.746 139.014 232.716 139.229 233.656C137.226 229.301 136.187 224.567 136.18 219.776C136.18 218.573 136.247 217.372 136.381 216.177C136.491 215.197 136.645 214.225 136.842 213.259C137.915 208.02 140.219 203.109 143.566 198.93C145.185 198.049 146.495 196.694 147.318 195.048C147.616 194.456 147.827 193.825 147.944 193.173C147.761 193.196 147.255 190.422 147.393 190.252C147.138 189.867 146.683 189.675 146.405 189.299C145.022 187.43 143.117 187.756 142.122 190.297C139.997 191.366 139.977 193.139 141.28 194.845C142.11 195.93 142.224 197.398 142.952 198.56C142.877 198.656 142.799 198.748 142.724 198.844C141.355 200.599 140.162 202.483 139.162 204.47C139.405 202.244 139.115 199.992 138.315 197.9C137.505 195.95 135.985 194.308 134.647 192.622C133.04 190.597 129.745 191.481 129.461 194.048C129.459 194.073 129.456 194.097 129.453 194.122C129.652 194.234 129.847 194.353 130.037 194.478C130.276 194.637 130.461 194.865 130.569 195.131C130.676 195.397 130.7 195.69 130.638 195.969C130.575 196.249 130.43 196.504 130.22 196.7C130.01 196.896 129.746 197.025 129.461 197.068L129.432 197.073C129.503 197.787 129.628 198.495 129.807 199.19C128.09 205.809 131.796 208.22 137.087 208.329C137.204 208.388 137.318 208.448 137.435 208.505C136.43 211.344 135.8 214.301 135.56 217.303C135.424 219.073 135.432 220.852 135.584 222.622L135.575 222.559C135.192 220.591 134.139 218.816 132.595 217.533C130.302 215.654 127.062 214.963 124.588 213.453C124.325 213.284 124.019 213.194 123.707 213.194C123.394 213.193 123.088 213.281 122.824 213.448C122.561 213.615 122.35 213.854 122.218 214.136C122.086 214.419 122.038 214.733 122.079 215.042C122.082 215.064 122.085 215.086 122.089 215.108C122.458 215.258 122.817 215.43 123.164 215.624C123.363 215.736 123.557 215.855 123.748 215.98C123.987 216.14 124.172 216.367 124.279 216.633C124.386 216.9 124.41 217.192 124.348 217.472C124.286 217.752 124.14 218.006 123.931 218.202C123.721 218.399 123.456 218.527 123.172 218.57L123.143 218.575C123.122 218.578 123.104 218.581 123.083 218.584C123.713 220.084 124.598 221.465 125.698 222.666C126.771 228.445 131.381 228.993 136.312 227.31H136.315C136.856 229.655 137.64 231.937 138.654 234.119H147.01C147.04 234.027 147.067 233.931 147.094 233.839C146.32 233.887 145.544 233.841 144.781 233.701C145.401 232.943 146.021 232.178 146.641 231.42C146.655 231.405 146.668 231.39 146.68 231.375C146.995 230.987 147.312 230.601 147.627 230.213L147.627 230.213C147.644 229.023 147.506 227.835 147.219 226.68Z" fill="#749F09"/>
<path d="M134.837 94.9346C125.422 94.9346 116.219 92.1507 108.39 86.935C100.562 81.7192 94.4609 74.3059 90.8579 65.6324C87.255 56.9589 86.3123 47.4149 88.1491 38.2071C89.9858 28.9994 94.5195 20.5416 101.177 13.9032C107.834 7.26481 116.316 2.74401 125.55 0.912482C134.784 -0.919047 144.356 0.0209589 153.054 3.61363C161.752 7.2063 169.187 13.2903 174.417 21.0962C179.648 28.9021 182.44 38.0794 182.44 47.4675C182.425 60.0522 177.406 72.1174 168.481 81.0161C159.557 89.9148 147.458 94.9204 134.837 94.9346ZM134.837 0.747928C125.57 0.747928 116.512 3.48798 108.807 8.6216C101.102 13.7552 95.0967 21.0518 91.5505 29.5887C88.0043 38.1256 87.0765 47.5193 88.8843 56.5821C90.6921 65.6448 95.1545 73.9694 101.707 80.5033C108.259 87.0371 116.608 91.4867 125.696 93.2894C134.785 95.0921 144.206 94.1669 152.767 90.6308C161.328 87.0947 168.646 81.1065 173.794 73.4235C178.942 65.7405 181.69 56.7078 181.69 47.4675C181.676 35.081 176.735 23.2058 167.952 14.4472C159.168 5.68865 147.259 0.761926 134.837 0.747928Z" fill="#F2F2F2"/>
<path d="M140.057 64.659H129.937C129.44 64.659 128.963 64.4621 128.611 64.1116C128.26 63.7612 128.062 63.2858 128.062 62.7902C128.062 62.2946 128.26 61.8192 128.611 61.4688C128.963 61.1183 129.44 60.9214 129.937 60.9214H140.057C140.554 60.9214 141.031 61.1183 141.382 61.4688C141.734 61.8192 141.931 62.2946 141.931 62.7902C141.931 63.2858 141.734 63.7612 141.382 64.1116C141.031 64.4621 140.554 64.659 140.057 64.659Z" fill="#E6E6E6"/>
<path d="M142.384 118.9H127.614C126.889 118.9 126.193 118.612 125.68 118.101C125.167 117.589 124.879 116.895 124.879 116.172C124.879 115.449 125.167 114.755 125.68 114.244C126.193 113.732 126.889 113.445 127.614 113.445H142.384C143.11 113.445 143.805 113.732 144.318 114.244C144.831 114.755 145.119 115.449 145.119 116.172C145.119 116.895 144.831 117.589 144.318 118.101C143.805 118.612 143.11 118.9 142.384 118.9Z" fill="#6C63FF"/>
<path d="M184.371 107.465H85.6328C84.7531 107.464 83.9096 107.115 83.2875 106.495C82.6654 105.874 82.3155 105.033 82.3145 104.156V74.8032C82.3155 73.926 82.6654 73.0849 83.2875 72.4646C83.9096 71.8443 84.7531 71.4953 85.6328 71.4943H184.371C185.251 71.4953 186.094 71.8443 186.716 72.4646C187.338 73.0849 187.688 73.926 187.689 74.8032V104.156C187.688 105.033 187.338 105.874 186.716 106.495C186.094 107.115 185.251 107.464 184.371 107.465Z" fill="#E6E6E6"/>
<path d="M174.777 105.233H87.8711C86.9913 105.232 86.1479 104.883 85.5258 104.263C84.9037 103.643 84.5538 102.802 84.5527 101.924V77.0372C84.5538 76.16 84.9037 75.3189 85.5258 74.6986C86.1479 74.0783 86.9913 73.7293 87.8711 73.7283H182.132C183.012 73.7293 183.855 74.0783 184.477 74.6986C185.099 75.3189 185.449 76.16 185.45 77.0372V94.59C185.447 97.4118 184.322 100.117 182.321 102.112C180.32 104.108 177.607 105.23 174.777 105.233Z" fill="white"/>
<path d="M144.795 82.5818H105.11C104.883 82.5818 104.665 82.4919 104.505 82.3319C104.344 82.1718 104.254 81.9548 104.254 81.7284C104.254 81.5021 104.344 81.2851 104.505 81.125C104.665 80.965 104.883 80.8751 105.11 80.8751H144.795C145.022 80.8751 145.24 80.965 145.4 81.125C145.56 81.2851 145.651 81.5021 145.651 81.7284C145.651 81.9548 145.56 82.1718 145.4 82.3319C145.24 82.4919 145.022 82.5818 144.795 82.5818Z" fill="#6C63FF"/>
<path d="M164.884 86.0689H105.11C104.883 86.0689 104.665 85.979 104.505 85.8189C104.344 85.6589 104.254 85.4418 104.254 85.2155C104.254 84.9892 104.344 84.7721 104.505 84.6121C104.665 84.452 104.883 84.3621 105.11 84.3621H164.884C165.111 84.3621 165.329 84.452 165.489 84.6121C165.65 84.7721 165.74 84.9892 165.74 85.2155C165.74 85.4418 165.65 85.6589 165.489 85.8189C165.329 85.979 165.111 86.0689 164.884 86.0689Z" fill="#E6E6E6"/>
<path d="M164.886 90.0758H105.112C104.999 90.0761 104.888 90.0542 104.783 90.0114C104.679 89.9686 104.585 89.9058 104.505 89.8265C104.426 89.7473 104.362 89.6531 104.319 89.5495C104.276 89.4458 104.254 89.3347 104.254 89.2225C104.254 89.1103 104.276 88.9991 104.319 88.8955C104.362 88.7918 104.426 88.6977 104.505 88.6184C104.585 88.5391 104.679 88.4763 104.783 88.4335C104.888 88.3908 104.999 88.3689 105.112 88.3691H164.886C165.113 88.3696 165.33 88.4597 165.49 88.6197C165.65 88.7797 165.74 88.9965 165.74 89.2225C165.74 89.4485 165.65 89.6653 165.49 89.8253C165.33 89.9853 165.113 90.0754 164.886 90.0758Z" fill="#E6E6E6"/>
<path d="M164.886 94.0848H105.112C104.999 94.0851 104.888 94.0632 104.783 94.0204C104.679 93.9776 104.585 93.9148 104.505 93.8355C104.426 93.7563 104.362 93.6621 104.319 93.5585C104.276 93.4548 104.254 93.3437 104.254 93.2315C104.254 93.1193 104.276 93.0081 104.319 92.9045C104.362 92.8008 104.426 92.7067 104.505 92.6274C104.585 92.5481 104.679 92.4853 104.783 92.4425C104.888 92.3998 104.999 92.3779 105.112 92.3781H164.886C165.113 92.3786 165.33 92.4687 165.49 92.6287C165.65 92.7887 165.74 93.0055 165.74 93.2315C165.74 93.4575 165.65 93.6743 165.49 93.8343C165.33 93.9943 165.113 94.0844 164.886 94.0848Z" fill="#E6E6E6"/>
<path d="M164.886 98.0878H105.112C104.999 98.088 104.888 98.0661 104.783 98.0233C104.679 97.9805 104.585 97.9177 104.505 97.8384C104.426 97.7592 104.362 97.665 104.319 97.5614C104.276 97.4577 104.254 97.3466 104.254 97.2344C104.254 97.1222 104.276 97.0111 104.319 96.9074C104.362 96.8038 104.426 96.7096 104.505 96.6303C104.585 96.5511 104.679 96.4882 104.783 96.4455C104.888 96.4027 104.999 96.3808 105.112 96.381H164.886C165.113 96.3815 165.33 96.4716 165.49 96.6316C165.65 96.7916 165.74 97.0084 165.74 97.2344C165.74 97.4604 165.65 97.6772 165.49 97.8372C165.33 97.9972 165.113 98.0873 164.886 98.0878Z" fill="#E6E6E6"/>
<path d="M217.404 230.172L213.393 230.172L211.484 214.744L217.405 214.745L217.404 230.172Z" fill="#A0616A"/>
<path d="M217.546 234.343L205.211 234.343V234.187C205.211 232.917 205.717 231.7 206.617 230.802C207.518 229.904 208.739 229.4 210.012 229.4L212.265 227.695L216.469 229.4L217.546 229.4L217.546 234.343Z" fill="#2F2E41"/>
<path d="M250.2 225.051L246.606 226.826L238.027 213.847L243.332 211.227L250.2 225.051Z" fill="#A0616A"/>
<path d="M252.182 228.727L241.129 234.187L241.06 234.048C240.494 232.91 240.405 231.595 240.812 230.392C241.22 229.189 242.089 228.196 243.23 227.633L244.49 225.108L249.016 224.774L249.981 224.298L252.182 228.727Z" fill="#2F2E41"/>
<path d="M205.524 147.247C205.524 147.247 200.958 153.594 204.254 164.559C207.55 175.525 205.699 185.328 206.624 187.294C207.55 189.26 209.412 191.127 207.873 192.617C206.334 194.108 205.524 195.319 206.739 195.723C207.955 196.127 212.006 224.406 212.006 224.406L218.893 224.809C218.893 224.809 221.388 211.674 218.723 201.073C218.723 201.073 219.308 193.377 218.088 191.116C216.867 188.856 217.107 190.895 217.19 188.057C217.236 186.005 217.536 183.967 218.083 181.988C218.488 180.372 218.723 164.086 218.723 164.086L225.427 185.699C225.696 186.443 225.797 187.238 225.723 188.026C225.557 189.139 225.555 190.803 225.759 191.385C225.962 191.967 226.188 192.089 226.075 193.24C225.962 194.391 239.456 218.648 239.456 218.648L246.16 214.162L239.555 192.896C238.899 192.171 238.353 191.354 237.934 190.472C237.124 188.856 237.092 188.767 237.513 187.599C237.934 186.432 237.934 184.158 237.934 183.477C237.934 182.796 238.355 151.894 233.08 147.348C227.806 142.803 205.524 147.247 205.524 147.247Z" fill="#2F2E41"/>
<path d="M230.29 98.0805L228.918 94.1849L225.169 90.4473L218.256 89.6242L213.755 92.5749L209.586 96.6727L203.43 147.632C203.43 147.632 232.51 158.812 236.32 149.429L230.29 98.0805Z" fill="#CCCCCC"/>
<path d="M232.647 98.0812L228.608 94.0536C228.608 94.0536 226.679 119.795 227.501 121.605C228.323 123.416 229.291 122.954 228.244 123.932C227.198 124.911 226.074 123.94 227.198 125.733C227.861 126.739 228.186 127.929 228.127 129.131C228.127 129.131 233.945 165.65 237.318 165.65C240.692 165.65 242.804 164.666 242.685 163.663C242.566 162.66 240.576 160.164 241.196 159.543C241.816 158.923 243.345 159.391 241.831 158.223C240.317 157.054 239.567 157.428 239.942 155.933C240.317 154.438 237.452 135.057 237.452 135.057L237.172 102.684L232.647 98.0812Z" fill="#3F3D56"/>
<path d="M213.757 92.5751L208.526 93.3131L202.307 95.6801C202.307 95.6801 205.147 127.63 204.554 128.699C203.961 129.769 202.908 129.101 203.809 130.183C204.711 131.264 205.522 130.784 204.554 131.772C203.586 132.759 201.957 131.508 202.959 133.255C203.961 135.002 199.133 159.05 200.433 160.34C201.733 161.63 205.083 160.827 205.084 159.875C204.982 158.848 204.593 157.871 203.961 157.053C203.78 156.846 203.68 156.581 203.68 156.306C203.68 156.031 203.78 155.765 203.961 155.558C204.492 155.049 204.857 154.392 205.008 153.672C205.086 152.942 205.658 152.044 205.934 151.372C206.21 150.7 213.16 105.179 213.16 105.179L213.757 92.5751Z" fill="#3F3D56"/>
<path d="M191.438 117.732L193.798 116.504C190.852 113.854 183.544 109.52 183.544 109.52L170.947 101.052C170.763 100.619 170.467 100.242 170.09 99.9593C169.713 99.6765 169.268 99.4977 168.8 99.4409C168.332 99.3841 167.857 99.4513 167.423 99.6357C166.989 99.8201 166.612 100.115 166.329 100.491C166.045 100.867 165.867 101.311 165.81 101.778C165.754 102.245 165.822 102.719 166.007 103.151C166.193 103.584 166.489 103.96 166.867 104.242C167.244 104.523 167.69 104.701 168.158 104.757L182.274 117.368L191.438 117.732Z" fill="#A0616A"/>
<path d="M208.675 108.389L208.701 98.0609L202.947 95.3168L188.435 110.632L187.31 109.884H184.686L178.314 117.359C178.314 117.359 181.708 119.365 183.385 118.549C185.061 117.733 184.904 118.905 184.904 118.905C185.152 119.217 185.499 119.437 185.888 119.528C186.277 119.619 186.686 119.577 187.048 119.408C188.435 118.854 191.058 120.349 191.058 120.349L208.675 108.389Z" fill="#3F3D56"/>
<path d="M222.467 87.2515C227.101 87.2515 230.858 83.5055 230.858 78.8845C230.858 74.2635 227.101 70.5174 222.467 70.5174C217.833 70.5174 214.076 74.2635 214.076 78.8845C214.076 83.5055 217.833 87.2515 222.467 87.2515Z" fill="#A0616A"/>
<path d="M232.598 81.0096C231.806 82.5554 230.743 83.9474 229.459 85.1198C229.09 85.5376 228.62 85.8538 228.093 86.038C227.829 86.124 227.542 86.1148 227.284 86.0119C227.025 85.9089 226.811 85.7189 226.678 85.4747L226.523 85.2628C226.973 85.1257 227.397 84.9165 227.779 84.6434C227.969 84.5058 228.123 84.325 228.229 84.1161C228.334 83.9072 228.389 83.6761 228.387 83.4421C228.373 83.2082 228.269 82.9888 228.096 82.8298C227.924 82.6708 227.696 82.5847 227.461 82.5896C226.937 82.6517 226.469 83.2621 225.999 83.0268C225.62 82.8345 225.674 82.2838 225.783 81.8681C226.367 79.6985 226.123 76.3354 225.282 76.2179C224.446 76.0482 223.65 75.7233 222.935 75.26C222.219 74.796 221.42 74.4753 220.581 74.3157C220.52 74.3078 220.459 74.3035 220.394 74.2982C220.37 73.8509 220.292 73.4081 220.161 72.9794C220.07 73.432 219.931 73.8737 219.746 74.297C219.019 74.3957 218.285 74.4327 217.553 74.4075C216.771 74.3171 214.526 76.132 214.51 75.8823C214.486 75.4349 214.408 74.9921 214.277 74.5635C214.186 75.0161 214.047 75.4578 213.862 75.881C213.853 75.8983 213.849 75.9129 213.841 75.9302C213.602 75.3499 213.534 74.7011 213.54 75.1856C213.039 72.1024 214.033 70.246 216.57 68.4177C217.077 68.0144 217.678 67.7461 218.318 67.6378C218.637 67.587 218.964 67.6189 219.267 67.7307C219.57 67.8424 219.84 68.0301 220.049 68.2757C221.023 67.7618 222.118 67.517 223.219 67.5668C224.32 67.6165 225.388 67.959 226.311 68.5587C228.137 69.7781 229.577 70.5894 229.334 72.7699C231.064 72.936 232.525 74.3216 233.072 75.9637C233.614 77.6085 233.333 79.444 232.598 81.0096Z" fill="#2F2E41"/>
<path d="M243.312 124.607L237.292 123.747C235.256 127.142 234.533 136.178 234.533 136.178L228.641 150.141C228.251 150.405 227.938 150.767 227.732 151.191C227.527 151.614 227.437 152.084 227.472 152.553C227.507 153.022 227.665 153.474 227.931 153.863C228.196 154.251 228.559 154.563 228.984 154.768C229.409 154.972 229.881 155.061 230.351 155.025C230.821 154.99 231.274 154.832 231.664 154.567C232.053 154.302 232.366 153.939 232.57 153.515C232.774 153.091 232.863 152.621 232.827 152.152L242.5 135.899L243.312 124.607Z" fill="#A0616A"/>
<path d="M229.449 103.792L232 100.288L237.172 102.685L241.474 119.233C241.474 119.233 244.616 121.271 243.946 122.709C243.276 124.147 242.919 125.308 243.612 126.132C244.305 126.956 246.323 127.016 244.82 128.36C243.317 129.703 244.603 133.214 244.603 133.214L243.163 136.419L234.167 136.045L229.449 103.792Z" fill="#3F3D56"/>
<path d="M21.3887 155.115C21.9565 154.67 22.3281 154.023 22.4243 153.309C22.5206 152.596 22.3339 151.874 21.9041 151.296C21.8148 151.179 21.7161 151.071 21.6089 150.971L25.4501 142.126L21.6351 138.604L17.6868 151.287C17.3058 151.762 17.0933 152.35 17.0825 152.958C17.0716 153.567 17.2631 154.162 17.6269 154.65C17.8367 154.926 18.0989 155.158 18.3985 155.333C18.6982 155.508 19.0295 155.622 19.3734 155.67C19.7174 155.717 20.0674 155.696 20.4033 155.609C20.7393 155.521 21.0546 155.368 21.3314 155.159C21.3507 155.145 21.3698 155.13 21.3887 155.115Z" fill="#FFB6B6"/>
<path d="M43.7059 97.738C43.7059 97.738 40.8625 92.3479 34.2664 98.1688C27.6702 103.99 19.8757 133.126 20.0271 134.221C20.1784 135.317 21.7906 134.883 19.7514 136.46C17.7122 138.038 16.5847 136.621 17.7122 138.038C18.8397 139.455 21.3611 140.956 19.1286 141.166C16.8961 141.377 25.0803 144.888 25.0803 144.888C25.0803 144.888 26.3676 144.58 26.7625 141.618C26.9843 139.955 26.2327 139.01 27.5558 138.733C28.879 138.456 27.6388 135.447 27.8292 134.974C28.0197 134.5 38.585 113.826 38.585 113.826L43.7059 97.738Z" fill="#6C63FF"/>
<path d="M56.6925 229.375L61.4685 229.375L63.7411 211.003L56.6914 211.004L56.6925 229.375Z" fill="#FFB6B6"/>
<path d="M56.5256 234.344L71.2142 234.344V234.159C71.2141 232.647 70.6118 231.197 69.5396 230.127C68.4674 229.058 67.0133 228.458 65.4971 228.458H65.4967L62.8136 226.428L57.8076 228.458L56.5254 228.458L56.5256 234.344Z" fill="#2F2E41"/>
<path d="M23.2109 220.616L27.1181 223.355L39.575 209.63L33.8076 205.587L23.2109 220.616Z" fill="#FFB6B6"/>
<path d="M20.2129 224.582L32.2287 233.006L32.3355 232.855C33.2076 231.618 33.5512 230.086 33.2909 228.597C33.0306 227.107 32.1875 225.782 30.9473 224.912L29.923 221.713L24.6571 220.502L23.6082 219.767L20.2129 224.582Z" fill="#2F2E41"/>
<path d="M37.664 137.976L37.2672 138.821C34.6583 144.379 33.9913 150.591 35.0051 156.644C35.0805 156.88 35.0661 157.135 34.9647 157.362C34.3359 158.097 35.3224 161.292 35.8878 163.076L36.3975 166.23C36.3975 166.23 35.5524 169.16 36.836 168.945C38.1196 168.73 36.2082 171.855 37.4326 172.638L40.6088 192.298L27.3574 214.076L32.2653 221.173L51.897 195.969L52.1424 173.212L55.0872 191.564L55.3326 220.439L64.2613 219.492L67.5326 191.498L64.4122 152.784L59.5043 135.998L37.664 137.976Z" fill="#2F2E41"/>
<path d="M43.7966 87.573L51.02 87.916L54.4741 93.8663C56.0059 94.3245 57.4149 95.1199 58.5971 96.1938C59.7793 97.2676 60.7046 98.5925 61.3046 100.071L63.5538 105.612L60.9951 137.649C60.9951 137.649 60.4822 139.587 61.4266 139.304C62.371 139.021 61.986 141.45 61.986 141.45L65.4667 154.799L33.8215 152.055L35.5787 137.912C35.5787 137.912 33.1357 137.99 34.8534 136.278C36.5712 134.565 37.4066 135.11 35.7564 133.085C34.1063 131.06 33.8609 129.592 33.8609 129.592L33.1247 119.559L31.911 105.44C31.7185 103.2 32.0873 100.947 32.9846 98.8838C33.8818 96.8208 35.2792 95.0125 37.051 93.6216L43.7966 87.573Z" fill="#6C63FF"/>
<path d="M47.5394 85.9227C52.5986 85.9227 56.6999 81.8331 56.6999 76.7883C56.6999 71.7435 52.5986 67.6539 47.5394 67.6539C42.4802 67.6539 38.3789 71.7435 38.3789 76.7883C38.3789 81.8331 42.4802 85.9227 47.5394 85.9227Z" fill="#FFB6B6"/>
<path d="M43.999 85.1722C46.6277 85.0862 46.8665 84.3939 49.4952 84.3078C50.3322 84.2805 51.3199 84.1661 51.7246 83.435C51.8424 83.1611 51.8948 82.8636 51.8778 82.5661C51.8608 82.2685 51.7748 81.979 51.6265 81.7202C51.3266 81.2065 51.0562 80.6761 50.8167 80.1318C50.6724 79.7048 50.6346 79.2493 50.7064 78.8045C50.7783 78.3597 50.9577 77.9391 51.2291 77.579C51.5006 77.2188 51.8559 76.93 52.2643 76.7375C52.6728 76.545 53.1221 76.4545 53.5735 76.474C54.3734 76.5085 55.1247 76.8836 55.9225 76.9521C57.0165 77.0462 59.4358 73.4442 58.9321 72.4712C58.4417 71.5241 57.455 70.8095 57.2999 69.7549C57.1985 69.0651 57.484 68.3798 57.523 67.6838C57.5809 66.6517 54.9573 68.9788 55.4378 68.0628C56.6164 65.8161 45.5097 63.0307 43.6812 65.845C42.9978 66.8968 41.7799 66.825 40.6944 67.4567C39.9829 67.8707 38.1863 69.299 37.7779 70.1893C37.4026 71.0977 37.2253 72.0752 37.2577 73.0572C37.2412 77.6238 37.939 81.8244 41.633 84.5238" fill="#2F2E41"/>
<path d="M70.0091 154.722C69.4689 154.245 69.1368 153.576 69.0834 152.858C69.03 152.141 69.2596 151.431 69.7233 150.879C69.8193 150.768 69.9243 150.666 70.0373 150.573L66.7324 141.515L70.7516 138.226L73.9335 151.122C74.2854 151.619 74.4623 152.218 74.4367 152.826C74.4111 153.434 74.1844 154.016 73.7919 154.482C73.5661 154.745 73.2904 154.961 72.9808 155.118C72.6712 155.275 72.3337 155.369 71.9875 155.396C71.6413 155.423 71.2932 155.381 70.9631 155.274C70.633 155.166 70.3274 154.995 70.0636 154.77C70.0452 154.754 70.0271 154.738 70.0091 154.722Z" fill="#FFB6B6"/>
<path d="M51.168 96.1178C51.168 96.1178 54.329 90.9066 60.5649 97.1097C66.8008 103.313 72.8372 132.861 72.6205 133.946C72.4038 135.03 70.8204 134.502 72.7616 136.197C74.7028 137.893 75.9131 136.545 74.7028 137.893C73.4924 139.24 70.8857 140.589 73.1016 140.932C75.3175 141.275 66.9377 144.293 66.9377 144.293C66.9377 144.293 65.6712 143.908 65.4542 140.928C65.3324 139.255 66.1393 138.356 64.835 138.001C63.5308 137.646 64.9489 134.716 64.7871 134.232C64.6253 133.749 55.3166 112.482 55.3166 112.482L51.168 96.1178Z" fill="#6C63FF"/>
<path d="M142.319 46.4486C142.319 47.9274 141.88 49.3731 141.056 50.6029C140.233 51.8327 139.062 52.7913 137.692 53.3576C136.322 53.9239 134.814 54.0723 133.36 53.7842C131.905 53.496 130.569 52.7842 129.52 51.7388C128.471 50.6934 127.756 49.3613 127.467 47.911C127.177 46.4607 127.325 44.9572 127.892 43.5909C128.46 42.2245 129.42 41.0565 130.653 40.2346C131.886 39.4127 133.336 38.9738 134.819 38.9735C135.804 38.9721 136.779 39.1646 137.69 39.5397C138.6 39.9149 139.427 40.4654 140.124 41.1597C140.82 41.8541 141.373 42.6786 141.75 43.5861C142.126 44.4937 142.32 45.4664 142.319 46.4486Z" fill="#6C63FF"/>
<path d="M134.981 47.5306C136.43 47.5306 137.605 46.3593 137.605 44.9143C137.605 43.4694 136.43 42.298 134.981 42.298C133.532 42.298 132.357 43.4694 132.357 44.9143C132.357 46.3593 133.532 47.5306 134.981 47.5306Z" fill="white"/>
<path d="M137.792 48.4639H132.169C131.821 48.4642 131.488 48.6022 131.242 48.8474C130.996 49.0927 130.858 49.4252 130.857 49.772C130.937 50.8924 131.113 52.004 131.382 53.0947C132.51 53.6741 133.766 53.9585 135.034 53.9212C136.302 53.884 137.54 53.5263 138.631 52.8817C138.872 51.8594 139.03 50.8195 139.104 49.772C139.103 49.4252 138.965 49.0927 138.719 48.8474C138.473 48.6022 138.139 48.4642 137.792 48.4639Z" fill="white"/>
<path d="M0.500002 234.554C0.499827 234.612 0.511248 234.67 0.533603 234.724C0.555958 234.778 0.588805 234.827 0.63026 234.868C0.671716 234.91 0.720963 234.943 0.77516 234.965C0.829358 234.987 0.887441 234.999 0.946066 234.998H269.054C269.172 234.998 269.286 234.952 269.369 234.868C269.453 234.785 269.5 234.672 269.5 234.554C269.5 234.436 269.453 234.322 269.369 234.239C269.286 234.156 269.172 234.109 269.054 234.109H0.946066C0.887441 234.109 0.829357 234.12 0.77516 234.142C0.720964 234.165 0.671722 234.197 0.630266 234.239C0.588811 234.28 0.555959 234.329 0.533603 234.383C0.511247 234.437 0.499829 234.495 0.500002 234.554Z" fill="#CCCCCC"/>
</g>
<defs>
<clipPath id="clip0_1293_23563">
<rect width="269" height="235" fill="white" transform="translate(0.5)"/>
</clipPath>
</defs>
</svg>
