<svg width="76" height="47" viewBox="0 0 76 47" fill="none" xmlns="http://www.w3.org/2000/svg">
<path d="M33.095 26.6289H15.7656V26.7288H33.095V26.6289Z" fill="#EBEBEB"/>
<path d="M39.2114 26.6289H36.6719V26.7288H39.2114V26.6289Z" fill="#EBEBEB"/>
<path d="M49.6939 13.5546L48.7824 11.145C36.5994 11.7068 35.236 7.13474 35.1087 5.6515C34.879 2.94472 37.3261 0.475155 40.5697 0.158032C45.0344 -0.298925 48.0109 3.70132 49.5291 6.33819C51.8263 3.56898 56.271 1.2817 59.632 1.2817C62.199 1.2817 64.0243 2.48527 64.6261 4.93237C65.1255 6.89503 64.4213 8.11109 63.7496 8.86519C60.918 12.0764 52.7452 11.4421 50.2881 11.1899L49.6939 13.5546ZM51.1371 8.69789C54.8377 9.0225 60.2164 8.78278 61.7296 7.09479C61.9793 6.82012 62.229 6.54045 62.0017 5.66899C61.6946 4.42047 60.9605 4.02094 59.632 4.02094C56.6631 4.00346 52.4905 6.53296 51.1371 8.69789ZM41.2589 2.84484C41.124 2.84484 40.9892 2.85233 40.8568 2.86731C39.019 3.05209 37.7431 4.37802 37.8329 5.43926C37.9378 6.64533 40.1802 8.67042 47.7112 8.48065C46.7648 6.60288 44.5 2.84484 41.2589 2.84484Z" fill="#FBE493"/>
<path d="M49.719 13.9719L48.6977 11.2751C36.4697 11.8194 35.1089 7.12 34.984 5.66423C34.7493 2.88503 37.2488 0.358034 40.5574 0.035917C44.7674 -0.391076 47.7588 3.06981 49.5467 6.12368C51.9464 3.3295 56.3386 1.15958 59.6297 1.15958C62.334 1.15958 64.1519 2.4905 64.7462 4.90513C65.1507 6.49075 64.8535 7.81418 63.8422 8.95033C61.1305 12.0267 53.6119 11.6496 50.3832 11.3275L49.719 13.9744V13.9719ZM48.8675 11.0179L49.6691 13.1403L50.1934 11.0578L50.3008 11.0678C53.4271 11.3874 60.9881 11.8094 63.655 8.78552C64.6088 7.71429 64.886 6.46577 64.5039 4.96506C63.9321 2.63782 62.2466 1.40929 59.6297 1.40929C56.3486 1.40929 51.9539 3.61167 49.6216 6.42083L49.5068 6.55817L49.4169 6.40335C47.6739 3.37695 44.7274 -0.136378 40.5774 0.28562C37.4036 0.595252 35.004 2.99989 35.2287 5.64425C35.3486 7.04758 36.682 11.5822 48.7726 11.0229L48.8625 11.0179H48.8675ZM54.0638 8.95282C53.07 8.95282 52.0712 8.90788 51.1248 8.82548L50.9226 8.80799L51.03 8.6357C52.3684 6.49574 56.5758 3.89883 59.5998 3.89883C61.073 3.88884 61.8146 4.39574 62.1218 5.64176C62.3665 6.58064 62.0768 6.90026 61.8196 7.18242C60.6835 8.44842 57.3949 8.95282 54.0613 8.95282H54.0638ZM51.3571 8.59325C55.4971 8.92785 60.3039 8.49836 61.6373 7.01263C61.8721 6.75543 62.0918 6.51072 61.882 5.70169C61.6024 4.56803 60.9931 4.14603 59.6322 4.14603C56.7706 4.13604 52.7779 6.5332 51.3571 8.59075V8.59325ZM46.7425 8.62072C39.8607 8.62072 37.8156 6.66055 37.7108 5.45198C37.6159 4.33331 38.9368 2.93747 40.847 2.7452C40.9844 2.73022 41.1242 2.72273 41.2616 2.72273C44.4702 2.72273 46.7525 6.29598 47.8263 8.42845L47.9161 8.60324L47.7189 8.60823C47.3843 8.61573 47.0597 8.62072 46.745 8.62072H46.7425ZM41.2616 2.97243C41.1317 2.97243 41.0019 2.97992 40.872 2.9949C39.1016 3.17219 37.8731 4.4282 37.958 5.43201C38.0529 6.51822 40.1778 8.50585 47.5091 8.36352C46.4279 6.26851 44.248 2.97243 41.2591 2.97243H41.2616Z" fill="#002346"/>
<path d="M75.8719 9.73438H22.9922V46.0587H75.8719V9.73438Z" fill="#F69074"/>
<path d="M75.9966 46.1863H22.8672V9.6123H75.9966V46.1863ZM23.1169 45.9366H75.7469V9.86201H23.1169V45.9366Z" fill="#002346"/>
<path d="M62.5318 9.73438H58.2344V46.0587H62.5318V9.73438Z" fill="#002346"/>
<path d="M44.0022 9.73438H22.9922V46.0587H44.0022V9.73438Z" fill="#F69074"/>
<path d="M44.1269 46.1863H22.8672V9.6123H44.1269V46.1863ZM23.1169 45.9366H43.8772V9.86201H23.1169V45.9366Z" fill="#002346"/>
<path d="M33.5756 9.73438H30.4219V46.0587H33.5756V9.73438Z" fill="#002346"/>
<path d="M17.42 22.474C15.7545 22.6438 10.231 23.0508 8.3158 20.8859C7.65908 20.1667 7.43435 19.1504 7.729 18.2215C8.13352 16.5685 9.37954 15.7495 11.1175 15.7545C13.3873 15.7595 16.3962 17.3176 17.9319 19.1929C18.9607 17.41 20.9758 14.7032 23.9972 15.0253C26.1921 15.2501 27.8451 16.9231 27.6853 18.7559C27.5979 19.7422 26.6665 22.8461 18.4238 22.449L17.8095 24.0746L17.4175 22.479L17.42 22.474ZM11.1175 17.5623C10.221 17.5623 9.72662 17.852 9.51187 18.691C9.37204 19.0231 9.44446 19.4051 9.69416 19.6623C10.713 20.8185 14.3536 20.9783 16.8607 20.7635C15.9442 19.2928 13.1226 17.5673 11.115 17.5648L11.1175 17.5623ZM19.1854 20.6387C24.2818 20.776 25.805 19.4026 25.8774 18.5911C25.9399 17.8745 25.0759 16.9855 23.8324 16.8382C23.7375 16.8307 23.6426 16.8307 23.5477 16.8382C21.3578 16.8157 19.8196 19.3577 19.1854 20.6262V20.6387Z" fill="#FBE493"/>
<path d="M17.7847 24.4914L17.3228 22.6086C15.1179 22.8234 10.0664 23.0581 8.22109 20.9681C7.5369 20.219 7.30218 19.1503 7.60931 18.1814C8.01134 16.5359 9.25486 15.6269 11.1052 15.6269H11.1152C13.34 15.6319 16.2865 17.0902 17.9121 18.9755C19.635 16.0664 21.74 14.6606 24.0098 14.8978C26.2696 15.1275 27.9726 16.863 27.8103 18.7632C27.7229 19.7545 26.794 22.9482 18.5089 22.5737L17.7847 24.4889V24.4914ZM17.515 22.339L17.8372 23.6499L18.3416 22.3165L18.4315 22.3215C26.5768 22.711 27.4807 19.6821 27.5631 18.7432C27.7154 16.9778 26.1123 15.3648 23.9874 15.1475C21.2032 14.8504 19.218 17.2176 18.0419 19.2551L17.952 19.4124L17.8372 19.2726C16.3065 17.4048 13.2926 15.8841 11.1176 15.8791H11.1077C9.38221 15.8791 8.22609 16.7206 7.85153 18.2513C7.56937 19.1428 7.78411 20.1191 8.40837 20.8033C10.2087 22.8409 15.3027 22.5637 17.4077 22.3515L17.515 22.3415V22.339ZM14.9581 20.9631C12.9155 20.9631 10.446 20.7034 9.59946 19.7446C9.31729 19.4549 9.23489 19.0204 9.3947 18.6409C9.60695 17.8019 10.1213 17.4373 11.1077 17.4373H11.1152C13.2326 17.4423 16.0468 19.2227 16.9657 20.6959L17.0731 20.8682L16.8708 20.8857C16.3464 20.9306 15.6772 20.9631 14.9581 20.9631ZM11.1077 17.687C10.2337 17.687 9.82169 17.9767 9.63192 18.7208C9.50457 19.0254 9.56699 19.3525 9.78423 19.5748C10.7006 20.616 13.9343 20.8607 16.6386 20.656C15.6523 19.2801 13.0204 17.692 11.1152 17.6895H11.1077V17.687ZM19.8772 20.7733C19.6525 20.7733 19.4203 20.7708 19.1781 20.7633H19.0557V20.596L19.0682 20.5711C19.7898 19.1278 21.3255 16.7156 23.5129 16.7156C23.5229 16.7156 23.5329 16.7156 23.5429 16.7156C23.6353 16.7082 23.7376 16.7082 23.8375 16.7156C25.1934 16.8755 26.0624 17.8393 25.995 18.6034C25.9226 19.4324 24.5342 20.7733 19.8747 20.7733H19.8772ZM19.3778 20.5186C24.267 20.611 25.6853 19.3001 25.7503 18.5809C25.8052 17.9317 24.9912 17.1027 23.8151 16.9629C23.7327 16.9554 23.6428 16.9554 23.5554 16.9629H23.5279C21.5428 16.9629 20.1045 19.1153 19.3778 20.5186Z" fill="#002346"/>
<path d="M35.9 21.4834H0.125V46.0592H35.9V21.4834Z" fill="#FBE493"/>
<path d="M36.0247 46.1839H0V21.3584H36.0247V46.1839ZM0.249703 45.9342H35.775V21.6081H0.249703V45.9342Z" fill="#002346"/>
<path d="M35.8953 21.4834H21.6797V46.0592H35.8953V21.4834Z" fill="#FBE493"/>
<path d="M36.02 46.1839H21.5547V21.3584H36.02V46.1839ZM21.8044 45.9342H35.7703V21.6081H21.8044V45.9342Z" fill="#002346"/>
<path d="M12.0525 21.4824H9.14844V46.0582H12.0525V21.4824Z" fill="#002346"/>
<path d="M30.8771 21.4824H28.7422V46.0582H30.8771V21.4824Z" fill="#002346"/>
</svg>
