<svg width="45" height="61" viewBox="0 0 45 61" fill="none" xmlns="http://www.w3.org/2000/svg">
<path d="M15.0742 6.50313C15.0742 6.50313 17.5203 11.5377 19.2627 17.8498C20.3099 21.6363 20.846 25.5483 20.8921 29.4772L20.9968 38.2186" stroke="#002346" stroke-width="0.418852" stroke-linecap="round" stroke-linejoin="round"/>
<path d="M15.962 8.42161C15.962 8.42161 10.429 5.63206 10.1903 2.41946C10.1191 1.44773 10.9316 0.681232 11.8992 0.815265C13.2814 1.01213 15.2542 2.4027 15.962 8.42161Z" fill="#7CCF92" stroke="#002346" stroke-width="0.418852" stroke-miterlimit="10"/>
<path d="M16.7086 10.1555C16.7086 10.1555 16.0133 5.64031 17.4583 3.95234C18.0782 3.22772 19.272 3.55442 19.4981 4.48427C19.762 5.56491 19.4898 7.42043 16.7044 10.1555H16.7086Z" fill="#7CCF92" stroke="#002346" stroke-width="0.418852" stroke-miterlimit="10"/>
<path d="M16.7075 10.1554C16.7075 10.1554 12.7284 6.85481 10.408 7.87681C9.74617 8.17001 9.47393 8.99934 9.86765 9.60667C10.4289 10.4611 12.0541 11.3282 16.7033 10.1554H16.7075Z" fill="#7CCF92" stroke="#002346" stroke-width="0.418852" stroke-miterlimit="10"/>
<path d="M18.3578 14.9428C18.3578 14.9428 18.5086 9.50196 21.0719 8.21189C21.7086 7.89356 22.4919 8.29148 22.5966 8.99516C22.7515 10.0381 22.1526 11.9229 18.3578 14.9428Z" fill="#7CCF92" stroke="#002346" stroke-width="0.418852" stroke-miterlimit="10"/>
<path d="M18.3585 14.9431C18.3585 14.9431 13.3448 10.2603 11.0328 12.5682C11.0328 12.5682 9.87677 15.7473 18.3585 14.9431Z" fill="#7CCF92" stroke="#002346" stroke-width="0.418852" stroke-miterlimit="10"/>
<path d="M19.4304 18.4114C19.4304 18.4114 20.0587 13.6365 22.4587 12.6941C23.2671 12.38 24.1048 13.0753 23.9414 13.9255C23.7404 14.9685 22.7687 16.5433 19.4304 18.4114Z" fill="#7CCF92" stroke="#002346" stroke-width="0.418852" stroke-miterlimit="10"/>
<path d="M19.4299 18.4108C19.4299 18.4108 15.9995 15.1773 13.8131 16.2663C13.2016 16.5721 12.8916 17.3051 13.1723 17.9292C13.5618 18.7962 14.9273 19.7135 19.4299 18.4108Z" fill="#7CCF92" stroke="#002346" stroke-width="0.418852" stroke-miterlimit="10"/>
<path d="M20.1719 21.9588C20.1719 21.9588 21.2902 17.7284 24.0756 17.4812C24.4274 17.4519 24.7499 17.7032 24.7792 18.0551C24.8463 18.876 24.3185 20.4509 20.1719 21.9588Z" fill="#7CCF92" stroke="#002346" stroke-width="0.418852" stroke-miterlimit="10"/>
<path d="M20.1726 21.9592C20.1726 21.9592 17.5548 20.2 15.5401 20.3801C14.2123 20.4974 14.183 22.4325 15.5066 22.6C16.4322 22.7173 17.8857 22.6 20.1768 21.9592H20.1726Z" fill="#7CCF92" stroke="#002346" stroke-width="0.418852" stroke-miterlimit="10"/>
<path d="M20.8 25.4771C20.8 25.4771 21.3823 21.5817 23.9708 21.5105C24.2179 21.5022 24.4566 21.632 24.5781 21.8456C24.9299 22.4613 25.0933 23.8938 20.8 25.4771Z" fill="#7CCF92" stroke="#002346" stroke-width="0.418852" stroke-miterlimit="10"/>
<path d="M20.5122 25.477C20.2022 25.1963 17.0106 23.0057 15.1844 24.1199C14.8451 24.3251 14.7027 24.7649 14.9121 25.1042C15.1844 25.5482 15.8252 26.4655 20.5164 25.477H20.5122Z" fill="#7CCF92" stroke="#002346" stroke-width="0.418852" stroke-miterlimit="10"/>
<path d="M20.893 29.4777C20.893 29.4777 17.3872 25.8588 15.6532 27.8818C15.6532 27.8818 14.5767 29.9175 20.893 29.4777Z" fill="#7CCF92" stroke="#002346" stroke-width="0.418852" stroke-miterlimit="10"/>
<path d="M20.8929 29.4771C20.8929 29.4771 22.1662 25.6781 24.2773 25.8079C24.4951 25.8205 24.6752 25.9881 24.7171 26.2059C24.8469 26.9012 24.6752 28.4928 20.8929 29.4813V29.4771Z" fill="#7CCF92" stroke="#002346" stroke-width="0.418852" stroke-miterlimit="10"/>
<path d="M20.9382 32.2586C20.9382 32.2586 22.5634 29.067 24.6157 29.201C24.9969 29.2261 25.265 29.557 25.2021 29.934C25.0723 30.6837 24.3184 31.8984 20.9382 32.2586Z" fill="#7CCF92" stroke="#002346" stroke-width="0.418852" stroke-miterlimit="10"/>
<path d="M20.9399 32.2587C20.9399 32.2587 17.966 28.7487 16.521 30.4828C16.521 30.4828 15.5367 32.8828 20.9399 32.2587Z" fill="#7CCF92" stroke="#002346" stroke-width="0.418852" stroke-miterlimit="10"/>
<path d="M21.0101 34.6585C21.0101 34.6585 23.7662 31.9025 25.228 31.9863C25.5756 32.0072 25.8186 32.3423 25.7599 32.6857C25.6385 33.4271 24.8845 34.7716 21.0101 34.6585Z" fill="#7CCF92" stroke="#002346" stroke-width="0.418852" stroke-miterlimit="10"/>
<path d="M21.0095 34.6586C21.0095 34.6586 19.242 32.4387 17.621 32.845C17.1393 32.9664 16.8461 33.5026 17.0974 33.9298C17.3781 34.4157 18.3079 34.8848 21.0095 34.6586Z" fill="#7CCF92" stroke="#002346" stroke-width="0.418852" stroke-miterlimit="10"/>
<path d="M20.8547 37.4146C20.8547 37.4146 22.5888 35.4628 24.5574 35.3162C25.2359 35.2659 25.5961 36.112 25.0726 36.5434C24.5239 36.9958 23.3427 37.4105 20.8547 37.4105V37.4146Z" fill="#7CCF92" stroke="#002346" stroke-width="0.418852" stroke-miterlimit="10"/>
<path d="M20.9889 37.4146C20.9889 37.4146 19.2548 35.4628 17.2862 35.3162C16.6077 35.2659 16.2475 36.112 16.771 36.5434C17.3197 36.9958 18.5009 37.4105 20.9889 37.4105V37.4146Z" fill="#7CCF92" stroke="#002346" stroke-width="0.418852" stroke-miterlimit="10"/>
<path d="M40.2102 25.5695C40.2102 25.5695 32.3274 28.1287 26.5891 38.2608" stroke="#002346" stroke-width="0.418852" stroke-linecap="round" stroke-linejoin="round"/>
<path d="M38.9492 26.1142C38.9492 26.1142 41.4079 23.2953 43.5901 23.6262C44.0718 23.6974 44.4278 24.1205 44.3985 24.6063C44.3482 25.465 43.5147 26.6713 38.9492 26.1142Z" fill="#7CCF92" stroke="#002346" stroke-width="0.418852" stroke-miterlimit="10"/>
<path d="M37.4664 26.8891C37.4664 26.8891 36.7124 22.889 37.9941 21.7958C38.3753 21.4691 38.9491 21.5822 39.2088 22.0136C39.6402 22.7257 39.9167 24.2545 37.4664 26.8891Z" fill="#7CCF92" stroke="#002346" stroke-width="0.418852" stroke-miterlimit="10"/>
<path d="M37.5383 26.9015C37.5383 26.9015 39.997 30.1476 41.6682 29.9298C42.1666 29.867 42.4682 29.3643 42.3216 28.8827C42.0829 28.0868 41.1363 26.8512 37.5383 26.9015Z" fill="#7CCF92" stroke="#002346" stroke-width="0.418852" stroke-miterlimit="10"/>
<path d="M35.0619 28.5143C35.0619 28.5143 33.5121 25.4525 34.1446 23.6723C34.5006 22.6629 35.9918 22.776 36.1844 23.8315C36.3352 24.6567 36.1384 26.0766 35.0619 28.5143Z" fill="#7CCF92" stroke="#002346" stroke-width="0.418852" stroke-miterlimit="10"/>
<path d="M35.1289 28.5266C35.1289 28.5266 38.5384 28.8993 39.686 30.3988C40.3352 31.2491 39.4305 32.4345 38.442 32.0198C37.6671 31.6931 36.5823 30.7549 35.1289 28.5266Z" fill="#7CCF92" stroke="#002346" stroke-width="0.418852" stroke-miterlimit="10"/>
<path d="M32.8769 30.2102C32.8769 30.2102 29.6853 26.1474 31.1722 24.4426C31.4026 24.1788 31.7502 24.074 32.0853 24.1704C32.8518 24.3924 34.0413 25.4604 32.8769 30.2102Z" fill="#7CCF92" stroke="#002346" stroke-width="0.418852" stroke-miterlimit="10"/>
<path d="M32.8757 30.2102C32.8757 30.2102 35.2883 30.1976 37.0349 32.2709C37.4035 32.7065 37.236 33.3934 36.6957 33.5777C35.6485 33.9296 33.9396 33.8249 32.8757 30.2102Z" fill="#7CCF92" stroke="#002346" stroke-width="0.418852" stroke-miterlimit="10"/>
<path d="M31.1093 32.0449C31.1093 32.0449 27.2098 28.7443 28.6548 27.0145C28.6548 27.0145 30.6778 25.2344 31.1093 32.0449Z" fill="#7CCF92" stroke="#002346" stroke-width="0.418852" stroke-miterlimit="10"/>
<path d="M31.1086 32.0445C31.1086 32.0445 33.4165 32.7608 34.3506 34.3398C34.8448 35.1692 33.9233 36.1451 33.0898 35.6592C32.4657 35.2948 31.7537 34.3147 31.1086 32.0445Z" fill="#7CCF92" stroke="#002346" stroke-width="0.418852" stroke-miterlimit="10"/>
<path d="M29.1312 34.3776C29.1312 34.3776 25.9018 32.8446 26.572 30.6289C26.7898 29.9043 27.7783 29.7619 28.2013 30.3902C28.6034 30.9849 28.9804 32.1493 29.1354 34.3818L29.1312 34.3776Z" fill="#7CCF92" stroke="#002346" stroke-width="0.418852" stroke-miterlimit="10"/>
<path d="M29.0602 34.2477C29.0602 34.2477 29.9984 37.6948 32.2979 37.4309C33.0518 37.343 33.366 36.3964 32.8215 35.8728C32.3063 35.3744 31.2256 34.7964 29.0602 34.2519V34.2477Z" fill="#7CCF92" stroke="#002346" stroke-width="0.418852" stroke-miterlimit="10"/>
<path d="M4.96326 22.6797C4.96326 22.6797 14.6681 26.9729 17.7592 38.261" stroke="#002346" stroke-width="0.418852" stroke-linecap="round" stroke-linejoin="round"/>
<path d="M6.60546 23.5714C6.60546 23.5714 2.5468 23.3703 1.4159 21.9337C0.959351 21.3515 1.26509 20.4886 1.97295 20.275C2.96563 19.9735 4.78764 20.0782 6.60546 23.5714Z" fill="#7CCF92" stroke="#002346" stroke-width="0.418852" stroke-miterlimit="10"/>
<path d="M7.9463 24.4889C7.9463 24.4889 6.09497 21.4606 6.45099 19.7643C6.58084 19.1444 7.34315 18.8595 7.84159 19.2491C8.50337 19.7643 9.12746 21.0837 7.9463 24.4889Z" fill="#7CCF92" stroke="#002346" stroke-width="0.418852" stroke-miterlimit="10"/>
<path d="M7.94621 24.4889C7.94621 24.4889 4.82996 24.0575 3.51058 25.1382C2.92419 25.6198 3.14197 26.5916 3.88753 26.7298C4.6666 26.8764 5.96504 26.5581 7.94621 24.4889Z" fill="#7CCF92" stroke="#002346" stroke-width="0.418852" stroke-miterlimit="10"/>
<path d="M9.99455 25.9003C9.99455 25.9003 9.03957 21.9589 10.2877 20.7233C10.6815 20.3337 11.3265 20.4761 11.5317 20.9913C11.8124 21.7034 11.804 23.1484 9.99455 25.9003Z" fill="#7CCF92" stroke="#002346" stroke-width="0.418852" stroke-miterlimit="10"/>
<path d="M10.0439 25.9422C10.0439 25.9422 6.02287 26.4741 5.32339 28.0867C5.1014 28.5935 5.47001 29.1464 6.02289 29.1464C6.78939 29.1506 8.12971 28.6228 10.0439 25.9422Z" fill="#7CCF92" stroke="#002346" stroke-width="0.418852" stroke-miterlimit="10"/>
<path d="M12.1845 28.0193C12.1845 28.0193 11.0327 22.1009 13.6338 22.3899C13.6338 22.3899 16.2264 23.5376 12.1845 28.0193Z" fill="#7CCF92" stroke="#002346" stroke-width="0.418852" stroke-miterlimit="10"/>
<path d="M12.1845 28.0195C12.1845 28.0195 8.43996 28.141 7.6944 29.4311C7.54362 29.6949 7.59808 30.0258 7.8075 30.2478C8.30175 30.763 9.59598 31.3578 12.1845 28.0195Z" fill="#7CCF92" stroke="#002346" stroke-width="0.418852" stroke-miterlimit="10"/>
<path d="M13.8773 30.1353C13.8773 30.1353 13.9485 26.931 16.047 25.8462C16.5035 25.6075 17.0773 25.9049 17.1192 26.4159C17.1862 27.241 16.7088 28.5897 13.8773 30.1353Z" fill="#7CCF92" stroke="#002346" stroke-width="0.418852" stroke-miterlimit="10"/>
<path d="M13.8768 30.1352C13.8768 30.1352 10.2705 30.864 9.65895 32.443C9.50817 32.8367 9.70084 33.2724 10.1029 33.3938C10.7857 33.6033 12.1092 33.3771 13.8768 30.1352Z" fill="#7CCF92" stroke="#002346" stroke-width="0.418852" stroke-miterlimit="10"/>
<path d="M15.5023 32.6815C15.5023 32.6815 15.8667 29.1883 17.8898 28.7736C18.3296 28.6856 18.7568 29.0165 18.761 29.4647C18.7694 30.1851 18.2542 31.3705 15.5023 32.6815Z" fill="#7CCF92" stroke="#002346" stroke-width="0.418852" stroke-miterlimit="10"/>
<path d="M15.5012 32.6813C15.5012 32.6813 12.7368 33.0792 11.6771 34.1682C11.1033 34.7546 11.6939 35.7347 12.4771 35.4834C13.1766 35.2614 14.1902 34.5577 15.5012 32.6813Z" fill="#7CCF92" stroke="#002346" stroke-width="0.418852" stroke-miterlimit="10"/>
<path d="M16.8461 35.647C16.8461 35.647 17.2482 33.1004 18.6513 32.7611C19.1037 32.6522 19.5351 33.0292 19.5225 33.4941C19.5058 34.2061 19.0744 35.2575 16.8461 35.647Z" fill="#7CCF92" stroke="#002346" stroke-width="0.418852" stroke-miterlimit="10"/>
<path d="M16.8459 35.6471C16.8459 35.6471 12.7663 35.1026 12.4773 37.1257C12.4773 37.1257 13.1265 39.3707 16.8459 35.6471Z" fill="#7CCF92" stroke="#002346" stroke-width="0.418852" stroke-miterlimit="10"/>
<path d="M29.8097 20.3711C29.8097 20.3711 24.1133 27.8434 22.9196 38.2603" stroke="#002346" stroke-width="0.418852" stroke-linecap="round" stroke-linejoin="round"/>
<path d="M28.6363 22.0174C28.6363 22.0174 28.4227 18.9011 30.5881 18.5995C31.3421 18.4948 31.9368 19.2571 31.6311 19.9524C31.3588 20.5723 30.5756 21.3263 28.6321 22.0174H28.6363Z" fill="#7CCF92" stroke="#002346" stroke-width="0.418852" stroke-miterlimit="10"/>
<path d="M27.5774 24.1372C27.5774 24.1372 29.6382 21.7288 31.3345 22.8179C31.5146 22.931 31.6109 23.1446 31.5691 23.354C31.4769 23.8315 30.8235 24.5477 27.5774 24.1372Z" fill="#7CCF92" stroke="#002346" stroke-width="0.418852" stroke-miterlimit="10"/>
<path d="M27.4984 24.1247C27.4984 24.1247 24.6084 20.6567 26.3424 19.5006C26.3424 19.5006 28.6544 18.3446 27.4984 24.1247Z" fill="#7CCF92" stroke="#002346" stroke-width="0.418852" stroke-miterlimit="10"/>
<path d="M26.4471 26.0428C26.4471 26.0428 23.5863 23.647 24.9644 22.4407C24.9644 22.4407 26.2628 21.3182 26.4471 26.0428Z" fill="#7CCF92" stroke="#002346" stroke-width="0.418852" stroke-miterlimit="10"/>
<path d="M26.446 26.0428C26.446 26.0428 29.2314 24.6522 30.5131 25.3224C30.9068 25.5276 31.0325 26.0554 30.7518 26.3947C30.3707 26.8512 29.3194 27.2072 26.446 26.0428Z" fill="#7CCF92" stroke="#002346" stroke-width="0.418852" stroke-miterlimit="10"/>
<path d="M25.475 28.7483C25.475 28.7483 27.6656 26.9933 29.186 27.496C29.764 27.6886 29.9483 28.4635 29.4834 28.8572C29.0185 29.251 27.9294 29.4729 25.475 28.7483Z" fill="#7CCF92" stroke="#002346" stroke-width="0.418852" stroke-miterlimit="10"/>
<path d="M25.2568 28.5391C25.2568 28.5391 24.6327 25.804 23.1332 25.2469C22.5636 25.0375 21.9353 25.5275 22.0526 26.1265C22.1699 26.7254 22.8861 27.5757 25.2568 28.5391Z" fill="#7CCF92" stroke="#002346" stroke-width="0.418852" stroke-miterlimit="10"/>
<path d="M24.6081 30.4827C24.6081 30.4827 26.8406 28.9958 28.0845 30.156C28.3065 30.3613 28.3233 30.7131 28.1055 30.9225C27.7285 31.2869 26.807 31.5843 24.6039 30.4827H24.6081Z" fill="#7CCF92" stroke="#002346" stroke-width="0.418852" stroke-miterlimit="10"/>
<path d="M24.6076 30.4825C24.6076 30.4825 22.0317 29.7076 22.4756 28.405C22.5343 28.2291 22.6934 28.1034 22.8777 28.0741C23.3301 28.0029 24.1929 28.1956 24.6118 30.4825H24.6076Z" fill="#7CCF92" stroke="#002346" stroke-width="0.418852" stroke-miterlimit="10"/>
<path d="M23.8461 33.2262C23.8461 33.2262 25.2031 31.9026 26.3215 32.5519C26.5979 32.7152 26.7319 33.0671 26.5812 33.3519C26.3885 33.7121 25.7602 33.9843 23.8461 33.2262Z" fill="#7CCF92" stroke="#002346" stroke-width="0.418852" stroke-miterlimit="10"/>
<path d="M23.8467 33.2264C23.8467 33.2264 23.7629 31.4379 22.4436 31.1112C22.2006 31.0526 21.9703 31.2494 21.9912 31.4966C22.0373 32.0411 22.3472 32.9332 23.8467 33.2264Z" fill="#7CCF92" stroke="#002346" stroke-width="0.418852" stroke-miterlimit="10"/>
<path d="M23.1672 36.2589C23.1672 36.2589 24.5536 34.6421 25.8814 34.9185C26.1913 34.9855 26.3254 35.3751 26.1201 35.618C25.8018 35.9992 25.0311 36.4264 23.1672 36.2547V36.2589Z" fill="#7CCF92" stroke="#002346" stroke-width="0.418852" stroke-miterlimit="10"/>
<path d="M23.3253 36.2589C23.3253 36.2589 21.9389 34.6421 20.6111 34.9185C20.3012 34.9855 20.1672 35.3751 20.3724 35.618C20.6907 35.9992 21.4614 36.4264 23.3253 36.2547V36.2589Z" fill="#7CCF92" stroke="#002346" stroke-width="0.418852" stroke-miterlimit="10"/>
<path d="M34.1442 38.2813H11.032V44.3462H34.1442V38.2813Z" fill="#FFA081" stroke="#002346" stroke-width="0.418852" stroke-miterlimit="10"/>
<path d="M12.7664 44.3469L14.4962 60.5229H30.9655L32.8001 44.4097L12.7664 44.3469Z" fill="#FFA081" stroke="#002346" stroke-width="0.418852" stroke-miterlimit="10"/>
</svg>
