<svg width="66" height="63" viewBox="0 0 66 63" fill="none" xmlns="http://www.w3.org/2000/svg">
<path d="M20.2952 0.599903C20.2952 0.599903 16.8997 6.20207 17.2161 12.4628C17.2988 14.0679 17.7778 15.6359 18.6815 16.9616C19.5169 18.1876 20.8112 19.3964 22.7014 19.4847C23.4198 19.5189 24.1155 19.2253 24.5973 18.6893C25.4611 17.72 26.6414 15.6958 26.2395 12.0751C26.2395 12.0751 26.0342 7.15714 20.298 0.599903H20.2952Z" fill="#B4E045" stroke="#002346" stroke-width="0.285097" stroke-miterlimit="10"/>
<path d="M41.1285 7.7124C41.1285 7.7124 27.0048 10.8314 29.2998 19.4983C29.5621 20.4848 30.483 21.1405 31.5008 21.0521C34.4401 20.8041 40.3616 18.8996 41.1285 7.7124Z" fill="#B4E045" stroke="#002346" stroke-width="0.285097" stroke-miterlimit="10"/>
<path d="M3.77734 17.4009C3.77734 17.4009 10.6168 30.9458 17.3822 25.4121C17.6758 25.1698 17.8868 24.8419 18.0008 24.4798C18.6509 22.3901 19.663 15.4822 3.77734 17.4009Z" fill="#B4E045" stroke="#002346" stroke-width="0.285097" stroke-miterlimit="10"/>
<path d="M27.7937 30.4835C27.7937 30.4835 28.5692 20.0632 43.3229 24.3681C43.3229 24.3681 40.338 33.1149 27.7937 30.4835Z" fill="#B4E045" stroke="#002346" stroke-width="0.285097" stroke-miterlimit="10"/>
<path d="M18.3231 30.1072C18.3231 30.1072 17.4564 27.3645 13.5448 28.4222C11.9682 28.847 10.5599 29.7365 9.44228 30.9254C8.40452 32.0287 7.03321 33.7251 6.02966 35.8462L13.7187 35.6637C14.7365 35.6381 15.7458 35.4043 16.6467 34.931C18.0665 34.1841 19.5205 32.7386 18.3259 30.11L18.3231 30.1072Z" fill="#B4E045" stroke="#002346" stroke-width="0.285097" stroke-miterlimit="10"/>
<path d="M29.5859 58.0784H18.45C16.249 58.0784 14.4272 56.365 14.2904 54.1698L13.304 38.2015H35.2308L33.7369 54.2952C33.5373 56.4391 31.7412 58.0784 29.5887 58.0784H29.5859Z" fill="#FFA081" stroke="#002346" stroke-width="0.285097" stroke-miterlimit="10"/>
<path d="M13.7312 44.3824C13.7312 44.3824 15.8666 41.1722 18.7347 43.6326C18.7347 43.6326 20.374 45.6824 22.0133 44.0431C22.0133 44.0431 24.4737 40.9698 26.9312 43.0196C26.9312 43.0196 28.3652 44.6589 30.6204 43.2249C30.6204 43.2249 33.6937 41.7908 34.7201 43.2249" stroke="#002346" stroke-width="0.285097" stroke-linecap="round" stroke-linejoin="round"/>
<path d="M13.9094 48.2625C13.9094 48.2625 14.9586 46.5063 16.8231 46.9282C17.4418 47.0679 17.9835 47.4357 18.3969 47.9175C18.8701 48.4678 19.9193 49.2632 21.3961 47.9375C21.3961 47.9375 23.8565 45.4771 25.6982 47.3217C25.6982 47.3217 27.5428 49.5768 29.1821 47.9375C29.1821 47.9375 31.4058 45.9874 34.1884 49.1149" stroke="#002346" stroke-width="0.285097" stroke-linecap="round" stroke-linejoin="round"/>
<path d="M14.3062 52.4478C14.3062 52.4478 16.2762 50.5975 18.5313 52.2368C18.5313 52.2368 20.1706 53.4656 21.3994 52.0315C21.3994 52.0315 22.8334 49.3687 25.2938 51.4157C25.2938 51.4157 26.9331 53.4656 28.983 52.0315C28.983 52.0315 31.0328 50.8028 33.9009 52.6473" stroke="#002346" stroke-width="0.285097" stroke-linecap="round" stroke-linejoin="round"/>
<path d="M21.3974 6.95147C21.3974 6.95147 21.1921 11.8694 22.8314 15.7638C22.8314 15.7638 24.8813 20.2712 24.0602 27.0337L23.1507 38.1725" stroke="#002346" stroke-width="0.285097" stroke-linecap="round" stroke-linejoin="round"/>
<path d="M37.3831 11.8694C37.3831 11.8694 24.9472 22.7687 24.6079 38.1183" stroke="#002346" stroke-width="0.285097" stroke-linecap="round" stroke-linejoin="round"/>
<path d="M8.28125 19.4507C8.28125 19.4507 21.1905 22.524 23.3401 37.0241" stroke="#002346" stroke-width="0.285097" stroke-linecap="round" stroke-linejoin="round"/>
<path d="M38.4064 25.3952C38.4064 25.3952 26.3154 26.4187 23.8579 38.0991" stroke="#002346" stroke-width="0.285097" stroke-linecap="round" stroke-linejoin="round"/>
<path d="M10.7422 32.5649C10.7422 32.5649 20.7833 24.3085 23.1382 37.5569" stroke="#002346" stroke-width="0.285097" stroke-linecap="round" stroke-linejoin="round"/>
<path d="M59.0239 57.411C59.0011 57.4395 58.9783 57.4651 58.9555 57.4908C58.6162 57.8614 58.1373 58.0781 57.6298 58.0781H39.1498C39.0471 58.0781 38.9445 58.0695 38.8419 58.0524C38.4513 57.984 38.0949 57.7901 37.8269 57.4936C36.9203 56.4901 35.3551 54.2949 35.6146 51.3042C35.8198 48.9464 37.0486 47.3043 37.8355 46.4746C38.169 46.1211 38.6366 45.9272 39.1241 45.9272H57.6298C58.1686 45.9272 58.6761 46.1667 59.0153 46.583C59.7794 47.5095 60.9169 49.28 60.9939 51.7347C61.0795 54.4403 59.8279 56.4188 59.0182 57.4138L59.0239 57.411Z" fill="#FFA081" stroke="#002346" stroke-width="0.285097" stroke-linecap="round" stroke-linejoin="round"/>
<path d="M48.5225 52.8066V58.0752H44.6509V52.8066C44.6509 51.7375 45.5176 50.8708 46.5867 50.8708C47.1198 50.8708 47.6073 51.0875 47.9552 51.4382C48.3058 51.786 48.5225 52.2735 48.5225 52.8066Z" fill="white" stroke="#002346" stroke-width="0.285097" stroke-miterlimit="10"/>
<path d="M42.39 53.0375V58.0781H39.1485C39.0458 58.0781 38.9432 58.0695 38.8406 58.0524V53.0375C38.8406 51.843 39.6331 50.8708 40.6139 50.8708C41.1014 50.8708 41.5461 51.1131 41.8683 51.5066C42.1876 51.8972 42.39 52.4388 42.39 53.0347V53.0375Z" fill="white" stroke="#002346" stroke-width="0.285097" stroke-miterlimit="10"/>
<path d="M54.1145 52.8066V58.0752H50.2429V52.8066C50.2429 51.7375 51.1096 50.8708 52.1787 50.8708C52.7119 50.8708 53.1994 51.0875 53.5472 51.4382C53.8979 51.786 54.1145 52.2735 54.1145 52.8066Z" fill="white" stroke="#002346" stroke-width="0.285097" stroke-miterlimit="10"/>
</svg>
