<svg width="27" height="27" viewBox="0 0 27 27" fill="none" xmlns="http://www.w3.org/2000/svg">
<g clip-path="url(#clip0_1143_1754)">
<path d="M19.625 14.429L14 20L8.37498 14.429C8.00396 14.068 7.71171 13.634 7.51664 13.1545C7.32157 12.6749 7.2279 12.1602 7.24153 11.6427C7.25517 11.1252 7.3758 10.6161 7.59585 10.1475C7.8159 9.6789 8.13058 9.26094 8.5201 8.91993C8.90961 8.57893 9.36551 8.32227 9.85909 8.16611C10.3527 8.00995 10.8732 7.95769 11.388 8.0126C11.9028 8.06751 12.4006 8.22842 12.8501 8.48518C13.2997 8.74194 13.6912 9.089 14 9.5045C14.3101 9.09202 14.7021 8.74799 15.1513 8.49395C15.6005 8.23992 16.0974 8.08134 16.6107 8.02814C17.124 7.97494 17.6428 8.02827 18.1346 8.18479C18.6263 8.34131 19.0805 8.59765 19.4686 8.93777C19.8568 9.27789 20.1706 9.69446 20.3903 10.1614C20.61 10.6284 20.731 11.1357 20.7457 11.6515C20.7604 12.1674 20.6684 12.6807 20.4756 13.1594C20.2827 13.6381 19.9932 14.0719 19.625 14.4335" stroke="#364152" stroke-width="2" stroke-linecap="round" stroke-linejoin="round"/>
</g>
<circle cx="13.5" cy="13.5" r="13.25" stroke="#364152" stroke-width="0.5"/>
<defs>
<clipPath id="clip0_1143_1754">
<rect width="18" height="18" fill="white" transform="translate(5 5)"/>
</clipPath>
</defs>
</svg>
