<svg width="27" height="27" viewBox="0 0 27 27" fill="none" xmlns="http://www.w3.org/2000/svg">
<path d="M10.4912 21.2277C10.0787 21.2277 9.72559 21.0808 9.43184 20.7871C9.13809 20.4933 8.99121 20.1402 8.99121 19.7277V9.97769H8.24121V8.47769H11.9912V7.72769H16.4912V8.47769H20.2412V9.97769H19.4912V19.7277C19.4912 20.1402 19.3443 20.4933 19.0506 20.7871C18.7568 21.0808 18.4037 21.2277 17.9912 21.2277H10.4912ZM17.9912 9.97769H10.4912V19.7277H17.9912V9.97769ZM11.9912 18.2277H13.4912V11.4777H11.9912V18.2277ZM14.9912 18.2277H16.4912V11.4777H14.9912V18.2277Z" fill="#3F3F3F"/>
<circle cx="13.5" cy="13.5" r="13.25" stroke="#364152" stroke-width="0.5"/>
</svg>
