<svg width="20" height="20" viewBox="0 0 20 20" fill="none" xmlns="http://www.w3.org/2000/svg">
<path d="M10 10C10.4584 10 10.8507 9.8368 11.1771 9.51041C11.5035 9.18402 11.6667 8.79166 11.6667 8.33333C11.6667 7.875 11.5035 7.48264 11.1771 7.15625C10.8507 6.82986 10.4584 6.66666 10 6.66666C9.54171 6.66666 9.14935 6.82986 8.82296 7.15625C8.49657 7.48264 8.33337 7.875 8.33337 8.33333C8.33337 8.79166 8.49657 9.18402 8.82296 9.51041C9.14935 9.8368 9.54171 10 10 10ZM10 16.125C11.6945 14.5694 12.9514 13.1562 13.7709 11.8854C14.5903 10.6146 15 9.48611 15 8.5C15 6.98611 14.5174 5.74652 13.5521 4.78125C12.5868 3.81597 11.4028 3.33333 10 3.33333C8.59726 3.33333 7.41323 3.81597 6.44796 4.78125C5.48268 5.74652 5.00004 6.98611 5.00004 8.5C5.00004 9.48611 5.40976 10.6146 6.22921 11.8854C7.04865 13.1562 8.3056 14.5694 10 16.125ZM10 18.3333C7.76393 16.4306 6.09379 14.6632 4.98962 13.0312C3.88546 11.3993 3.33337 9.88889 3.33337 8.5C3.33337 6.41666 4.00351 4.75694 5.34379 3.52083C6.68407 2.28472 8.23615 1.66666 10 1.66666C11.7639 1.66666 13.316 2.28472 14.6563 3.52083C15.9966 4.75694 16.6667 6.41666 16.6667 8.5C16.6667 9.88889 16.1146 11.3993 15.0105 13.0312C13.9063 14.6632 12.2362 16.4306 10 18.3333Z" fill="#0D2164"/>
</svg>
