<svg width="20" height="21" viewBox="0 0 20 21" fill="none" xmlns="http://www.w3.org/2000/svg">
<g clip-path="url(#clip0_1217_2702)">
<g clip-path="url(#clip1_1217_2702)">
<g clip-path="url(#clip2_1217_2702)">
<path fill-rule="evenodd" clip-rule="evenodd" d="M4.16577 12.8638C6.23122 12.4892 8.11758 12.3019 9.82486 12.3019C11.5321 12.3019 13.4185 12.4892 15.4839 12.8638C16.5631 13.0597 17.5392 13.6282 18.2419 14.4702C18.9447 15.3123 19.3296 16.3743 19.3294 17.471V20.4056H0.320313V17.471C0.320133 16.3743 0.705003 15.3123 1.40778 14.4702C2.11057 13.6282 3.08665 13.0597 4.16577 12.8638ZM5.32395 5.84193C5.32395 3.49648 7.29031 1.59375 9.71668 1.59375C12.1412 1.59375 14.1076 3.49557 14.1076 5.84193C14.1076 8.18739 12.1412 10.0901 9.71668 10.0901C7.2894 10.0901 5.32395 8.1883 5.32395 5.84193Z" fill="#A3CD39"/>
</g>
</g>
</g>
<defs>
<clipPath id="clip0_1217_2702">
<rect width="20" height="20" fill="white" transform="translate(0 0.859375)"/>
</clipPath>
<clipPath id="clip1_1217_2702">
<rect width="20" height="20" fill="white" transform="translate(0 0.859375)"/>
</clipPath>
<clipPath id="clip2_1217_2702">
<rect width="20" height="19.0909" fill="white" transform="translate(0 1.31445)"/>
</clipPath>
</defs>
</svg>
