<svg width="20" height="20" viewBox="0 0 20 20" fill="none" xmlns="http://www.w3.org/2000/svg">
<g clip-path="url(#clip0_1217_2740)">
<g clip-path="url(#clip1_1217_2740)">
<path d="M17.8196 4.1284H9.99355L8.03702 2.17188H2.16746C1.64985 2.17349 1.15403 2.38041 0.788846 2.74723C0.423657 3.11405 0.21894 3.61079 0.219633 4.1284L0.210938 15.8675C0.212543 16.3859 0.419191 16.8827 0.785763 17.2492C1.15233 17.6158 1.64905 17.8224 2.16746 17.824H17.8196C18.338 17.8224 18.8348 17.6158 19.2013 17.2492C19.5679 16.8827 19.7745 16.3859 19.7762 15.8675V6.08492C19.7745 5.56651 19.5679 5.06979 19.2013 4.70322C18.8348 4.33665 18.338 4.13 17.8196 4.1284ZM12.9283 7.06318C13.4467 7.06479 13.9435 7.27143 14.31 7.63801C14.6766 8.00458 14.8832 8.50129 14.8849 9.0197C14.8832 9.53811 14.6766 10.0348 14.31 10.4014C13.9435 10.768 13.4467 10.9746 12.9283 10.9762C12.4099 10.9746 11.9132 10.768 11.5466 10.4014C11.1801 10.0348 10.9734 9.53811 10.9718 9.0197C10.9734 8.50129 11.1801 8.00458 11.5466 7.63801C11.9132 7.27143 12.4099 7.06479 12.9283 7.06318ZM16.8414 14.8893H9.01529V13.911C9.01529 12.6101 11.6275 11.9545 12.9283 11.9545C14.2292 11.9545 16.8414 12.6101 16.8414 13.911V14.8893Z" fill="#A3CD39"/>
</g>
</g>
<defs>
<clipPath id="clip0_1217_2740">
<rect width="20" height="20" fill="white"/>
</clipPath>
<clipPath id="clip1_1217_2740">
<rect width="20" height="16.5217" fill="white" transform="translate(0 1.73828)"/>
</clipPath>
</defs>
</svg>
