<svg width="20" height="20" viewBox="0 0 20 20" fill="none" xmlns="http://www.w3.org/2000/svg">
<g clip-path="url(#clip0_1217_2728)">
<g clip-path="url(#clip1_1217_2728)">
<path d="M18.964 16.0885V17.1033C18.9624 17.6408 18.7481 18.1559 18.368 18.536C17.9879 18.9161 17.4728 19.1304 16.9353 19.132H2.73182C2.19378 19.132 1.67777 18.9182 1.29732 18.5378C0.916862 18.1573 0.703125 17.6413 0.703125 17.1033V2.89979C0.703125 2.36175 0.916862 1.84574 1.29732 1.46529C1.67777 1.08483 2.19378 0.871094 2.73182 0.871094H16.9353C17.4728 0.872699 17.9879 1.08695 18.368 1.46706C18.7481 1.84717 18.9624 2.36224 18.964 2.89979V3.91457H9.83356C9.29552 3.91457 8.77951 4.12831 8.39906 4.50876C8.0186 4.88922 7.80486 5.40522 7.80486 5.94327V14.0598C7.80486 14.5978 8.0186 15.1138 8.39906 15.4943C8.77951 15.8747 9.29552 16.0885 9.83356 16.0885H18.964ZM9.83356 14.0598H19.9788V5.94327H9.83356V14.0598ZM13.8918 11.5233C13.0483 11.5233 12.3701 10.8433 12.3701 10.0015C12.3701 9.15979 13.0483 8.47979 13.8918 8.47979C14.7336 8.47979 15.4136 9.15979 15.4136 10.0015C15.4136 10.8433 14.7336 11.5233 13.8918 11.5233Z" fill="#A3CD39"/>
</g>
</g>
<defs>
<clipPath id="clip0_1217_2728">
<rect width="20" height="20" fill="white"/>
</clipPath>
<clipPath id="clip1_1217_2728">
<rect width="20" height="19.1304" fill="white" transform="translate(0 0.435547)"/>
</clipPath>
</defs>
</svg>
