<svg width="9" height="9" viewBox="0 0 9 9" fill="none" xmlns="http://www.w3.org/2000/svg">
<path d="M3.62586 0.992638C3.95989 0.231199 5.0401 0.231197 5.37413 0.992634L5.76541 1.88458C5.90052 2.19256 6.18773 2.40672 6.52146 2.44833L7.52759 2.57376C8.32212 2.67281 8.64899 3.64715 8.07495 4.20533L7.26775 4.99022C7.03811 5.21351 6.93577 5.53709 6.99525 5.85182L7.19961 6.93323C7.35189 7.73903 6.48423 8.34908 5.77749 7.93312L4.98417 7.46619C4.68534 7.29032 4.31464 7.29032 4.01582 7.4662L3.22252 7.93311C2.51578 8.34907 1.64812 7.73903 1.80039 6.93323L2.00475 5.85182C2.06423 5.53709 1.96189 5.21351 1.73225 4.99022L0.925052 4.20533C0.351013 3.64715 0.677884 2.67281 1.47241 2.57376L2.47854 2.44833C2.81227 2.40672 3.09948 2.19256 3.23458 1.88458L3.62586 0.992638Z" fill="#263B81"/>
</svg>
